{
.appVersion = "926";
copyright = "(C) 2008-2014 Andrey V. Panov (panov@canopus.iacp.dvo.ru), with Reserved Font Name Istok.";
customParameters = (
{
name = license;
value = "This Font Software is licensed under the SIL Open Font License, Version 1.1. This license is available with a FAQ at: http://scripts.sil.org/OFL";
},
{
name = licenseURL;
value = "http://scripts.sil.org/OFL";
},
{
name = fsType;
value = (
);
},
{
name = "Use Typo Metrics";
value = 1;
},
{
name = "Disable Last Change";
value = 1;
},
{
name = "Use Line Breaks";
value = 1;
}
);
date = "2016-10-15 02:32:12 +0000";
designer = "Andrey V. Panov";
designerURL = "http://code.google.com/u/andrej.panov/";
disablesAutomaticAlignment = 1;
familyName = Istok;
featurePrefixes = (
{
automatic = 1;
code = "languagesystem DFLT dflt;
";
name = Languagesystems;
}
);
features = (
{
automatic = 1;
code = "feature frac;
feature ordn;
feature c2sc;
";
name = aalt;
},
{
automatic = 1;
code = "sub one slash eight by oneeighth;
sub one slash four by onequarter;
sub three slash eight by threeeighths;
sub one slash two by onehalf;
sub five slash eight by fiveeighths;
sub three slash four by threequarters;
sub seven slash eight by seveneighths;
sub one slash three by onethird;
sub two slash three by twothirds;
";
name = frac;
},
{
automatic = 1;
code = "sub [zero one two three four five six seven eight nine] [A a]' by ordfeminine;
sub [zero one two three four five six seven eight nine] [O o]' by ordmasculine;
";
name = ordn;
},
{
automatic = 1;
code = "sub A by A.sc;
sub Adieresis by Adieresis.sc;
sub Aring by Aring.sc;
sub AE by AE.sc;
sub B by B.sc;
sub C by C.sc;
sub Ccedilla by Ccedilla.sc;
sub D by D.sc;
sub Eth by Eth.sc;
sub E by E.sc;
sub Edieresis by Edieresis.sc;
sub F by F.sc;
sub G by G.sc;
sub H by H.sc;
sub I by I.sc;
sub Idieresis by Idieresis.sc;
sub J by J.sc;
sub K by K.sc;
sub L by L.sc;
sub Lcaron by Lcaron.sc;
sub M by M.sc;
sub N by N.sc;
sub O by O.sc;
sub Oacute by Oacute.sc;

glyphs = (
{
glyphname = A;
layers = (
{
layerId = UUID0;
paths = (
{
closed = 1;
nodes = (
"85 0 LINE SMOOTH",
"102 0 OFFCURVE",
"114 8 OFFCURVE",
"121 24 CURVE SMOOTH",
"182 186 LINE",
"482 186 LINE",
"543 24 LINE SMOOTH",
"549 8 OFFCURVE",
"562 0 OFFCURVE",
"579 0 CURVE SMOOTH",
"628 0 LINE SMOOTH",
"640 0 OFFCURVE",
"646 5 OFFCURVE",
"646 15 CURVE SMOOTH",
"646 20 OFFCURVE",
"644 25 OFFCURVE",
"642 32 CURVE",
"398 670 LINE SMOOTH",
"391 690 OFFCURVE",
"380 700 OFFCURVE",
"366 700 CURVE SMOOTH",
"298 700 LINE SMOOTH",
"283 700 OFFCURVE",
"273 690 OFFCURVE",
"266 670 CURVE SMOOTH",
"22 32 LINE SMOOTH",
"20 25 OFFCURVE",
"19 20 OFFCURVE",
"19 15 CURVE SMOOTH",
"19 5 OFFCURVE",
"24 0 OFFCURVE",
"36 0 CURVE SMOOTH"
);
},
{
closed = 1;
nodes = (
"287 461 LINE SMOOTH",
"302 500 OFFCURVE",
"312 532 OFFCURVE",
"331 616 CURVE",
"333 616 LINE",
"352 532 OFFCURVE",
"362 500 OFFCURVE",
"377 461 CURVE SMOOTH",
"452 266 LINE",
"212 266 LINE"
);
}
);
width = 664;
},
{
layerId = "39B5C782-31E0-4FF6-90B4-6BA13107E116";
paths = (
{
closed = 1;
nodes = (
"122 0 LINE SMOOTH",
"143 0 OFFCURVE",
"158 11 OFFCURVE",
"167 34 CURVE SMOOTH",
"216 165 LINE",
"464 165 LINE",
"514 34 LINE SMOOTH",
"522 11 OFFCURVE",
"538 0 OFFCURVE",
"559 0 CURVE SMOOTH",
"637 0 LINE SMOOTH",
"654 0 OFFCURVE",
"663 6 OFFCURVE",
"663 18 CURVE SMOOTH",
"663 22 OFFCURVE",
"662 26 OFFCURVE",
"660 32 CURVE SMOOTH",
"420 661 LINE SMOOTH",
"410 687 OFFCURVE",
"395 700 OFFCURVE",
"375 700 CURVE SMOOTH",
"306 700 LINE SMOOTH",
"286 700 OFFCURVE",
"270 687 OFFCURVE",
"260 661 CURVE SMOOTH",
"21 32 LINE SMOOTH",
"19 26 OFFCURVE",
"18 22 OFFCURVE",
"18 18 CURVE SMOOTH",
"18 6 OFFCURVE",
"26 0 OFFCURVE",
"44 0 CURVE SMOOTH"
);
},
{
closed = 1;
nodes = (
"322 441 LINE SMOOTH",
"337 479 OFFCURVE",
"336 483 OFFCURVE",
"339 518 CURVE",
"341 518 LINE",
"344 482 OFFCURVE",
"343 480 OFFCURVE",
"359 441 CURVE",
"419 286 LINE",
"262 286 LINE"
);
}
);
width = 681;
}
);
unicode = 0041;
},
{
glyphname = Aogonek;
layers = (
{
layerId = UUID0;
paths = (
{
closed = 1;
nodes = (
"85 0 LINE SMOOTH",
"102 0 OFFCURVE",
"114 8 OFFCURVE",
"121 24 CURVE SMOOTH",
"182 186 LINE",
"482 186 LINE",
"543 24 LINE SMOOTH",
"546 16 OFFCURVE",
"548 10 OFFCURVE",
"548 5 CURVE SMOOTH",
"548 -1 OFFCURVE",
"546 -5 OFFCURVE",
"542 -8 CURVE SMOOTH",
"494 -44 OFFCURVE",
"465 -65 OFFCURVE",
"465 -125 CURVE SMOOTH",
"465 -164 OFFCURVE",
"496 -204 OFFCURVE",
"572 -204 CURVE SMOOTH",
"590 -204 OFFCURVE",
"641 -204 OFFCURVE",
"641 -188 CURVE SMOOTH",
"641 -187 OFFCURVE",
"641 -186 OFFCURVE",
"641 -185 CURVE SMOOTH",
"634 -146 LINE SMOOTH",
"633 -140 OFFCURVE",
"630 -136 OFFCURVE",
"625 -136 CURVE SMOOTH",
"615 -136 OFFCURVE",
"601 -140 OFFCURVE",
"583 -140 CURVE SMOOTH",
"556 -140 OFFCURVE",
"543 -128 OFFCURVE",
"543 -103 CURVE SMOOTH",
"543 -65 OFFCURVE",
"602 -19 OFFCURVE",
"637 0 CURVE SMOOTH",
"643 3 OFFCURVE",
"646 8 OFFCURVE",
"646 15 CURVE SMOOTH",
"646 20 OFFCURVE",
"644 25 OFFCURVE",
"642 32 CURVE SMOOTH",
"398 670 LINE SMOOTH",
"391 690 OFFCURVE",
"380 700 OFFCURVE",
"366 700 CURVE SMOOTH",
"298 700 LINE SMOOTH",
"283 700 OFFCURVE",
"273 690 OFFCURVE",
"266 670 CURVE SMOOTH",
"22 32 LINE SMOOTH",
"20 25 OFFCURVE",
"19 20 OFFCURVE",
"19 15 CURVE SMOOTH",
"19 5 OFFCURVE",
"24 0 OFFCURVE",
"36 0 CURVE SMOOTH"
);
},
{
closed = 1;
nodes = (
"287 461 LINE SMOOTH",
"302 500 OFFCURVE",
"312 532 OFFCURVE",
"331 616 CURVE",
"333 616 LINE",
"352 532 OFFCURVE",
"362 500 OFFCURVE",
"377 461 CURVE SMOOTH",
"452 266 LINE",
"212 266 LINE"
);
}
);
width = 664;
},
{
layerId = "39B5C782-31E0-4FF6-90B4-6BA13107E116";
paths = (
{
closed = 1;
nodes = (
"122 0 LINE SMOOTH",
"143 0 OFFCURVE",
"158 11 OFFCURVE",
"167 34 CURVE SMOOTH",
"216 165 LINE",
"464 165 LINE",
"514 34 LINE SMOOTH",
"517 27 OFFCURVE",
"518 21 OFFCURVE",
"518 16 CURVE SMOOTH",
"518 10 OFFCURVE",
"516 4 OFFCURVE",
"511 0 CURVE SMOOTH",
"442 -60 OFFCURVE",
"438 -85 OFFCURVE",
"436 -121 CURVE",
"436 -176 OFFCURVE",
"481 -205 OFFCURVE",
"573 -205 CURVE SMOOTH",
"625 -205 OFFCURVE",
"655 -204 OFFCURVE",
"655 -183 CURVE SMOOTH",
"655 -182 OFFCURVE",
"655 -181 OFFCURVE",
"655 -180 CURVE SMOOTH",
"648 -122 LINE SMOOTH",
"647 -112 OFFCURVE",
"642 -106 OFFCURVE",
"633 -106 CURVE SMOOTH",
"623 -106 OFFCURVE",
"608 -109 OFFCURVE",
"589 -109 CURVE SMOOTH",
"568 -109 OFFCURVE",
"551 -106 OFFCURVE",
"551 -86 CURVE SMOOTH",
"551 -66 OFFCURVE",
"638 -6 OFFCURVE",
"646 -3 CURVE SMOOTH",
"657 1 OFFCURVE",
"663 8 OFFCURVE",
"663 18 CURVE SMOOTH",
"663 22 OFFCURVE",
"662 27 OFFCURVE",
"660 32 CURVE SMOOTH",
"420 661 LINE SMOOTH",
"410 687 OFFCURVE",
"395 700 OFFCURVE",
"375 700 CURVE SMOOTH",
"306 700 LINE SMOOTH",
"286 700 OFFCURVE",
"270 687 OFFCURVE",
"260 661 CURVE SMOOTH",
"21 32 LINE SMOOTH",
"19 26 OFFCURVE",
"18 22 OFFCURVE",
"18 18 CURVE SMOOTH",
"18 6 OFFCURVE",
"26 0 OFFCURVE",
"44 0 CURVE SMOOTH"
);
},
{
closed = 1;
nodes = (
"322 441 LINE SMOOTH",
"337 479 OFFCURVE",
"336 483 OFFCURVE",
"339 518 CURVE",
"341 518 LINE",
"344 482 OFFCURVE",
"343 480 OFFCURVE",
"359 441 CURVE",
"419 286 LINE",
"262 286 LINE"
);
}
);
width = 681;
}
);
unicode = 0104;
},
{
glyphname = AE;
layers = (
{
layerId = UUID0;
paths = (
{
closed = 1;
nodes = (
"88 0 LINE SMOOTH",
"102 0 OFFCURVE",
"113 8 OFFCURVE",
"121 24 CURVE SMOOTH",
"199 186 LINE",
"438 186 LINE",
"438 27 LINE SMOOTH",
"438 9 OFFCURVE",
"446 0 OFFCURVE",
"462 0 CURVE SMOOTH",
"885 0 LINE SMOOTH",
"903 0 OFFCURVE",
"912 7 OFFCURVE",
"912 22 CURVE SMOOTH",
"912 58 LINE SMOOTH",
"912 73 OFFCURVE",
"903 80 OFFCURVE",
"885 80 CURVE SMOOTH",
"532 80 LINE",
"532 323 LINE",
"841 323 LINE SMOOTH",
"859 323 OFFCURVE",
"868 331 OFFCURVE",
"868 345 CURVE SMOOTH",
"868 381 LINE SMOOTH",
"868 396 OFFCURVE",
"859 403 OFFCURVE",
"841 403 CURVE SMOOTH",
"532 403 LINE",
"532 620 LINE",
"870 620 LINE SMOOTH",
"888 620 OFFCURVE",
"897 627 OFFCURVE",
"897 642 CURVE SMOOTH",
"897 678 LINE SMOOTH",
"897 693 OFFCURVE",
"888 700 OFFCURVE",
"870 700 CURVE SMOOTH",
"370 700 LINE SMOOTH",
"356 700 OFFCURVE",
"345 692 OFFCURVE",
"337 675 CURVE SMOOTH",
"22 32 LINE SMOOTH",
"19 25 OFFCURVE",
"17 19 OFFCURVE",
"17 14 CURVE SMOOTH",
"17 4 OFFCURVE",
"23 0 OFFCURVE",
"36 0 CURVE SMOOTH"
);
},
{
closed = 1;
nodes = (
"360 514 LINE SMOOTH",
"381 557 OFFCURVE",
"393 581 OFFCURVE",
"404 620 CURVE",
"438 620 LINE",
"438 266 LINE",
"239 266 LINE"
);
}
);
width = 956;
},
{
layerId = "39B5C782-31E0-4FF6-90B4-6BA13107E116";
paths = (
{
closed = 1;
nodes = (
"123 0 LINE SMOOTH",
"144 0 OFFCURVE",
"158 11 OFFCURVE",
"168 34 CURVE SMOOTH",
"224 165 LINE",
"402 165 LINE",
"402 37 LINE SMOOTH",
"402 12 OFFCURVE",
"414 0 OFFCURVE",
"437 0 CURVE SMOOTH",
"855 0 LINE SMOOTH",
"879 0 OFFCURVE",
"892 11 OFFCURVE",
"892 32 CURVE SMOOTH",
"892 89 LINE SMOOTH",
"892 110 OFFCURVE",
"879 121 OFFCURVE",
"855 121 CURVE SMOOTH",
"545 121 LINE",
"545 303 LINE",
"813 303 LINE SMOOTH",
"838 303 OFFCURVE",
"850 313 OFFCURVE",
"850 334 CURVE SMOOTH",
"850 392 LINE SMOOTH",
"850 413 OFFCURVE",
"838 424 OFFCURVE",
"813 424 CURVE SMOOTH",
"545 424 LINE",
"545 579 LINE",
"839 579 LINE SMOOTH",
"864 579 OFFCURVE",
"876 590 OFFCURVE",
"876 611 CURVE SMOOTH",
"876 668 LINE SMOOTH",
"876 689 OFFCURVE",
"864 700 OFFCURVE",
"839 700 CURVE SMOOTH",
"333 700 LINE SMOOTH",
"313 700 OFFCURVE",
"298 687 OFFCURVE",
"287 661 CURVE SMOOTH",
"21 32 LINE SMOOTH",
"19 26 OFFCURVE",
"17 21 OFFCURVE",
"17 17 CURVE SMOOTH",
"17 6 OFFCURVE",
"26 0 OFFCURVE",
"44 0 CURVE SMOOTH"
);
},
{
closed = 1;
nodes = (
"353 471 LINE SMOOTH",
"369 507 OFFCURVE",
"377 532 OFFCURVE",
"385 579 CURVE",
"402 579 LINE",
"402 286 LINE",
"274 286 LINE"
);
}
);
width = 933;
}
);
unicode = 00C6;
},
{
glyphname = B;
layers = (
{
layerId = UUID0;
paths = (
{
closed = 1;
nodes = (
"322 0 LINE SMOOTH",
"432 0 OFFCURVE",
"507 19 OFFCURVE",
"548 56 CURVE SMOOTH",
"589 93 OFFCURVE",
"609 139 OFFCURVE",
"609 194 CURVE SMOOTH",
"609 246 OFFCURVE",
"589 286 OFFCURVE",
"548 315 CURVE SMOOTH",
"508 345 OFFCURVE",
"471 362 OFFCURVE",
"438 365 CURVE",
"438 366 LINE",
"496 375 OFFCURVE",
"579 436 OFFCURVE",
"579 517 CURVE SMOOTH",
"579 567 OFFCURVE",
"560 611 OFFCURVE",
"521 646 CURVE SMOOTH",
"483 682 OFFCURVE",
"409 700 OFFCURVE",
"298 700 CURVE SMOOTH",
"107 700 LINE SMOOTH",
"91 700 OFFCURVE",
"83 691 OFFCURVE",
"83 673 CURVE SMOOTH",
"83 27 LINE SMOOTH",
"83 9 OFFCURVE",
"91 0 OFFCURVE",
"107 0 CURVE SMOOTH"
);
},
{
closed = 1;
nodes = (
"177 324 LINE",
"307 324 LINE SMOOTH",
"445 324 OFFCURVE",
"509 278 OFFCURVE",
"509 197 CURVE SMOOTH",
"509 109 OFFCURVE",
"446 80 OFFCURVE",
"307 80 CURVE SMOOTH",
"177 80 LINE"
);
},
{
closed = 1;
nodes = (
"177 620 LINE",
"299 620 LINE SMOOTH",
"445 620 OFFCURVE",
"484 583 OFFCURVE",
"484 517 CURVE SMOOTH",
"484 447 OFFCURVE",
"408 395 OFFCURVE",
"299 395 CURVE SMOOTH",
"177 395 LINE"
);
}
);
width = 663;
},
{
layerId = "39B5C782-31E0-4FF6-90B4-6BA13107E116";
paths = (
{
closed = 1;
nodes = (
"308 0 LINE SMOOTH",
"534 0 OFFCURVE",
"623 83 OFFCURVE",
"623 201 CURVE SMOOTH",
"623 252 OFFCURVE",
"603 292 OFFCURVE",
"563 320 CURVE SMOOTH",
"522 348 OFFCURVE",
"488 363 OFFCURVE",
"458 365 CURVE",
"458 366 LINE",
"489 370 OFFCURVE",
"520 384 OFFCURVE",
"553 409 CURVE SMOOTH",
"585 433 OFFCURVE",
"602 468 OFFCURVE",
"602 512 CURVE SMOOTH",
"602 576 OFFCURVE",
"580 623 OFFCURVE",
"536 654 CURVE SMOOTH",
"493 685 OFFCURVE",
"408 700 OFFCURVE",
"283 700 CURVE SMOOTH",
"117 700 LINE SMOOTH",
"91 700 OFFCURVE",
"78 688 OFFCURVE",
"78 664 CURVE SMOOTH",
"78 37 LINE SMOOTH",
"78 12 OFFCURVE",
"91 0 OFFCURVE",
"117 0 CURVE SMOOTH"
);
},
{
closed = 1;
nodes = (
"221 302 LINE",
"292 302 LINE SMOOTH",
"414 302 OFFCURVE",
"470 279 OFFCURVE",
"470 210 CURVE SMOOTH",
"470 137 OFFCURVE",
"432 119 OFFCURVE",
"292 119 CURVE SMOOTH",
"221 119 LINE"
);
},
{
closed = 1;
nodes = (
"221 581 LINE",
"285 581 LINE SMOOTH",
"359 581 OFFCURVE",
"406 574 OFFCURVE",
"427 562 CURVE SMOOTH",
"447 549 OFFCURVE",
"458 531 OFFCURVE",
"458 507 CURVE SMOOTH",
"458 444 OFFCURVE",
"364 417 OFFCURVE",
"285 417 CURVE SMOOTH",
"221 417 LINE"
);
}
);
width = 673;
}
);
unicode = 0042;
},
{
glyphname = Bstroke;
layers = (
{
layerId = UUID0;
paths = (
{
closed = 1;
nodes = (
"103 168 LINE",
"103 27 LINE SMOOTH",
"103 9 OFFCURVE",
"111 0 OFFCURVE",
"127 0 CURVE SMOOTH",
"342 0 LINE SMOOTH",
"452 0 OFFCURVE",
"527 19 OFFCURVE",
"567 56 CURVE SMOOTH",
"608 93 OFFCURVE",
"629 139 OFFCURVE",
"629 194 CURVE SMOOTH",
"629 246 OFFCURVE",
"608 286 OFFCURVE",
"568 315 CURVE SMOOTH",
"527 345 OFFCURVE",
"491 362 OFFCURVE",
"458 365 CURVE",
"458 366 LINE",
"515 375 OFFCURVE",
"599 436 OFFCURVE",
"599 517 CURVE SMOOTH",
"599 567 OFFCURVE",
"580 611 OFFCURVE",
"541 646 CURVE SMOOTH",
"502 682 OFFCURVE",
"428 700 OFFCURVE",
"317 700 CURVE SMOOTH",
"127 700 LINE SMOOTH",
"111 700 OFFCURVE",
"103 691 OFFCURVE",
"103 673 CURVE SMOOTH",
"103 246 LINE",
"46 246 LINE SMOOTH",
"28 246 OFFCURVE",
"20 238 OFFCURVE",
"20 224 CURVE SMOOTH",
"20 190 LINE SMOOTH",
"20 176 OFFCURVE",
"28 168 OFFCURVE",
"46 168 CURVE SMOOTH"
);
},
{
closed = 1;
nodes = (
"196 168 LINE",
"337 168 LINE SMOOTH",
"355 168 OFFCURVE",
"364 176 OFFCURVE",
"364 190 CURVE SMOOTH",
"364 224 LINE SMOOTH",
"364 238 OFFCURVE",
"355 246 OFFCURVE",
"337 246 CURVE SMOOTH",
"196 246 LINE",
"196 324 LINE",
"326 324 LINE SMOOTH",
"464 324 OFFCURVE",
"529 278 OFFCURVE",
"529 197 CURVE SMOOTH",
"529 109 OFFCURVE",
"465 80 OFFCURVE",
"326 80 CURVE SMOOTH",
"196 80 LINE"
);
},
{
closed = 1;
nodes = (
"196 620 LINE",
"319 620 LINE SMOOTH",
"464 620 OFFCURVE",
"503 583 OFFCURVE",
"503 517 CURVE SMOOTH",
"503 447 OFFCURVE",
"427 395 OFFCURVE",
"319 395 CURVE SMOOTH",
"196 395 LINE"
);
}
);
width = 683;
},
{
layerId = "39B5C782-31E0-4FF6-90B4-6BA13107E116";
width = 293;
}
);
unicode = 0243;
},
{
glyphname = C;
layers = (
{
layerId = UUID0;
paths = (
{
closed = 1;
nodes = (
"45 124 OFFCURVE",
"160 -15 OFFCURVE",
"373 -15 CURVE SMOOTH",
"505 -15 OFFCURVE",
"593 42 OFFCURVE",
"630 116 CURVE SMOOTH",
"635 125 OFFCURVE",
"637 132 OFFCURVE",
"637 139 CURVE SMOOTH",
"637 146 OFFCURVE",
"634 151 OFFCURVE",
"627 155 CURVE SMOOTH",
"587 178 LINE SMOOTH",
"583 180 OFFCURVE",
"580 181 OFFCURVE",
"576 181 CURVE SMOOTH",
"567 181 OFFCURVE",
"559 175 OFFCURVE",
"552 161 CURVE SMOOTH",
"527 116 OFFCURVE",
"473 62 OFFCURVE",
"378 62 CURVE SMOOTH",
"213 62 OFFCURVE",
"145 169 OFFCURVE",
"145 350 CURVE SMOOTH",
"145 532 OFFCURVE",
"214 639 OFFCURVE",
"378 639 CURVE SMOOTH",
"470 639 OFFCURVE",
"515 594 OFFCURVE",
"536 554 CURVE SMOOTH",
"543 540 OFFCURVE",
"551 533 OFFCURVE",
"560 533 CURVE SMOOTH",
"563 533 OFFCURVE",
"566 534 OFFCURVE",
"570 536 CURVE SMOOTH",
"609 558 LINE SMOOTH",
"616 562 OFFCURVE",
"619 568 OFFCURVE",
"619 576 CURVE SMOOTH",
"619 582 OFFCURVE",
"617 589 OFFCURVE",
"613 597 CURVE SMOOTH",
"578 670 OFFCURVE",
"497 715 OFFCURVE",
"373 715 CURVE SMOOTH",
"162 715 OFFCURVE",
"45 577 OFFCURVE",
"45 350 CURVE SMOOTH"
);
}
);
width = 685;
},
{
layerId = "39B5C782-31E0-4FF6-90B4-6BA13107E116";
paths = (
{
closed = 1;
nodes = (
"42 126 OFFCURVE",
"162 -17 OFFCURVE",
"374 -17 CURVE SMOOTH",
"505 -17 OFFCURVE",
"601 37 OFFCURVE",
"639 102 CURVE SMOOTH",
"644 111 OFFCURVE",
"647 120 OFFCURVE",
"647 127 CURVE SMOOTH",
"647 137 OFFCURVE",
"643 145 OFFCURVE",
"634 150 CURVE SMOOTH",
"575 189 LINE SMOOTH",
"569 193 OFFCURVE",
"563 195 OFFCURVE",
"558 195 CURVE SMOOTH",
"533 195 OFFCURVE",
"526 159 OFFCURVE",
"472 124 CURVE SMOOTH",
"446 107 OFFCURVE",
"416 99 OFFCURVE",
"379 99 CURVE SMOOTH",
"240 99 OFFCURVE",
"194 189 OFFCURVE",
"194 350 CURVE SMOOTH",
"194 512 OFFCURVE",
"241 602 OFFCURVE",
"379 602 CURVE SMOOTH",
"440 602 OFFCURVE",
"491 572 OFFCURVE",
"507 543 CURVE SMOOTH",
"516 527 OFFCURVE",
"526 519 OFFCURVE",
"539 519 CURVE SMOOTH",
"545 519 OFFCURVE",
"551 521 OFFCURVE",
"558 524 CURVE SMOOTH",
"616 556 LINE SMOOTH",
"625 561 OFFCURVE",
"629 568 OFFCURVE",
"629 578 CURVE SMOOTH",
"629 585 OFFCURVE",
"627 594 OFFCURVE",
"622 604 CURVE SMOOTH",
"587 677 OFFCURVE",
"498 717 OFFCURVE",
"374 717 CURVE SMOOTH",
"159 717 OFFCURVE",
"42 573 OFFCURVE",
"42 350 CURVE SMOOTH"
);
}
);
width = 692;
}
);
unicode = 0043;
},
{
glyphname = D;
layers = (
{
layerId = UUID0;
paths = (
{
closed = 1;
nodes = (
"288 0 LINE SMOOTH",
"426 0 OFFCURVE",
"521 31 OFFCURVE",
"575 92 CURVE SMOOTH",
"629 154 OFFCURVE",
"656 240 OFFCURVE",
"656 351 CURVE SMOOTH",
"656 462 OFFCURVE",
"629 547 OFFCURVE",
"575 608 CURVE SMOOTH",
"521 669 OFFCURVE",
"426 700 OFFCURVE",
"288 700 CURVE SMOOTH",
"107 700 LINE SMOOTH",
"91 700 OFFCURVE",
"83 691 OFFCURVE",
"83 673 CURVE SMOOTH",
"83 27 LINE SMOOTH",
"83 9 OFFCURVE",
"91 0 OFFCURVE",
"107 0 CURVE SMOOTH"
);
},
{
closed = 1;
nodes = (
"177 621 LINE",
"283 621 LINE SMOOTH",
"391 621 OFFCURVE",
"462 599 OFFCURVE",
"500 553 CURVE SMOOTH",
"538 508 OFFCURVE",
"556 440 OFFCURVE",
"556 351 CURVE SMOOTH",
"556 262 OFFCURVE",
"538 194 OFFCURVE",
"500 148 CURVE SMOOTH",
"463 103 OFFCURVE",
"391 80 OFFCURVE",
"283 80 CURVE SMOOTH",
"177 80 LINE"
);
}
);
width = 701;
},
{
layerId = "39B5C782-31E0-4FF6-90B4-6BA13107E116";
paths = (
{
closed = 1;
nodes = (
"283 0 LINE SMOOTH",
"433 0 OFFCURVE",
"533 31 OFFCURVE",
"586 92 CURVE SMOOTH",
"640 153 OFFCURVE",
"666 239 OFFCURVE",
"666 351 CURVE SMOOTH",
"666 463 OFFCURVE",
"640 548 OFFCURVE",
"586 609 CURVE SMOOTH",
"534 670 OFFCURVE",
"433 700 OFFCURVE",
"283 700 CURVE SMOOTH",
"112 700 LINE SMOOTH",
"89 700 OFFCURVE",
"78 688 OFFCURVE",
"78 664 CURVE SMOOTH",
"78 37 LINE SMOOTH",
"78 12 OFFCURVE",
"89 0 OFFCURVE",
"112 0 CURVE SMOOTH"
);
},
{
closed = 1;
nodes = (
"221 580 LINE",
"273 580 LINE SMOOTH",
"375 580 OFFCURVE",
"439 562 OFFCURVE",
"469 524 CURVE SMOOTH",
"499 487 OFFCURVE",
"514 429 OFFCURVE",
"514 351 CURVE SMOOTH",
"514 273 OFFCURVE",
"499 215 OFFCURVE",
"469 177 CURVE SMOOTH",
"439 140 OFFCURVE",
"375 121 OFFCURVE",
"273 121 CURVE SMOOTH",
"221 121 LINE"
);
}
);
width = 708;
}
);
unicode = 0044;
},
{
glyphname = Eth;
layers = (
{
layerId = UUID0;
paths = (
{
closed = 1;
nodes = (
"107 319 LINE",
"107 27 LINE SMOOTH",
"107 9 OFFCURVE",
"116 0 OFFCURVE",
"132 0 CURVE SMOOTH",
"312 0 LINE SMOOTH",
"450 0 OFFCURVE",
"546 31 OFFCURVE",
"600 92 CURVE SMOOTH",
"654 154 OFFCURVE",
"681 240 OFFCURVE",
"681 351 CURVE SMOOTH",
"681 462 OFFCURVE",
"654 547 OFFCURVE",
"600 608 CURVE SMOOTH",
"546 669 OFFCURVE",
"450 700 OFFCURVE",
"312 700 CURVE SMOOTH",
"132 700 LINE SMOOTH",
"116 700 OFFCURVE",
"107 691 OFFCURVE",
"107 673 CURVE SMOOTH",
"107 399 LINE",
"46 399 LINE SMOOTH",
"28 399 OFFCURVE",
"20 392 OFFCURVE",
"20 377 CURVE SMOOTH",
"20 341 LINE SMOOTH",
"20 327 OFFCURVE",
"28 319 OFFCURVE",
"46 319 CURVE SMOOTH"
);
},
{
closed = 1;
nodes = (
"201 319 LINE",
"353 319 LINE SMOOTH",
"371 319 OFFCURVE",
"380 327 OFFCURVE",
"380 341 CURVE SMOOTH",
"380 377 LINE SMOOTH",
"380 392 OFFCURVE",
"371 399 OFFCURVE",
"353 399 CURVE SMOOTH",
"201 399 LINE",
"201 621 LINE",
"308 621 LINE SMOOTH",
"415 621 OFFCURVE",
"487 599 OFFCURVE",
"524 553 CURVE SMOOTH",
"562 508 OFFCURVE",
"581 440 OFFCURVE",
"581 351 CURVE SMOOTH",
"581 262 OFFCURVE",
"562 194 OFFCURVE",
"524 148 CURVE SMOOTH",
"487 103 OFFCURVE",
"415 80 OFFCURVE",
"308 80 CURVE SMOOTH",
"201 80 LINE"
);
}
);
width = 726;
},
{
layerId = "39B5C782-31E0-4FF6-90B4-6BA13107E116";
paths = (
{
closed = 1;
nodes = (
"103 299 LINE",
"103 37 LINE SMOOTH",
"103 12 OFFCURVE",
"114 0 OFFCURVE",
"137 0 CURVE SMOOTH",
"307 0 LINE SMOOTH",
"457 0 OFFCURVE",
"558 31 OFFCURVE",
"611 92 CURVE SMOOTH",
"664 153 OFFCURVE",
"690 239 OFFCURVE",
"690 351 CURVE SMOOTH",
"690 463 OFFCURVE",
"664 548 OFFCURVE",
"611 609 CURVE SMOOTH",
"558 670 OFFCURVE",
"457 700 OFFCURVE",
"307 700 CURVE SMOOTH",
"137 700 LINE SMOOTH",
"114 700 OFFCURVE",
"103 688 OFFCURVE",
"103 664 CURVE SMOOTH",
"103 420 LINE",
"51 420 LINE SMOOTH",
"27 420 OFFCURVE",
"15 409 OFFCURVE",
"15 388 CURVE SMOOTH",
"15 331 LINE SMOOTH",
"15 310 OFFCURVE",
"27 299 OFFCURVE",
"51 299 CURVE SMOOTH"
);
},
{
closed = 1;
nodes = (
"245 299 LINE",
"362 299 LINE SMOOTH",
"386 299 OFFCURVE",
"398 310 OFFCURVE",
"398 331 CURVE SMOOTH",
"398 388 LINE SMOOTH",
"398 409 OFFCURVE",
"386 420 OFFCURVE",
"362 420 CURVE SMOOTH",
"245 420 LINE",
"245 580 LINE",
"298 580 LINE SMOOTH",
"399 580 OFFCURVE",
"464 562 OFFCURVE",
"494 524 CURVE SMOOTH",
"523 487 OFFCURVE",
"538 429 OFFCURVE",
"538 351 CURVE SMOOTH",
"538 273 OFFCURVE",
"523 215 OFFCURVE",
"494 177 CURVE SMOOTH",
"464 140 OFFCURVE",
"399 121 OFFCURVE",
"298 121 CURVE SMOOTH",
"245 121 LINE"
);
}
);
width = 732;
}
);
unicode = 00D0;
},
{
glyphname = E;
layers = (
{
layerId = UUID0;
paths = (
{
closed = 1;
nodes = (
"549 0 LINE SMOOTH",
"567 0 OFFCURVE",
"576 7 OFFCURVE",
"576 22 CURVE SMOOTH",
"576 58 LINE SMOOTH",
"576 73 OFFCURVE",
"567 80 OFFCURVE",
"549 80 CURVE SMOOTH",
"177 80 LINE",
"177 323 LINE",
"505 323 LINE SMOOTH",
"523 323 OFFCURVE",
"532 331 OFFCURVE",
"532 345 CURVE SMOOTH",
"532 381 LINE SMOOTH",
"532 396 OFFCURVE",
"523 403 OFFCURVE",
"505 403 CURVE SMOOTH",
"177 403 LINE",
"177 620 LINE",
"535 620 LINE SMOOTH",
"553 620 OFFCURVE",
"562 627 OFFCURVE",
"562 642 CURVE SMOOTH",
"562 678 LINE SMOOTH",
"562 693 OFFCURVE",
"553 700 OFFCURVE",
"535 700 CURVE SMOOTH",
"107 700 LINE SMOOTH",
"91 700 OFFCURVE",
"83 691 OFFCURVE",
"83 673 CURVE SMOOTH",
"83 27 LINE SMOOTH",
"83 9 OFFCURVE",
"91 0 OFFCURVE",
"107 0 CURVE SMOOTH"
);
}
);
width = 620;
},
{
layerId = "39B5C782-31E0-4FF6-90B4-6BA13107E116";
paths = (
{
closed = 1;
nodes = (
"547 0 LINE SMOOTH",
"571 0 OFFCURVE",
"583 11 OFFCURVE",
"583 32 CURVE SMOOTH",
"583 89 LINE SMOOTH",
"583 110 OFFCURVE",
"571 121 OFFCURVE",
"547 121 CURVE SMOOTH",
"221 121 LINE",
"221 303 LINE",
"505 303 LINE SMOOTH",
"530 303 OFFCURVE",
"542 313 OFFCURVE",
"542 334 CURVE SMOOTH",
"542 392 LINE SMOOTH",
"542 413 OFFCURVE",
"530 424 OFFCURVE",
"505 424 CURVE SMOOTH",
"221 424 LINE",
"221 579 LINE",
"531 579 LINE SMOOTH",
"556 579 OFFCURVE",
"568 590 OFFCURVE",
"568 611 CURVE SMOOTH",
"568 668 LINE SMOOTH",
"568 689 OFFCURVE",
"556 700 OFFCURVE",
"531 700 CURVE SMOOTH",
"112 700 LINE SMOOTH",
"89 700 OFFCURVE",
"78 688 OFFCURVE",
"78 664 CURVE SMOOTH",
"78 37 LINE SMOOTH",
"78 12 OFFCURVE",
"89 0 OFFCURVE",
"112 0 CURVE SMOOTH"
);
}
);
width = 625;
}
);
unicode = 0045;
},
{
glyphname = Eogonek;
layers = (
{
layerId = UUID0;
paths = (
{
closed = 1;
nodes = (
"419 0 LINE SMOOTH",
"432 0 OFFCURVE",
"445 0 OFFCURVE",
"458 1 CURVE",
"458 -1 LINE",
"406 -39 OFFCURVE",
"373 -71 OFFCURVE",
"373 -125 CURVE SMOOTH",
"373 -164 OFFCURVE",
"404 -204 OFFCURVE",
"479 -204 CURVE SMOOTH",
"498 -204 OFFCURVE",
"549 -204 OFFCURVE",
"549 -188 CURVE SMOOTH",
"549 -187 OFFCURVE",
"548 -186 OFFCURVE",
"548 -185 CURVE SMOOTH",
"542 -146 LINE SMOOTH",
"541 -140 OFFCURVE",
"538 -136 OFFCURVE",
"533 -136 CURVE SMOOTH",
"523 -136 OFFCURVE",
"509 -140 OFFCURVE",
"491 -140 CURVE SMOOTH",
"469 -140 OFFCURVE",
"451 -129 OFFCURVE",
"451 -103 CURVE SMOOTH",
"451 -83 OFFCURVE",
"464 -61 OFFCURVE",
"491 -39 CURVE SMOOTH",
"518 -16 OFFCURVE",
"536 -3 OFFCURVE",
"546 0 CURVE",
"549 0 LINE SMOOTH",
"567 0 OFFCURVE",
"576 7 OFFCURVE",
"576 22 CURVE SMOOTH",
"576 58 LINE SMOOTH",
"576 73 OFFCURVE",
"567 80 OFFCURVE",
"549 80 CURVE SMOOTH",
"177 80 LINE",
"177 323 LINE",
"505 323 LINE SMOOTH",
"523 323 OFFCURVE",
"532 331 OFFCURVE",
"532 345 CURVE SMOOTH",
"532 381 LINE SMOOTH",
"532 396 OFFCURVE",
"523 403 OFFCURVE",
"505 403 CURVE SMOOTH",
"177 403 LINE",
"177 620 LINE",
"535 620 LINE SMOOTH",
"553 620 OFFCURVE",
"562 627 OFFCURVE",
"562 642 CURVE SMOOTH",
"562 678 LINE SMOOTH",
"562 693 OFFCURVE",
"553 700 OFFCURVE",
"535 700 CURVE SMOOTH",
"107 700 LINE SMOOTH",
"91 700 OFFCURVE",
"83 691 OFFCURVE",
"83 673 CURVE SMOOTH",
"83 27 LINE SMOOTH",
"83 9 OFFCURVE",
"91 0 OFFCURVE",
"107 0 CURVE SMOOTH"
);
}
);
width = 620;
},
{
layerId = "39B5C782-31E0-4FF6-90B4-6BA13107E116";
paths = (
{
closed = 1;
nodes = (
"347 0 LINE SMOOTH",
"366 0 OFFCURVE",
"386 0 OFFCURVE",
"405 2 CURVE",
"405 -1 LINE",
"350 -47 OFFCURVE",
"329 -83 OFFCURVE",
"329 -121 CURVE SMOOTH",
"329 -176 OFFCURVE",
"375 -205 OFFCURVE",
"467 -205 CURVE SMOOTH",
"518 -205 OFFCURVE",
"549 -204 OFFCURVE",
"549 -183 CURVE SMOOTH",
"549 -182 OFFCURVE",
"549 -181 OFFCURVE",
"549 -180 CURVE SMOOTH",
"542 -122 LINE SMOOTH",
"541 -112 OFFCURVE",
"536 -106 OFFCURVE",
"527 -106 CURVE SMOOTH",
"517 -106 OFFCURVE",
"502 -109 OFFCURVE",
"483 -109 CURVE SMOOTH",
"462 -109 OFFCURVE",
"444 -106 OFFCURVE",
"444 -86 CURVE SMOOTH",
"444 -65 OFFCURVE",
"513 -20 OFFCURVE",
"542 0 CURVE",
"547 0 LINE SMOOTH",
"571 0 OFFCURVE",
"583 11 OFFCURVE",
"583 32 CURVE SMOOTH",
"583 89 LINE SMOOTH",
"583 110 OFFCURVE",
"571 121 OFFCURVE",
"547 121 CURVE SMOOTH",
"221 121 LINE",
"221 303 LINE",
"505 303 LINE SMOOTH",
"530 303 OFFCURVE",
"542 313 OFFCURVE",
"542 334 CURVE SMOOTH",
"542 392 LINE SMOOTH",
"542 413 OFFCURVE",
"530 424 OFFCURVE",
"505 424 CURVE SMOOTH",
"221 424 LINE",
"221 579 LINE",
"531 579 LINE SMOOTH",
"556 579 OFFCURVE",
"568 590 OFFCURVE",
"568 611 CURVE SMOOTH",
"568 668 LINE SMOOTH",
"568 689 OFFCURVE",
"556 700 OFFCURVE",
"531 700 CURVE SMOOTH",
"112 700 LINE SMOOTH",
"89 700 OFFCURVE",
"78 688 OFFCURVE",
"78 664 CURVE SMOOTH",
"78 37 LINE SMOOTH",
"78 12 OFFCURVE",
"89 0 OFFCURVE",
"112 0 CURVE SMOOTH"
);
}
);
width = 625;
}
);
unicode = 0118;
},
{
glyphname = Eopen;
layers = (
{
layerId = UUID0;
paths = (
{
closed = 1;
nodes = (
"54 57 OFFCURVE",
"161 -15 OFFCURVE",
"309 -15 CURVE SMOOTH",
"412 -15 OFFCURVE",
"481 30 OFFCURVE",
"521 69 CURVE SMOOTH",
"529 78 OFFCURVE",
"534 85 OFFCURVE",
"534 92 CURVE SMOOTH",
"534 97 OFFCURVE",
"532 102 OFFCURVE",
"528 105 CURVE SMOOTH",
"498 139 LINE SMOOTH",
"494 144 OFFCURVE",
"489 146 OFFCURVE",
"484 146 CURVE SMOOTH",
"469 146 OFFCURVE",
"440 109 OFFCURVE",
"394 84 CURVE SMOOTH",
"366 69 OFFCURVE",
"336 62 OFFCURVE",
"306 62 CURVE SMOOTH",
"213 62 OFFCURVE",
"154 103 OFFCURVE",
"154 202 CURVE SMOOTH",
"154 244 OFFCURVE",
"170 276 OFFCURVE",
"204 297 CURVE SMOOTH",
"237 319 OFFCURVE",
"271 330 OFFCURVE",
"305 330 CURVE SMOOTH",
"360 330 LINE SMOOTH",
"375 330 OFFCURVE",
"383 336 OFFCURVE",
"383 351 CURVE SMOOTH",
"383 385 LINE SMOOTH",
"383 399 OFFCURVE",
"375 407 OFFCURVE",
"360 407 CURVE SMOOTH",
"309 407 LINE SMOOTH",
"217 407 OFFCURVE",
"175 463 OFFCURVE",
"175 528 CURVE SMOOTH",
"175 606 OFFCURVE",
"237 639 OFFCURVE",
"304 639 CURVE SMOOTH",
"360 639 OFFCURVE",
"417 611 OFFCURVE",
"447 582 CURVE SMOOTH",
"456 573 OFFCURVE",
"463 569 OFFCURVE",
"470 569 CURVE SMOOTH",
"474 569 OFFCURVE",
"479 571 OFFCURVE",
"482 575 CURVE SMOOTH",
"512 608 LINE SMOOTH",
"516 613 OFFCURVE",
"519 618 OFFCURVE",
"519 623 CURVE SMOOTH",
"519 647 OFFCURVE",
"456 682 OFFCURVE",
"408 697 CURVE SMOOTH",
"372 709 OFFCURVE",
"337 715 OFFCURVE",
"302 715 CURVE SMOOTH",
"229 715 OFFCURVE",
"174 696 OFFCURVE",
"136 658 CURVE SMOOTH",
"99 621 OFFCURVE",
"80 579 OFFCURVE",
"80 533 CURVE SMOOTH",
"80 459 OFFCURVE",
"136 395 OFFCURVE",
"206 375 CURVE",
"206 373 LINE",
"132 365 OFFCURVE",
"54 292 OFFCURVE",
"54 194 CURVE SMOOTH"
);
}
);
width = 583;
},
{
layerId = "39B5C782-31E0-4FF6-90B4-6BA13107E116";
paths = (
{
closed = 1;
nodes = (
"51 57 OFFCURVE",
"176 -17 OFFCURVE",
"323 -17 CURVE SMOOTH",
"432 -17 OFFCURVE",
"497 10 OFFCURVE",
"552 67 CURVE SMOOTH",
"562 76 OFFCURVE",
"566 85 OFFCURVE",
"566 94 CURVE SMOOTH",
"566 101 OFFCURVE",
"563 108 OFFCURVE",
"557 115 CURVE SMOOTH",
"515 161 LINE SMOOTH",
"509 167 OFFCURVE",
"503 169 OFFCURVE",
"496 169 CURVE SMOOTH",
"475 169 OFFCURVE",
"432 126 OFFCURVE",
"400 112 CURVE SMOOTH",
"379 103 OFFCURVE",
"353 99 OFFCURVE",
"321 99 CURVE SMOOTH",
"258 99 OFFCURVE",
"198 125 OFFCURVE",
"198 202 CURVE SMOOTH",
"198 279 OFFCURVE",
"254 311 OFFCURVE",
"321 311 CURVE SMOOTH",
"380 311 LINE SMOOTH",
"401 311 OFFCURVE",
"411 321 OFFCURVE",
"411 341 CURVE SMOOTH",
"411 394 LINE SMOOTH",
"411 415 OFFCURVE",
"401 426 OFFCURVE",
"380 426 CURVE SMOOTH",
"314 426 LINE SMOOTH",
"244 426 OFFCURVE",
"213 464 OFFCURVE",
"213 519 CURVE SMOOTH",
"213 566 OFFCURVE",
"246 602 OFFCURVE",
"321 602 CURVE SMOOTH",
"379 602 OFFCURVE",
"417 583 OFFCURVE",
"449 556 CURVE SMOOTH",
"460 545 OFFCURVE",
"471 540 OFFCURVE",
"481 540 CURVE SMOOTH",
"489 540 OFFCURVE",
"497 544 OFFCURVE",
"503 551 CURVE SMOOTH",
"541 596 LINE SMOOTH",
"548 604 OFFCURVE",
"551 611 OFFCURVE",
"551 619 CURVE SMOOTH",
"551 627 OFFCURVE",
"546 636 OFFCURVE",
"535 645 CURVE SMOOTH",
"453 705 OFFCURVE",
"400 717 OFFCURVE",
"317 717 CURVE SMOOTH",
"169 717 OFFCURVE",
"76 640 OFFCURVE",
"76 530 CURVE SMOOTH",
"76 435 OFFCURVE",
"123 398 OFFCURVE",
"201 375 CURVE",
"201 373 LINE",
"127 353 OFFCURVE",
"51 292 OFFCURVE",
"51 190 CURVE SMOOTH"
);
}
);
width = 612;
}
);
unicode = 0190;
},
{
glyphname = F;
layers = (
{
layerId = UUID0;
paths = (
{
closed = 1;
nodes = (
"152 0 LINE SMOOTH",
"168 0 OFFCURVE",
"177 9 OFFCURVE",
"177 27 CURVE SMOOTH",
"177 309 LINE",
"463 309 LINE SMOOTH",
"481 309 OFFCURVE",
"490 316 OFFCURVE",
"490 331 CURVE SMOOTH",
"490 367 LINE SMOOTH",
"490 381 OFFCURVE",
"481 389 OFFCURVE",
"463 389 CURVE SMOOTH",
"177 389 LINE",
"177 620 LINE",
"505 620 LINE SMOOTH",
"523 620 OFFCURVE",
"532 627 OFFCURVE",
"532 642 CURVE SMOOTH",
"532 678 LINE SMOOTH",
"532 693 OFFCURVE",
"523 700 OFFCURVE",
"505 700 CURVE SMOOTH",
"107 700 LINE SMOOTH",
"91 700 OFFCURVE",
"83 691 OFFCURVE",
"83 673 CURVE SMOOTH",
"83 27 LINE SMOOTH",
"83 9 OFFCURVE",
"91 0 OFFCURVE",
"107 0 CURVE SMOOTH"
);
}
);
width = 569;
},
{
layerId = "39B5C782-31E0-4FF6-90B4-6BA13107E116";
paths = (
{
closed = 1;
nodes = (
"187 0 LINE SMOOTH",
"209 0 OFFCURVE",
"221 12 OFFCURVE",
"221 37 CURVE SMOOTH",
"221 288 LINE",
"458 288 LINE SMOOTH",
"483 288 OFFCURVE",
"495 299 OFFCURVE",
"495 320 CURVE SMOOTH",
"495 377 LINE SMOOTH",
"495 398 OFFCURVE",
"483 409 OFFCURVE",
"458 409 CURVE SMOOTH",
"221 409 LINE",
"221 579 LINE",
"499 579 LINE SMOOTH",
"523 579 OFFCURVE",
"535 590 OFFCURVE",
"535 611 CURVE SMOOTH",
"535 668 LINE SMOOTH",
"535 689 OFFCURVE",
"523 700 OFFCURVE",
"499 700 CURVE SMOOTH",
"112 700 LINE SMOOTH",
"89 700 OFFCURVE",
"78 688 OFFCURVE",
"78 664 CURVE SMOOTH",
"78 37 LINE SMOOTH",
"78 12 OFFCURVE",
"89 0 OFFCURVE",
"112 0 CURVE SMOOTH"
);
}
);
width = 574;
}
);
unicode = 0046;
},
{
glyphname = Fhook;
layers = (
{
layerId = UUID0;
paths = (
{
closed = 1;
nodes = (
"-49 -198 OFFCURVE",
"-20 -204 OFFCURVE",
"11 -204 CURVE SMOOTH",
"119 -204 OFFCURVE",
"177 -154 OFFCURVE",
"177 -4 CURVE SMOOTH",
"177 309 LINE",
"463 309 LINE SMOOTH",
"481 309 OFFCURVE",
"490 316 OFFCURVE",
"490 331 CURVE SMOOTH",
"490 367 LINE SMOOTH",
"490 381 OFFCURVE",
"481 389 OFFCURVE",
"463 389 CURVE SMOOTH",
"177 389 LINE",
"177 620 LINE",
"505 620 LINE SMOOTH",
"523 620 OFFCURVE",
"532 627 OFFCURVE",
"532 642 CURVE SMOOTH",
"532 678 LINE SMOOTH",
"532 693 OFFCURVE",
"523 700 OFFCURVE",
"505 700 CURVE SMOOTH",
"107 700 LINE SMOOTH",
"91 700 OFFCURVE",
"83 691 OFFCURVE",
"83 673 CURVE SMOOTH",
"83 19 LINE SMOOTH",
"83 -45 OFFCURVE",
"77 -85 OFFCURVE",
"64 -102 CURVE SMOOTH",
"52 -119 OFFCURVE",
"33 -127 OFFCURVE",
"8 -127 CURVE SMOOTH",
"-10 -127 OFFCURVE",
"-29 -123 OFFCURVE",
"-49 -113 CURVE SMOOTH",
"-55 -110 OFFCURVE",
"-61 -109 OFFCURVE",
"-65 -109 CURVE SMOOTH",
"-74 -109 OFFCURVE",
"-79 -114 OFFCURVE",
"-82 -124 CURVE SMOOTH",
"-92 -158 LINE SMOOTH",
"-93 -162 OFFCURVE",
"-94 -165 OFFCURVE",
"-94 -167 CURVE SMOOTH",
"-94 -176 OFFCURVE",
"-89 -183 OFFCURVE",
"-79 -187 CURVE SMOOTH"
);
}
);
width = 569;
},
{
layerId = "39B5C782-31E0-4FF6-90B4-6BA13107E116";
paths = (
{
closed = 1;
nodes = (
"-35 -200 OFFCURVE",
"-2 -205 OFFCURVE",
"35 -205 CURVE SMOOTH",
"159 -205 OFFCURVE",
"221 -137 OFFCURVE",
"221 17 CURVE SMOOTH",
"221 288 LINE",
"458 288 LINE SMOOTH",
"483 288 OFFCURVE",
"495 299 OFFCURVE",
"495 320 CURVE SMOOTH",
"495 377 LINE SMOOTH",
"495 398 OFFCURVE",
"483 409 OFFCURVE",
"458 409 CURVE SMOOTH",
"221 409 LINE",
"221 579 LINE",
"499 579 LINE SMOOTH",
"523 579 OFFCURVE",
"535 590 OFFCURVE",
"535 611 CURVE SMOOTH",
"535 668 LINE SMOOTH",
"535 689 OFFCURVE",
"523 700 OFFCURVE",
"499 700 CURVE SMOOTH",
"112 700 LINE SMOOTH",
"89 700 OFFCURVE",
"78 688 OFFCURVE",
"78 664 CURVE SMOOTH",
"78 44 LINE SMOOTH",
"78 -14 OFFCURVE",
"73 -51 OFFCURVE",
"63 -66 CURVE SMOOTH",
"54 -82 OFFCURVE",
"38 -90 OFFCURVE",
"16 -90 CURVE SMOOTH",
"2 -90 OFFCURVE",
"-13 -87 OFFCURVE",
"-29 -81 CURVE SMOOTH",
"-35 -78 OFFCURVE",
"-40 -77 OFFCURVE",
"-44 -77 CURVE SMOOTH",
"-55 -77 OFFCURVE",
"-63 -84 OFFCURVE",
"-66 -97 CURVE SMOOTH",
"-82 -156 LINE SMOOTH",
"-83 -160 OFFCURVE",
"-83 -163 OFFCURVE",
"-83 -166 CURVE SMOOTH",
"-83 -177 OFFCURVE",
"-77 -186 OFFCURVE",
"-63 -190 CURVE SMOOTH"
);
}
);
width = 574;
}
);
unicode = 0191;
},
{
glyphname = G;
layers = (
{
layerId = UUID0;
paths = (
{
closed = 1;
nodes = (
"45 124 OFFCURVE",
"168 -15 OFFCURVE",
"384 -15 CURVE SMOOTH",
"515 -15 OFFCURVE",
"578 18 OFFCURVE",
"659 77 CURVE",
"659 307 LINE SMOOTH",
"659 322 OFFCURVE",
"650 329 OFFCURVE",
"632 329 CURVE SMOOTH",
"420 329 LINE SMOOTH",
"402 329 OFFCURVE",
"394 322 OFFCURVE",
"394 307 CURVE SMOOTH",
"394 271 LINE SMOOTH",
"394 256 OFFCURVE",
"402 249 OFFCURVE",
"420 249 CURVE SMOOTH",
"565 249 LINE",
"565 120 LINE",
"540 83 OFFCURVE",
"473 62 OFFCURVE",
"389 62 CURVE SMOOTH",
"217 62 OFFCURVE",
"145 170 OFFCURVE",
"145 350 CURVE SMOOTH",
"145 532 OFFCURVE",
"224 639 OFFCURVE",
"384 639 CURVE SMOOTH",
"429 639 OFFCURVE",
"465 628 OFFCURVE",
"492 608 CURVE SMOOTH",
"543 570 OFFCURVE",
"554 537 OFFCURVE",
"572 537 CURVE SMOOTH",
"575 537 OFFCURVE",
"579 539 OFFCURVE",
"583 541 CURVE SMOOTH",
"620 566 LINE SMOOTH",
"625 570 OFFCURVE",
"628 576 OFFCURVE",
"628 583 CURVE SMOOTH",
"628 613 OFFCURVE",
"579 657 OFFCURVE",
"533 682 CURVE SMOOTH",
"493 704 OFFCURVE",
"442 715 OFFCURVE",
"379 715 CURVE SMOOTH",
"170 715 OFFCURVE",
"45 577 OFFCURVE",
"45 350 CURVE SMOOTH"
);
}
);
width = 718;
},
{
layerId = "39B5C782-31E0-4FF6-90B4-6BA13107E116";
paths = (
{
closed = 1;
nodes = (
"42 126 OFFCURVE",
"167 -17 OFFCURVE",
"379 -17 CURVE SMOOTH",
"506 -17 OFFCURVE",
"588 5 OFFCURVE",
"681 74 CURVE",
"681 322 LINE SMOOTH",
"681 343 OFFCURVE",
"668 354 OFFCURVE",
"644 354 CURVE SMOOTH",
"432 354 LINE SMOOTH",
"408 354 OFFCURVE",
"396 343 OFFCURVE",
"396 322 CURVE SMOOTH",
"396 264 LINE SMOOTH",
"396 243 OFFCURVE",
"408 232 OFFCURVE",
"432 232 CURVE SMOOTH",
"538 232 LINE",
"538 145 LINE",
"495 110 OFFCURVE",
"450 99 OFFCURVE",
"384 99 CURVE SMOOTH",
"245 99 OFFCURVE",
"194 189 OFFCURVE",
"194 350 CURVE SMOOTH",
"194 512 OFFCURVE",
"247 602 OFFCURVE",
"384 602 CURVE SMOOTH",
"440 602 OFFCURVE",
"489 577 OFFCURVE",
"520 543 CURVE SMOOTH",
"532 530 OFFCURVE",
"543 523 OFFCURVE",
"555 523 CURVE SMOOTH",
"561 523 OFFCURVE",
"566 525 OFFCURVE",
"572 529 CURVE SMOOTH",
"627 565 LINE SMOOTH",
"637 571 OFFCURVE",
"641 579 OFFCURVE",
"641 587 CURVE SMOOTH",
"641 595 OFFCURVE",
"637 604 OFFCURVE",
"629 615 CURVE SMOOTH",
"573 685 OFFCURVE",
"511 717 OFFCURVE",
"379 717 CURVE SMOOTH",
"164 717 OFFCURVE",
"42 573 OFFCURVE",
"42 350 CURVE SMOOTH"
);
}
);
width = 735;
}
);
unicode = 0047;
},
{
glyphname = Gammaafrican;
layers = (
{
layerId = UUID0;
paths = (
{
closed = 1;
nodes = (
"262 264 LINE",
"206 199 OFFCURVE",
"175 145 OFFCURVE",
"175 109 CURVE SMOOTH",
"175 27 OFFCURVE",
"226 -15 OFFCURVE",
"312 -15 CURVE SMOOTH",
"398 -15 OFFCURVE",
"449 27 OFFCURVE",
"449 109 CURVE SMOOTH",
"449 145 OFFCURVE",
"420 199 OFFCURVE",
"364 264 CURVE",
"600 668 LINE SMOOTH",
"604 676 OFFCURVE",
"606 682 OFFCURVE",
"606 687 CURVE",
"606 696 OFFCURVE",
"600 700 OFFCURVE",
"586 700 CURVE SMOOTH",
"532 700 LINE SMOOTH",
"517 700 OFFCURVE",
"505 692 OFFCURVE",
"497 676 CURVE SMOOTH",
"373 438 LINE",
"341 376 LINE SMOOTH",
"332 358 OFFCURVE",
"323 340 OFFCURVE",
"314 320 CURVE",
"312 320 LINE",
"303 340 OFFCURVE",
"294 358 OFFCURVE",
"285 376 CURVE SMOOTH",
"253 438 LINE",
"129 676 LINE SMOOTH",
"121 692 OFFCURVE",
"109 700 OFFCURVE",
"94 700 CURVE SMOOTH",
"40 700 LINE SMOOTH",
"26 700 OFFCURVE",
"20 696 OFFCURVE",
"20 687 CURVE SMOOTH",
"20 682 OFFCURVE",
"22 676 OFFCURVE",
"26 668 CURVE SMOOTH"
);
},
{
closed = 1;
nodes = (
"269 125 OFFCURVE",
"263 135 OFFCURVE",
"311 207 CURVE",
"313 207 LINE",
"361 135 OFFCURVE",
"355 124 OFFCURVE",
"355 109 CURVE SMOOTH",
"355 80 OFFCURVE",
"341 62 OFFCURVE",
"312 62 CURVE SMOOTH",
"283 62 OFFCURVE",
"269 80 OFFCURVE",
"269 109 CURVE SMOOTH"
);
}
);
width = 626;
},
{
layerId = "39B5C782-31E0-4FF6-90B4-6BA13107E116";
paths = (
{
closed = 1;
nodes = (
"245 261 LINE",
"195 210 OFFCURVE",
"162 172 OFFCURVE",
"162 114 CURVE SMOOTH",
"162 46 OFFCURVE",
"203 -17 OFFCURVE",
"329 -17 CURVE SMOOTH",
"455 -17 OFFCURVE",
"497 47 OFFCURVE",
"497 114 CURVE SMOOTH",
"497 172 OFFCURVE",
"463 210 OFFCURVE",
"413 261 CURVE",
"633 658 LINE SMOOTH",
"638 667 OFFCURVE",
"641 675 OFFCURVE",
"641 682 CURVE SMOOTH",
"641 694 OFFCURVE",
"631 700 OFFCURVE",
"610 700 CURVE SMOOTH",
"525 700 LINE SMOOTH",
"507 700 OFFCURVE",
"492 689 OFFCURVE",
"480 667 CURVE SMOOTH",
"381 476 LINE SMOOTH",
"377 469 OFFCURVE",
"334 401 OFFCURVE",
"330 355 CURVE",
"328 355 LINE",
"324 401 OFFCURVE",
"280 469 OFFCURVE",
"277 476 CURVE SMOOTH",
"178 667 LINE SMOOTH",
"167 689 OFFCURVE",
"151 700 OFFCURVE",
"133 700 CURVE SMOOTH",
"48 700 LINE SMOOTH",
"27 700 OFFCURVE",
"17 694 OFFCURVE",
"17 682 CURVE",
"17 675 OFFCURVE",
"20 667 OFFCURVE",
"25 658 CURVE SMOOTH"
);
},
{
closed = 1;
nodes = (
"295 146 OFFCURVE",
"299 168 OFFCURVE",
"328 192 CURVE",
"330 192 LINE",
"359 168 OFFCURVE",
"363 146 OFFCURVE",
"363 133 CURVE SMOOTH",
"363 108 OFFCURVE",
"347 96 OFFCURVE",
"329 96 CURVE SMOOTH",
"311 96 OFFCURVE",
"295 108 OFFCURVE",
"295 133 CURVE SMOOTH"
);
}
);
width = 658;
}
);
unicode = 0194;
},
{
glyphname = Glottalstop;
layers = (
{
layerId = UUID0;
paths = (
{
closed = 1;
nodes = (
"89 552 LINE SMOOTH",
"93 550 OFFCURVE",
"97 548 OFFCURVE",
"101 548 CURVE SMOOTH",
"109 548 OFFCURVE",
"117 556 OFFCURVE",
"123 571 CURVE SMOOTH",
"142 616 OFFCURVE",
"185 639 OFFCURVE",
"243 639 CURVE SMOOTH",
"306 639 OFFCURVE",
"355 597 OFFCURVE",
"355 525 CURVE SMOOTH",
"355 478 OFFCURVE",
"330 426 OFFCURVE",
"279 371 CURVE SMOOTH",
"229 315 OFFCURVE",
"204 254 OFFCURVE",
"204 187 CURVE SMOOTH",
"204 27 LINE SMOOTH",
"204 9 OFFCURVE",
"212 0 OFFCURVE",
"229 0 CURVE SMOOTH",
"273 0 LINE SMOOTH",
"290 0 OFFCURVE",
"298 9 OFFCURVE",
"298 27 CURVE SMOOTH",
"298 173 LINE SMOOTH",
"298 230 OFFCURVE",
"324 289 OFFCURVE",
"375 348 CURVE SMOOTH",
"426 407 OFFCURVE",
"452 465 OFFCURVE",
"452 522 CURVE SMOOTH",
"452 643 OFFCURVE",
"362 715 OFFCURVE",
"244 715 CURVE SMOOTH",
"191 715 OFFCURVE",
"147 703 OFFCURVE",
"115 678 CURVE SMOOTH",
"64 641 OFFCURVE",
"46 611 OFFCURVE",
"46 590 CURVE SMOOTH",
"46 583 OFFCURVE",
"49 578 OFFCURVE",
"54 574 CURVE SMOOTH"
);
}
);
width = 503;
}
);
unicode = 0241;
},
{
glyphname = H;
layers = (
{
layerId = UUID0;
paths = (
{
closed = 1;
nodes = (
"152 0 LINE SMOOTH",
"168 0 OFFCURVE",
"177 9 OFFCURVE",
"177 27 CURVE SMOOTH",
"177 324 LINE",
"518 324 LINE",
"518 27 LINE SMOOTH",
"518 9 OFFCURVE",
"526 0 OFFCURVE",
"542 0 CURVE SMOOTH",
"587 0 LINE SMOOTH",
"603 0 OFFCURVE",
"611 9 OFFCURVE",
"611 27 CURVE SMOOTH",
"611 673 LINE SMOOTH",
"611 691 OFFCURVE",
"603 700 OFFCURVE",
"587 700 CURVE SMOOTH",
"542 700 LINE SMOOTH",
"526 700 OFFCURVE",
"518 691 OFFCURVE",
"518 673 CURVE SMOOTH",
"518 404 LINE",
"177 404 LINE",
"177 673 LINE SMOOTH",
"177 691 OFFCURVE",
"168 700 OFFCURVE",
"152 700 CURVE SMOOTH",
"107 700 LINE SMOOTH",
"91 700 OFFCURVE",
"83 691 OFFCURVE",
"83 673 CURVE SMOOTH",
"83 27 LINE SMOOTH",
"83 9 OFFCURVE",
"91 0 OFFCURVE",
"107 0 CURVE SMOOTH"
);
}
);
width = 694;
},
{
layerId = "39B5C782-31E0-4FF6-90B4-6BA13107E116";
paths = (
{
closed = 1;
nodes = (
"187 0 LINE SMOOTH",
"209 0 OFFCURVE",
"221 12 OFFCURVE",
"221 37 CURVE SMOOTH",
"221 304 LINE",
"483 304 LINE",
"483 37 LINE SMOOTH",
"483 12 OFFCURVE",
"495 0 OFFCURVE",
"518 0 CURVE SMOOTH",
"592 0 LINE SMOOTH",
"615 0 OFFCURVE",
"626 12 OFFCURVE",
"626 37 CURVE SMOOTH",
"626 664 LINE SMOOTH",
"626 688 OFFCURVE",
"615 700 OFFCURVE",
"592 700 CURVE SMOOTH",
"518 700 LINE SMOOTH",
"495 700 OFFCURVE",
"483 688 OFFCURVE",
"483 664 CURVE SMOOTH",
"483 425 LINE",
"221 425 LINE",
"221 664 LINE SMOOTH",
"221 688 OFFCURVE",
"209 700 OFFCURVE",
"187 700 CURVE SMOOTH",
"112 700 LINE SMOOTH",
"89 700 OFFCURVE",
"78 688 OFFCURVE",
"78 664 CURVE SMOOTH",
"78 37 LINE SMOOTH",
"78 12 OFFCURVE",
"89 0 OFFCURVE",
"112 0 CURVE SMOOTH"
);
}
);
width = 704;
}
);
unicode = 0048;
},
{
glyphname = I;
layers = (
{
layerId = UUID0;
paths = (
{
closed = 1;
nodes = (
"152 0 LINE SMOOTH",
"168 0 OFFCURVE",
"177 9 OFFCURVE",
"177 27 CURVE SMOOTH",
"177 673 LINE SMOOTH",
"177 691 OFFCURVE",
"168 700 OFFCURVE",
"152 700 CURVE SMOOTH",
"107 700 LINE SMOOTH",
"91 700 OFFCURVE",
"83 691 OFFCURVE",
"83 673 CURVE SMOOTH",
"83 27 LINE SMOOTH",
"83 9 OFFCURVE",
"91 0 OFFCURVE",
"107 0 CURVE SMOOTH"
);
}
);
width = 260;
},
{
layerId = "39B5C782-31E0-4FF6-90B4-6BA13107E116";
paths = (
{
closed = 1;
nodes = (
"187 0 LINE SMOOTH",
"209 0 OFFCURVE",
"221 12 OFFCURVE",
"221 37 CURVE SMOOTH",
"221 664 LINE SMOOTH",
"221 688 OFFCURVE",
"209 700 OFFCURVE",
"187 700 CURVE SMOOTH",
"112 700 LINE SMOOTH",
"89 700 OFFCURVE",
"78 688 OFFCURVE",
"78 664 CURVE SMOOTH",
"78 37 LINE SMOOTH",
"78 12 OFFCURVE",
"89 0 OFFCURVE",
"112 0 CURVE SMOOTH"
);
}
);
width = 299;
}
);
unicode = 0049;
},
{
glyphname = Iotaafrican;
layers = (
{
layerId = UUID0;
paths = (
{
closed = 1;
nodes = (
"83 175 LINE SMOOTH",
"83 40 OFFCURVE",
"131 -15 OFFCURVE",
"248 -15 CURVE SMOOTH",
"286 -15 OFFCURVE",
"374 7 OFFCURVE",
"374 38 CURVE SMOOTH",
"374 42 OFFCURVE",
"373 46 OFFCURVE",
"370 51 CURVE SMOOTH",
"356 79 LINE SMOOTH",
"352 87 OFFCURVE",
"346 92 OFFCURVE",
"338 92 CURVE SMOOTH",
"333 92 OFFCURVE",
"327 89 OFFCURVE",
"320 85 CURVE SMOOTH",
"298 72 OFFCURVE",
"271 62 OFFCURVE",
"248 62 CURVE SMOOTH",
"201 62 OFFCURVE",
"177 91 OFFCURVE",
"177 167 CURVE SMOOTH",
"177 673 LINE SMOOTH",
"177 691 OFFCURVE",
"168 700 OFFCURVE",
"152 700 CURVE SMOOTH",
"107 700 LINE SMOOTH",
"91 700 OFFCURVE",
"83 691 OFFCURVE",
"83 673 CURVE SMOOTH"
);
}
);
width = 398;
},
{
layerId = "39B5C782-31E0-4FF6-90B4-6BA13107E116";
paths = (
{
closed = 1;
nodes = (
"78 244 LINE SMOOTH",
"78 76 OFFCURVE",
"146 -17 OFFCURVE",
"294 -17 CURVE SMOOTH",
"344 -17 OFFCURVE",
"435 -4 OFFCURVE",
"435 34 CURVE SMOOTH",
"435 38 OFFCURVE",
"434 42 OFFCURVE",
"433 46 CURVE SMOOTH",
"414 102 LINE SMOOTH",
"410 114 OFFCURVE",
"403 121 OFFCURVE",
"393 121 CURVE SMOOTH",
"387 121 OFFCURVE",
"379 118 OFFCURVE",
"372 114 CURVE SMOOTH",
"354 105 OFFCURVE",
"323 99 OFFCURVE",
"303 99 CURVE SMOOTH",
"244 99 OFFCURVE",
"221 146 OFFCURVE",
"221 232 CURVE SMOOTH",
"221 664 LINE SMOOTH",
"221 688 OFFCURVE",
"209 700 OFFCURVE",
"187 700 CURVE SMOOTH",
"112 700 LINE SMOOTH",
"89 700 OFFCURVE",
"78 688 OFFCURVE",
"78 664 CURVE SMOOTH"
);
}
);
width = 458;
}
);
unicode = 0196;
},
{
glyphname = Istroke;
layers = (
{
layerId = UUID0;
paths = (
{
closed = 1;
nodes = (
"194 0 LINE SMOOTH",
"210 0 OFFCURVE",
"218 9 OFFCURVE",
"218 27 CURVE SMOOTH",
"218 314 LINE",
"292 314 LINE SMOOTH",
"310 314 OFFCURVE",
"318 322 OFFCURVE",
"318 336 CURVE SMOOTH",
"318 373 LINE SMOOTH",
"318 387 OFFCURVE",
"310 395 OFFCURVE",
"292 395 CURVE SMOOTH",
"218 395 LINE",
"218 673 LINE SMOOTH",
"218 691 OFFCURVE",
"210 700 OFFCURVE",
"194 700 CURVE SMOOTH",
"149 700 LINE SMOOTH",
"133 700 OFFCURVE",
"125 691 OFFCURVE",
"125 673 CURVE SMOOTH",
"125 395 LINE",
"51 395 LINE SMOOTH",
"33 395 OFFCURVE",
"24 387 OFFCURVE",
"24 373 CURVE SMOOTH",
"24 336 LINE SMOOTH",
"24 322 OFFCURVE",
"33 314 OFFCURVE",
"51 314 CURVE SMOOTH",
"125 314 LINE",
"125 27 LINE SMOOTH",
"125 9 OFFCURVE",
"133 0 OFFCURVE",
"149 0 CURVE SMOOTH"
);
}
);
width = 343;
},
{
layerId = "39B5C782-31E0-4FF6-90B4-6BA13107E116";
paths = (
{
closed = 1;
nodes = (
"124 304 LINE",
"124 37 LINE SMOOTH",
"124 12 OFFCURVE",
"135 0 OFFCURVE",
"158 0 CURVE SMOOTH",
"232 0 LINE SMOOTH",
"255 0 OFFCURVE",
"267 12 OFFCURVE",
"267 37 CURVE SMOOTH",
"267 304 LINE",
"332 304 LINE SMOOTH",
"356 304 OFFCURVE",
"368 314 OFFCURVE",
"368 335 CURVE SMOOTH",
"368 393 LINE SMOOTH",
"368 414 OFFCURVE",
"356 425 OFFCURVE",
"332 425 CURVE SMOOTH",
"267 425 LINE",
"267 664 LINE SMOOTH",
"267 688 OFFCURVE",
"255 700 OFFCURVE",
"232 700 CURVE SMOOTH",
"158 700 LINE SMOOTH",
"135 700 OFFCURVE",
"124 688 OFFCURVE",
"124 664 CURVE SMOOTH",
"124 425 LINE",
"59 425 LINE SMOOTH",
"35 425 OFFCURVE",
"22 414 OFFCURVE",
"22 393 CURVE SMOOTH",
"22 335 LINE SMOOTH",
"22 314 OFFCURVE",
"35 304 OFFCURVE",
"59 304 CURVE SMOOTH"
);
}
);
width = 391;
}
);
unicode = 0197;
},
{
glyphname = J;
layers = (
{
layerId = UUID0;
paths = (
{
closed = 1;
nodes = (
"68 -5 OFFCURVE",
"107 -15 OFFCURVE",
"147 -15 CURVE SMOOTH",
"222 -15 OFFCURVE",
"269 4 OFFCURVE",
"289 42 CURVE SMOOTH",
"309 80 OFFCURVE",
"319 131 OFFCURVE",
"319 196 CURVE SMOOTH",
"319 673 LINE SMOOTH",
"319 691 OFFCURVE",
"311 700 OFFCURVE",
"295 700 CURVE SMOOTH",
"250 700 LINE SMOOTH",
"234 700 OFFCURVE",
"226 691 OFFCURVE",
"226 673 CURVE SMOOTH",
"226 185 LINE SMOOTH",
"226 108 OFFCURVE",
"215 62 OFFCURVE",
"150 62 CURVE SMOOTH",
"124 62 OFFCURVE",
"97 70 OFFCURVE",
"71 87 CURVE SMOOTH",
"64 92 OFFCURVE",
"58 94 OFFCURVE",
"53 94 CURVE SMOOTH",
"45 94 OFFCURVE",
"40 90 OFFCURVE",
"35 81 CURVE SMOOTH",
"19 46 LINE SMOOTH",
"17 42 OFFCURVE",
"17 39 OFFCURVE",
"17 35 CURVE SMOOTH",
"17 27 OFFCURVE",
"22 20 OFFCURVE",
"33 14 CURVE SMOOTH"
);
}
);
width = 402;
},
{
layerId = "39B5C782-31E0-4FF6-90B4-6BA13107E116";
paths = (
{
closed = 1;
nodes = (
"67 -8 OFFCURVE",
"107 -17 OFFCURVE",
"157 -17 CURVE SMOOTH",
"228 -17 OFFCURVE",
"284 1 OFFCURVE",
"324 36 CURVE SMOOTH",
"364 72 OFFCURVE",
"384 149 OFFCURVE",
"384 269 CURVE SMOOTH",
"384 664 LINE SMOOTH",
"384 688 OFFCURVE",
"373 700 OFFCURVE",
"350 700 CURVE SMOOTH",
"276 700 LINE SMOOTH",
"253 700 OFFCURVE",
"242 688 OFFCURVE",
"242 664 CURVE SMOOTH",
"242 259 LINE SMOOTH",
"242 145 OFFCURVE",
"228 99 OFFCURVE",
"155 99 CURVE SMOOTH",
"129 99 OFFCURVE",
"105 105 OFFCURVE",
"84 119 CURVE SMOOTH",
"73 125 OFFCURVE",
"64 128 OFFCURVE",
"57 128 CURVE SMOOTH",
"48 128 OFFCURVE",
"42 124 OFFCURVE",
"39 113 CURVE SMOOTH",
"18 46 LINE SMOOTH",
"17 43 OFFCURVE",
"17 41 OFFCURVE",
"17 38 CURVE SMOOTH",
"17 27 OFFCURVE",
"24 18 OFFCURVE",
"38 9 CURVE SMOOTH"
);
}
);
width = 462;
}
);
unicode = 004A;
},
{
glyphname = Jstroke;
layers = (
{
layerId = UUID0;
paths = (
{
closed = 1;
nodes = (
"68 -5 OFFCURVE",
"107 -15 OFFCURVE",
"147 -15 CURVE SMOOTH",
"222 -15 OFFCURVE",
"269 4 OFFCURVE",
"289 42 CURVE SMOOTH",
"309 80 OFFCURVE",
"319 131 OFFCURVE",
"319 196 CURVE SMOOTH",
"319 314 LINE",
"383 314 LINE SMOOTH",
"401 314 OFFCURVE",
"410 322 OFFCURVE",
"410 336 CURVE SMOOTH",
"410 373 LINE SMOOTH",
"410 387 OFFCURVE",
"401 395 OFFCURVE",
"383 395 CURVE SMOOTH",
"319 395 LINE",
"319 673 LINE SMOOTH",
"319 691 OFFCURVE",
"311 700 OFFCURVE",
"295 700 CURVE SMOOTH",
"250 700 LINE SMOOTH",
"234 700 OFFCURVE",
"226 691 OFFCURVE",
"226 673 CURVE SMOOTH",
"226 395 LINE",
"138 395 LINE SMOOTH",
"120 395 OFFCURVE",
"111 387 OFFCURVE",
"111 373 CURVE SMOOTH",
"111 336 LINE SMOOTH",
"111 322 OFFCURVE",
"120 314 OFFCURVE",
"138 314 CURVE SMOOTH",
"226 314 LINE",
"226 185 LINE SMOOTH",
"226 107 OFFCURVE",
"213 62 OFFCURVE",
"154 62 CURVE SMOOTH",
"125 62 OFFCURVE",
"97 70 OFFCURVE",
"71 87 CURVE SMOOTH",
"64 92 OFFCURVE",
"58 94 OFFCURVE",
"53 94 CURVE SMOOTH",
"45 94 OFFCURVE",
"40 90 OFFCURVE",
"35 81 CURVE SMOOTH",
"19 46 LINE SMOOTH",
"17 42 OFFCURVE",
"17 39 OFFCURVE",
"17 35 CURVE SMOOTH",
"17 27 OFFCURVE",
"22 20 OFFCURVE",
"33 14 CURVE SMOOTH"
);
}
);
width = 435;
}
);
unicode = 0248;
},
{
glyphname = K;
layers = (
{
layerId = UUID0;
paths = (
{
closed = 1;
nodes = (
"152 0 LINE SMOOTH",
"168 0 OFFCURVE",
"177 9 OFFCURVE",
"177 27 CURVE SMOOTH",
"177 230 LINE",
"293 349 LINE",
"517 19 LINE SMOOTH",
"525 6 OFFCURVE",
"537 0 OFFCURVE",
"551 0 CURVE SMOOTH",
"610 0 LINE SMOOTH",
"622 0 OFFCURVE",
"628 4 OFFCURVE",
"628 11 CURVE SMOOTH",
"628 16 OFFCURVE",
"625 23 OFFCURVE",
"619 32 CURVE SMOOTH",
"358 415 LINE",
"606 668 LINE SMOOTH",
"615 677 OFFCURVE",
"620 685 OFFCURVE",
"620 690 CURVE SMOOTH",
"620 697 OFFCURVE",
"612 700 OFFCURVE",
"597 700 CURVE SMOOTH",
"538 700 LINE SMOOTH",
"528 700 OFFCURVE",
"516 694 OFFCURVE",
"504 681 CURVE SMOOTH",
"178 347 LINE",
"176 347 LINE",
"176 360 OFFCURVE",
"177 373 OFFCURVE",
"177 386 CURVE SMOOTH",
"177 673 LINE SMOOTH",
"177 691 OFFCURVE",
"168 700 OFFCURVE",
"152 700 CURVE SMOOTH",
"107 700 LINE SMOOTH",
"91 700 OFFCURVE",
"83 691 OFFCURVE",
"83 673 CURVE SMOOTH",
"83 27 LINE SMOOTH",
"83 9 OFFCURVE",
"91 0 OFFCURVE",
"107 0 CURVE SMOOTH"
);
}
);
width = 648;
},
{
layerId = "39B5C782-31E0-4FF6-90B4-6BA13107E116";
paths = (
{
closed = 1;
nodes = (
"187 0 LINE SMOOTH",
"209 0 OFFCURVE",
"221 12 OFFCURVE",
"221 37 CURVE SMOOTH",
"221 218 LINE",
"303 311 LINE",
"482 29 LINE SMOOTH",
"495 10 OFFCURVE",
"509 0 OFFCURVE",
"526 0 CURVE SMOOTH",
"618 0 LINE SMOOTH",
"637 0 OFFCURVE",
"646 5 OFFCURVE",
"646 17 CURVE SMOOTH",
"646 23 OFFCURVE",
"643 32 OFFCURVE",
"636 42 CURVE SMOOTH",
"398 415 LINE",
"621 658 LINE SMOOTH",
"631 669 OFFCURVE",
"636 678 OFFCURVE",
"636 685 CURVE SMOOTH",
"636 695 OFFCURVE",
"625 700 OFFCURVE",
"602 700 CURVE SMOOTH",
"504 700 LINE SMOOTH",
"492 700 OFFCURVE",
"477 690 OFFCURVE",
"459 671 CURVE SMOOTH",
"222 411 LINE",
"218 411 LINE",
"220 430 OFFCURVE",
"221 450 OFFCURVE",
"221 469 CURVE SMOOTH",
"221 664 LINE SMOOTH",
"221 688 OFFCURVE",
"209 700 OFFCURVE",
"187 700 CURVE SMOOTH",
"112 700 LINE SMOOTH",
"89 700 OFFCURVE",
"78 688 OFFCURVE",
"78 664 CURVE SMOOTH",
"78 37 LINE SMOOTH",
"78 12 OFFCURVE",
"89 0 OFFCURVE",
"112 0 CURVE SMOOTH"
);
}
);
width = 665;
}
);
unicode = 004B;
},
{
glyphname = L;
layers = (
{
layerId = UUID0;
paths = (
{
closed = 1;
nodes = (
"500 0 LINE SMOOTH",
"519 0 OFFCURVE",
"527 7 OFFCURVE",
"527 22 CURVE SMOOTH",
"527 58 LINE SMOOTH",
"527 73 OFFCURVE",
"519 80 OFFCURVE",
"500 80 CURVE SMOOTH",
"177 80 LINE",
"177 673 LINE SMOOTH",
"177 691 OFFCURVE",
"168 700 OFFCURVE",
"152 700 CURVE SMOOTH",
"107 700 LINE SMOOTH",
"91 700 OFFCURVE",
"83 691 OFFCURVE",
"83 673 CURVE SMOOTH",
"83 27 LINE SMOOTH",
"83 9 OFFCURVE",
"91 0 OFFCURVE",
"107 0 CURVE SMOOTH"
);
}
);
width = 555;
},
{
layerId = "39B5C782-31E0-4FF6-90B4-6BA13107E116";
paths = (
{
closed = 1;
nodes = (
"505 0 LINE SMOOTH",
"530 0 OFFCURVE",
"542 11 OFFCURVE",
"542 32 CURVE SMOOTH",
"542 89 LINE SMOOTH",
"542 110 OFFCURVE",
"530 121 OFFCURVE",
"505 121 CURVE SMOOTH",
"221 121 LINE",
"221 664 LINE SMOOTH",
"221 688 OFFCURVE",
"211 700 OFFCURVE",
"191 700 CURVE SMOOTH",
"112 700 LINE SMOOTH",
"89 700 OFFCURVE",
"78 688 OFFCURVE",
"78 664 CURVE SMOOTH",
"78 37 LINE SMOOTH",
"78 12 OFFCURVE",
"89 0 OFFCURVE",
"112 0 CURVE SMOOTH"
);
}
);
width = 567;
}
);
unicode = 004C;
},
{
glyphname = Lslash;
layers = (
{
layerId = UUID0;
paths = (
{
closed = 1;
nodes = (
"133 271 LINE",
"135 271 LINE",
"135 258 OFFCURVE",
"134 245 OFFCURVE",
"134 232 CURVE SMOOTH",
"134 27 LINE SMOOTH",
"134 9 OFFCURVE",
"143 0 OFFCURVE",
"159 0 CURVE SMOOTH",
"552 0 LINE SMOOTH",
"570 0 OFFCURVE",
"579 7 OFFCURVE",
"579 22 CURVE SMOOTH",
"579 58 LINE SMOOTH",
"579 73 OFFCURVE",
"570 80 OFFCURVE",
"552 80 CURVE SMOOTH",
"228 80 LINE",
"228 335 LINE",
"370 431 LINE SMOOTH",
"381 438 OFFCURVE",
"387 449 OFFCURVE",
"387 461 CURVE SMOOTH",
"387 517 LINE SMOOTH",
"387 527 OFFCURVE",
"384 532 OFFCURVE",
"377 532 CURVE SMOOTH",
"373 532 OFFCURVE",
"367 529 OFFCURVE",
"360 524 CURVE SMOOTH",
"229 436 LINE",
"227 436 LINE",
"228 449 OFFCURVE",
"228 462 OFFCURVE",
"228 475 CURVE SMOOTH",
"228 673 LINE SMOOTH",
"228 691 OFFCURVE",
"220 700 OFFCURVE",
"204 700 CURVE SMOOTH",
"159 700 LINE SMOOTH",
"143 700 OFFCURVE",
"134 691 OFFCURVE",
"134 673 CURVE SMOOTH",
"134 372 LINE",
"46 313 LINE SMOOTH",
"35 305 OFFCURVE",
"29 294 OFFCURVE",
"29 282 CURVE SMOOTH",
"29 226 LINE SMOOTH",
"29 216 OFFCURVE",
"32 211 OFFCURVE",
"38 211 CURVE SMOOTH",
"42 211 OFFCURVE",
"48 213 OFFCURVE",
"56 219 CURVE SMOOTH"
);
}
);
width = 606;
},
{
layerId = "39B5C782-31E0-4FF6-90B4-6BA13107E116";
paths = (
{
closed = 1;
nodes = (
"117 232 LINE",
"121 232 LINE",
"119 213 OFFCURVE",
"118 193 OFFCURVE",
"118 174 CURVE SMOOTH",
"118 37 LINE SMOOTH",
"118 12 OFFCURVE",
"129 0 OFFCURVE",
"152 0 CURVE SMOOTH",
"545 0 LINE SMOOTH",
"570 0 OFFCURVE",
"582 11 OFFCURVE",
"582 32 CURVE SMOOTH",
"582 89 LINE SMOOTH",
"582 110 OFFCURVE",
"570 121 OFFCURVE",
"545 121 CURVE SMOOTH",
"261 121 LINE",
"261 330 LINE",
"384 413 LINE SMOOTH",
"400 423 OFFCURVE",
"409 438 OFFCURVE",
"409 456 CURVE SMOOTH",
"409 526 LINE SMOOTH",
"409 539 OFFCURVE",
"405 545 OFFCURVE",
"397 545 CURVE SMOOTH",
"392 545 OFFCURVE",
"384 542 OFFCURVE",
"375 536 CURVE SMOOTH",
"262 460 LINE",
"258 460 LINE",
"260 479 OFFCURVE",
"261 499 OFFCURVE",
"261 519 CURVE SMOOTH",
"261 664 LINE SMOOTH",
"261 688 OFFCURVE",
"251 700 OFFCURVE",
"231 700 CURVE SMOOTH",
"152 700 LINE SMOOTH",
"129 700 OFFCURVE",
"118 688 OFFCURVE",
"118 664 CURVE SMOOTH",
"118 362 LINE",
"51 317 LINE SMOOTH",
"35 306 OFFCURVE",
"27 292 OFFCURVE",
"27 274 CURVE SMOOTH",
"27 204 LINE SMOOTH",
"27 191 OFFCURVE",
"31 185 OFFCURVE",
"39 185 CURVE SMOOTH",
"44 185 OFFCURVE",
"52 188 OFFCURVE",
"61 194 CURVE SMOOTH"
);
}
);
width = 607;
}
);
unicode = 0141;
},
{
glyphname = M;
layers = (
{
layerId = UUID0;
paths = (
{
closed = 1;
nodes = (
"152 0 LINE SMOOTH",
"168 0 OFFCURVE",
"177 9 OFFCURVE",
"177 27 CURVE SMOOTH",
"177 539 LINE SMOOTH",
"177 552 OFFCURVE",
"176 565 OFFCURVE",
"176 578 CURVE",
"178 578 LINE",
"358 30 LINE SMOOTH",
"364 10 OFFCURVE",
"375 0 OFFCURVE",
"390 0 CURVE SMOOTH",
"444 0 LINE SMOOTH",
"459 0 OFFCURVE",
"469 10 OFFCURVE",
"476 30 CURVE SMOOTH",
"656 578 LINE",
"658 578 LINE",
"658 565 OFFCURVE",
"657 552 OFFCURVE",
"657 539 CURVE SMOOTH",
"657 27 LINE SMOOTH",
"657 9 OFFCURVE",
"666 0 OFFCURVE",
"682 0 CURVE SMOOTH",
"727 0 LINE SMOOTH",
"743 0 OFFCURVE",
"751 9 OFFCURVE",
"751 27 CURVE SMOOTH",
"751 673 LINE SMOOTH",
"751 691 OFFCURVE",
"743 700 OFFCURVE",
"727 700 CURVE SMOOTH",
"623 700 LINE SMOOTH",
"610 700 OFFCURVE",
"601 690 OFFCURVE",
"595 671 CURVE SMOOTH",
"455 233 LINE SMOOTH",
"425 138 OFFCURVE",
"430 161 OFFCURVE",
"418 101 CURVE",
"416 101 LINE",
"403 161 OFFCURVE",
"409 138 OFFCURVE",
"379 233 CURVE SMOOTH",
"239 671 LINE SMOOTH",
"233 690 OFFCURVE",
"224 700 OFFCURVE",
"211 700 CURVE SMOOTH",
"107 700 LINE SMOOTH",
"91 700 OFFCURVE",
"83 691 OFFCURVE",
"83 673 CURVE SMOOTH",
"83 27 LINE SMOOTH",
"83 9 OFFCURVE",
"91 0 OFFCURVE",
"107 0 CURVE SMOOTH"
);
}
);
width = 834;
},
{
layerId = "39B5C782-31E0-4FF6-90B4-6BA13107E116";
paths = (
{
closed = 1;
nodes = (
"187 0 LINE SMOOTH",
"209 0 OFFCURVE",
"221 12 OFFCURVE",
"221 37 CURVE SMOOTH",
"221 440 LINE SMOOTH",
"221 459 OFFCURVE",
"220 479 OFFCURVE",
"218 499 CURVE",
"222 499 LINE",
"363 40 LINE SMOOTH",
"371 13 OFFCURVE",
"385 0 OFFCURVE",
"405 0 CURVE SMOOTH",
"488 0 LINE SMOOTH",
"508 0 OFFCURVE",
"521 13 OFFCURVE",
"530 40 CURVE SMOOTH",
"671 499 LINE",
"674 499 LINE",
"673 479 OFFCURVE",
"672 459 OFFCURVE",
"672 440 CURVE SMOOTH",
"672 37 LINE SMOOTH",
"672 12 OFFCURVE",
"683 0 OFFCURVE",
"706 0 CURVE SMOOTH",
"780 0 LINE SMOOTH",
"803 0 OFFCURVE",
"814 12 OFFCURVE",
"814 37 CURVE SMOOTH",
"814 664 LINE SMOOTH",
"814 688 OFFCURVE",
"803 700 OFFCURVE",
"780 700 CURVE SMOOTH",
"639 700 LINE SMOOTH",
"620 700 OFFCURVE",
"606 687 OFFCURVE",
"598 661 CURVE SMOOTH",
"466 233 LINE SMOOTH",
"454 195 OFFCURVE",
"451 180 OFFCURVE",
"448 145 CURVE",
"445 145 LINE",
"442 180 OFFCURVE",
"438 195 OFFCURVE",
"427 233 CURVE SMOOTH",
"294 661 LINE SMOOTH",
"286 687 OFFCURVE",
"272 700 OFFCURVE",
"254 700 CURVE SMOOTH",
"112 700 LINE SMOOTH",
"89 700 OFFCURVE",
"78 688 OFFCURVE",
"78 664 CURVE SMOOTH",
"78 37 LINE SMOOTH",
"78 12 OFFCURVE",
"89 0 OFFCURVE",
"112 0 CURVE SMOOTH"
);
}
);
width = 893;
}
);
unicode = 004D;
},
{
glyphname = Mhook;
layers = (
{
layerId = UUID0;
paths = (
{
closed = 1;
nodes = (
"152 0 LINE SMOOTH",
"168 0 OFFCURVE",
"177 9 OFFCURVE",
"177 27 CURVE SMOOTH",
"177 539 LINE SMOOTH",
"177 552 OFFCURVE",
"176 565 OFFCURVE",
"176 578 CURVE",
"178 578 LINE",
"358 30 LINE SMOOTH",
"364 10 OFFCURVE",
"375 0 OFFCURVE",
"390 0 CURVE SMOOTH",
"444 0 LINE SMOOTH",
"459 0 OFFCURVE",
"469 10 OFFCURVE",
"476 30 CURVE SMOOTH",
"656 578 LINE",
"658 578 LINE",
"658 565 OFFCURVE",
"657 552 OFFCURVE",
"657 539 CURVE SMOOTH",
"657 19 LINE SMOOTH",
"657 -45 OFFCURVE",
"651 -85 OFFCURVE",
"639 -102 CURVE SMOOTH",
"626 -119 OFFCURVE",
"607 -127 OFFCURVE",
"582 -127 CURVE SMOOTH",
"564 -127 OFFCURVE",
"545 -123 OFFCURVE",
"525 -113 CURVE SMOOTH",
"519 -110 OFFCURVE",
"514 -109 OFFCURVE",
"509 -109 CURVE SMOOTH",
"500 -109 OFFCURVE",
"495 -114 OFFCURVE",
"492 -124 CURVE SMOOTH",
"482 -158 LINE SMOOTH",
"481 -162 OFFCURVE",
"480 -165 OFFCURVE",
"480 -167 CURVE SMOOTH",
"480 -194 OFFCURVE",
"552 -204 OFFCURVE",
"585 -204 CURVE SMOOTH",
"693 -204 OFFCURVE",
"751 -154 OFFCURVE",
"751 -4 CURVE SMOOTH",
"751 673 LINE SMOOTH",
"751 691 OFFCURVE",
"743 700 OFFCURVE",
"727 700 CURVE SMOOTH",
"623 700 LINE SMOOTH",
"610 700 OFFCURVE",
"601 690 OFFCURVE",
"595 671 CURVE SMOOTH",
"455 233 LINE SMOOTH",
"425 138 OFFCURVE",
"430 161 OFFCURVE",
"418 101 CURVE",
"416 101 LINE",
"403 161 OFFCURVE",
"409 138 OFFCURVE",
"379 233 CURVE SMOOTH",
"239 671 LINE SMOOTH",
"233 690 OFFCURVE",
"224 700 OFFCURVE",
"211 700 CURVE SMOOTH",
"107 700 LINE SMOOTH",
"91 700 OFFCURVE",
"83 691 OFFCURVE",
"83 673 CURVE SMOOTH",
"83 27 LINE SMOOTH",
"83 9 OFFCURVE",
"91 0 OFFCURVE",
"107 0 CURVE SMOOTH"
);
}
);
width = 834;
},
{
layerId = "39B5C782-31E0-4FF6-90B4-6BA13107E116";
paths = (
{
closed = 1;
nodes = (
"187 0 LINE SMOOTH",
"209 0 OFFCURVE",
"221 12 OFFCURVE",
"221 37 CURVE SMOOTH",
"221 440 LINE SMOOTH",
"221 459 OFFCURVE",
"220 479 OFFCURVE",
"218 499 CURVE",
"222 499 LINE",
"363 40 LINE SMOOTH",
"371 13 OFFCURVE",
"385 0 OFFCURVE",
"405 0 CURVE SMOOTH",
"488 0 LINE SMOOTH",
"508 0 OFFCURVE",
"521 13 OFFCURVE",
"530 40 CURVE SMOOTH",
"671 499 LINE",
"674 499 LINE",
"673 479 OFFCURVE",
"672 459 OFFCURVE",
"672 440 CURVE SMOOTH",
"672 44 LINE SMOOTH",
"672 -14 OFFCURVE",
"667 -51 OFFCURVE",
"657 -66 CURVE SMOOTH",
"647 -82 OFFCURVE",
"632 -90 OFFCURVE",
"610 -90 CURVE SMOOTH",
"596 -90 OFFCURVE",
"581 -87 OFFCURVE",
"565 -81 CURVE SMOOTH",
"559 -78 OFFCURVE",
"554 -77 OFFCURVE",
"549 -77 CURVE SMOOTH",
"539 -77 OFFCURVE",
"531 -84 OFFCURVE",
"527 -97 CURVE SMOOTH",
"512 -156 LINE SMOOTH",
"511 -160 OFFCURVE",
"510 -163 OFFCURVE",
"510 -166 CURVE SMOOTH",
"510 -197 OFFCURVE",
"581 -205 OFFCURVE",
"629 -205 CURVE SMOOTH",
"752 -205 OFFCURVE",
"814 -137 OFFCURVE",
"814 17 CURVE SMOOTH",
"814 664 LINE SMOOTH",
"814 688 OFFCURVE",
"803 700 OFFCURVE",
"780 700 CURVE SMOOTH",
"639 700 LINE SMOOTH",
"620 700 OFFCURVE",
"606 687 OFFCURVE",
"598 661 CURVE SMOOTH",
"466 233 LINE",
"453 192 OFFCURVE",
"451 180 OFFCURVE",
"448 145 CURVE",
"445 145 LINE",
"441 180 OFFCURVE",
"440 192 OFFCURVE",
"427 233 CURVE",
"294 661 LINE SMOOTH",
"286 687 OFFCURVE",
"272 700 OFFCURVE",
"254 700 CURVE SMOOTH",
"112 700 LINE SMOOTH",
"89 700 OFFCURVE",
"78 688 OFFCURVE",
"78 664 CURVE SMOOTH",
"78 37 LINE SMOOTH",
"78 12 OFFCURVE",
"89 0 OFFCURVE",
"112 0 CURVE SMOOTH"
);
}
);
width = 893;
}
);
unicode = 2C6E;
},
{
glyphname = N;
layers = (
{
layerId = UUID0;
paths = (
{
closed = 1;
nodes = (
"152 0 LINE SMOOTH",
"168 0 OFFCURVE",
"177 9 OFFCURVE",
"177 27 CURVE SMOOTH",
"177 529 LINE SMOOTH",
"177 542 OFFCURVE",
"176 555 OFFCURVE",
"176 568 CURVE",
"178 568 LINE",
"503 24 LINE SMOOTH",
"513 8 OFFCURVE",
"529 0 OFFCURVE",
"552 0 CURVE SMOOTH",
"595 0 LINE SMOOTH",
"611 0 OFFCURVE",
"619 9 OFFCURVE",
"619 27 CURVE SMOOTH",
"619 673 LINE SMOOTH",
"619 691 OFFCURVE",
"611 700 OFFCURVE",
"595 700 CURVE SMOOTH",
"550 700 LINE SMOOTH",
"534 700 OFFCURVE",
"525 691 OFFCURVE",
"525 673 CURVE SMOOTH",
"525 203 LINE SMOOTH",
"525 189 OFFCURVE",
"526 177 OFFCURVE",
"526 164 CURVE",
"524 164 LINE",
"219 676 LINE SMOOTH",
"209 692 OFFCURVE",
"193 700 OFFCURVE",
"170 700 CURVE SMOOTH",
"107 700 LINE SMOOTH",
"91 700 OFFCURVE",
"83 691 OFFCURVE",
"83 673 CURVE SMOOTH",
"83 27 LINE SMOOTH",
"83 9 OFFCURVE",
"91 0 OFFCURVE",
"107 0 CURVE SMOOTH"
);
}
);
width = 702;
},
{
layerId = "39B5C782-31E0-4FF6-90B4-6BA13107E116";
paths = (
{
closed = 1;
nodes = (
"187 0 LINE SMOOTH",
"209 0 OFFCURVE",
"221 12 OFFCURVE",
"221 37 CURVE SMOOTH",
"221 383 LINE SMOOTH",
"221 402 OFFCURVE",
"220 422 OFFCURVE",
"218 441 CURVE",
"222 441 LINE",
"476 34 LINE SMOOTH",
"490 11 OFFCURVE",
"511 0 OFFCURVE",
"539 0 CURVE SMOOTH",
"606 0 LINE SMOOTH",
"629 0 OFFCURVE",
"641 12 OFFCURVE",
"641 37 CURVE SMOOTH",
"641 664 LINE SMOOTH",
"641 688 OFFCURVE",
"629 700 OFFCURVE",
"606 700 CURVE SMOOTH",
"532 700 LINE SMOOTH",
"509 700 OFFCURVE",
"498 688 OFFCURVE",
"498 664 CURVE SMOOTH",
"498 325 LINE SMOOTH",
"498 305 OFFCURVE",
"499 286 OFFCURVE",
"500 266 CURVE",
"497 266 LINE",
"248 666 LINE SMOOTH",
"234 689 OFFCURVE",
"212 700 OFFCURVE",
"185 700 CURVE SMOOTH",
"112 700 LINE SMOOTH",
"89 700 OFFCURVE",
"78 688 OFFCURVE",
"78 664 CURVE SMOOTH",
"78 37 LINE SMOOTH",
"78 12 OFFCURVE",
"89 0 OFFCURVE",
"112 0 CURVE SMOOTH"
);
}
);
width = 719;
}
);
unicode = 004E;
},
{
glyphname = Eng;
layers = (
{
layerId = UUID0;
paths = (
{
closed = 1;
nodes = (
"152 0 LINE SMOOTH",
"168 0 OFFCURVE",
"177 9 OFFCURVE",
"177 27 CURVE SMOOTH",
"177 427 LINE SMOOTH",
"177 508 OFFCURVE",
"196 563 OFFCURVE",
"236 593 CURVE SMOOTH",
"275 624 OFFCURVE",
"315 639 OFFCURVE",
"355 639 CURVE SMOOTH",
"483 639 OFFCURVE",
"518 588 OFFCURVE",
"518 461 CURVE SMOOTH",
"518 19 LINE SMOOTH",
"518 -45 OFFCURVE",
"511 -85 OFFCURVE",
"499 -102 CURVE SMOOTH",
"487 -119 OFFCURVE",
"468 -127 OFFCURVE",
"442 -127 CURVE SMOOTH",
"425 -127 OFFCURVE",
"406 -123 OFFCURVE",
"386 -113 CURVE SMOOTH",
"379 -110 OFFCURVE",
"374 -109 OFFCURVE",
"370 -109 CURVE SMOOTH",
"361 -109 OFFCURVE",
"355 -114 OFFCURVE",
"353 -124 CURVE SMOOTH",
"342 -158 LINE SMOOTH",
"341 -162 OFFCURVE",
"341 -165 OFFCURVE",
"341 -167 CURVE SMOOTH",
"341 -194 OFFCURVE",
"413 -204 OFFCURVE",
"445 -204 CURVE SMOOTH",
"553 -204 OFFCURVE",
"611 -154 OFFCURVE",
"611 -4 CURVE SMOOTH",
"611 504 LINE SMOOTH",
"611 639 OFFCURVE",
"537 715 OFFCURVE",
"397 715 CURVE SMOOTH",
"317 715 OFFCURVE",
"228 682 OFFCURVE",
"178 610 CURVE",
"176 610 LINE",
"172 673 LINE SMOOTH",
"171 691 OFFCURVE",
"163 700 OFFCURVE",
"147 700 CURVE SMOOTH",
"107 700 LINE SMOOTH",
"91 700 OFFCURVE",
"83 691 OFFCURVE",
"83 673 CURVE SMOOTH",
"83 27 LINE SMOOTH",
"83 9 OFFCURVE",
"91 0 OFFCURVE",
"107 0 CURVE SMOOTH"
);
}
);
width = 694;
},
{
layerId = "39B5C782-31E0-4FF6-90B4-6BA13107E116";
paths = (
{
closed = 1;
nodes = (
"187 0 LINE SMOOTH",
"209 0 OFFCURVE",
"221 12 OFFCURVE",
"221 37 CURVE SMOOTH",
"221 306 LINE SMOOTH",
"221 490 OFFCURVE",
"287 602 OFFCURVE",
"367 602 CURVE SMOOTH",
"457 602 OFFCURVE",
"483 543 OFFCURVE",
"483 422 CURVE SMOOTH",
"483 44 LINE SMOOTH",
"483 -14 OFFCURVE",
"479 -51 OFFCURVE",
"469 -66 CURVE SMOOTH",
"459 -82 OFFCURVE",
"443 -90 OFFCURVE",
"421 -90 CURVE SMOOTH",
"407 -90 OFFCURVE",
"392 -87 OFFCURVE",
"376 -81 CURVE SMOOTH",
"371 -78 OFFCURVE",
"365 -77 OFFCURVE",
"361 -77 CURVE SMOOTH",
"350 -77 OFFCURVE",
"342 -84 OFFCURVE",
"339 -97 CURVE SMOOTH",
"323 -156 LINE SMOOTH",
"322 -160 OFFCURVE",
"322 -163 OFFCURVE",
"322 -166 CURVE SMOOTH",
"322 -197 OFFCURVE",
"393 -205 OFFCURVE",
"440 -205 CURVE SMOOTH",
"564 -205 OFFCURVE",
"626 -137 OFFCURVE",
"626 17 CURVE SMOOTH",
"626 465 LINE SMOOTH",
"626 637 OFFCURVE",
"560 717 OFFCURVE",
"417 717 CURVE SMOOTH",
"319 717 OFFCURVE",
"265 664 OFFCURVE",
"222 597 CURVE",
"218 597 LINE",
"212 664 LINE SMOOTH",
"209 688 OFFCURVE",
"198 700 OFFCURVE",
"178 700 CURVE SMOOTH",
"112 700 LINE SMOOTH",
"89 700 OFFCURVE",
"78 688 OFFCURVE",
"78 664 CURVE SMOOTH",
"78 37 LINE SMOOTH",
"78 12 OFFCURVE",
"89 0 OFFCURVE",
"112 0 CURVE SMOOTH"
);
}
);
width = 704;
}
);
unicode = 014A;
},
{
glyphname = Nhookleft;
layers = (
{
layerId = UUID0;
paths = (
{
closed = 1;
nodes = (
"-38 -198 OFFCURVE",
"-8 -204 OFFCURVE",
"22 -204 CURVE SMOOTH",
"130 -204 OFFCURVE",
"188 -154 OFFCURVE",
"188 -4 CURVE SMOOTH",
"188 529 LINE SMOOTH",
"188 542 OFFCURVE",
"188 555 OFFCURVE",
"188 568 CURVE",
"189 568 LINE",
"515 24 LINE SMOOTH",
"524 8 OFFCURVE",
"541 0 OFFCURVE",
"563 0 CURVE SMOOTH",
"606 0 LINE SMOOTH",
"623 0 OFFCURVE",
"631 9 OFFCURVE",
"631 27 CURVE SMOOTH",
"631 673 LINE SMOOTH",
"631 691 OFFCURVE",
"623 700 OFFCURVE",
"606 700 CURVE SMOOTH",
"562 700 LINE SMOOTH",
"545 700 OFFCURVE",
"537 691 OFFCURVE",
"537 673 CURVE SMOOTH",
"537 203 LINE SMOOTH",
"537 189 OFFCURVE",
"538 177 OFFCURVE",
"538 164 CURVE",
"536 164 LINE",
"230 676 LINE SMOOTH",
"221 692 OFFCURVE",
"205 700 OFFCURVE",
"182 700 CURVE SMOOTH",
"119 700 LINE SMOOTH",
"103 700 OFFCURVE",
"95 691 OFFCURVE",
"95 673 CURVE SMOOTH",
"95 19 LINE SMOOTH",
"95 -45 OFFCURVE",
"88 -85 OFFCURVE",
"76 -102 CURVE SMOOTH",
"64 -119 OFFCURVE",
"45 -127 OFFCURVE",
"20 -127 CURVE SMOOTH",
"2 -127 OFFCURVE",
"-17 -123 OFFCURVE",
"-37 -113 CURVE SMOOTH",
"-43 -110 OFFCURVE",
"-49 -109 OFFCURVE",
"-53 -109 CURVE SMOOTH",
"-62 -109 OFFCURVE",
"-67 -114 OFFCURVE",
"-70 -124 CURVE SMOOTH",
"-81 -158 LINE SMOOTH",
"-82 -162 OFFCURVE",
"-82 -165 OFFCURVE",
"-82 -167 CURVE SMOOTH",
"-82 -176 OFFCURVE",
"-77 -183 OFFCURVE",
"-67 -187 CURVE SMOOTH"
);
}
);
width = 714;
}
);
unicode = 019D;
},
{
glyphname = Nlongrightleg;
layers = (
{
layerId = UUID0;
paths = (
{
closed = 1;
nodes = (
"152 0 LINE SMOOTH",
"168 0 OFFCURVE",
"177 9 OFFCURVE",
"177 27 CURVE SMOOTH",
"177 427 LINE SMOOTH",
"177 508 OFFCURVE",
"196 563 OFFCURVE",
"236 593 CURVE SMOOTH",
"275 624 OFFCURVE",
"315 639 OFFCURVE",
"355 639 CURVE SMOOTH",
"483 639 OFFCURVE",
"518 588 OFFCURVE",
"518 461 CURVE SMOOTH",
"518 -168 LINE SMOOTH",
"518 -187 OFFCURVE",
"526 -195 OFFCURVE",
"542 -195 CURVE SMOOTH",
"587 -195 LINE SMOOTH",
"603 -195 OFFCURVE",
"611 -187 OFFCURVE",
"611 -168 CURVE SMOOTH",
"611 504 LINE SMOOTH",
"611 639 OFFCURVE",
"537 715 OFFCURVE",
"397 715 CURVE SMOOTH",
"317 715 OFFCURVE",
"228 682 OFFCURVE",
"178 610 CURVE",
"176 610 LINE",
"172 673 LINE SMOOTH",
"171 691 OFFCURVE",
"163 700 OFFCURVE",
"147 700 CURVE SMOOTH",
"107 700 LINE SMOOTH",
"91 700 OFFCURVE",
"83 691 OFFCURVE",
"83 673 CURVE SMOOTH",
"83 27 LINE SMOOTH",
"83 9 OFFCURVE",
"91 0 OFFCURVE",
"107 0 CURVE SMOOTH"
);
}
);
width = 694;
}
);
unicode = 0220;
},
{
glyphname = O;
layers = (
{
layerId = UUID0;
paths = (
{
closed = 1;
nodes = (
"45 124 OFFCURVE",
"159 -15 OFFCURVE",
"372 -15 CURVE SMOOTH",
"585 -15 OFFCURVE",
"699 125 OFFCURVE",
"699 350 CURVE SMOOTH",
"699 576 OFFCURVE",
"583 715 OFFCURVE",
"372 715 CURVE SMOOTH",
"160 715 OFFCURVE",
"45 577 OFFCURVE",
"45 350 CURVE SMOOTH"
);
},
{
closed = 1;
nodes = (
"145 532 OFFCURVE",
"219 639 OFFCURVE",
"372 639 CURVE SMOOTH",
"525 639 OFFCURVE",
"599 532 OFFCURVE",
"599 350 CURVE SMOOTH",
"599 169 OFFCURVE",
"526 62 OFFCURVE",
"372 62 CURVE SMOOTH",
"217 62 OFFCURVE",
"145 169 OFFCURVE",
"145 350 CURVE SMOOTH"
);
}
);
width = 744;
},
{
layerId = "39B5C782-31E0-4FF6-90B4-6BA13107E116";
paths = (
{
closed = 1;
nodes = (
"42 127 OFFCURVE",
"162 -17 OFFCURVE",
"377 -17 CURVE SMOOTH",
"592 -17 OFFCURVE",
"712 127 OFFCURVE",
"712 350 CURVE SMOOTH",
"712 573 OFFCURVE",
"592 717 OFFCURVE",
"377 717 CURVE SMOOTH",
"162 717 OFFCURVE",
"42 573 OFFCURVE",
"42 350 CURVE SMOOTH"
);
},
{
closed = 1;
nodes = (
"194 513 OFFCURVE",
"250 602 OFFCURVE",
"377 602 CURVE SMOOTH",
"504 602 OFFCURVE",
"560 513 OFFCURVE",
"560 350 CURVE SMOOTH",
"560 188 OFFCURVE",
"504 99 OFFCURVE",
"377 99 CURVE SMOOTH",
"250 99 OFFCURVE",
"194 188 OFFCURVE",
"194 350 CURVE SMOOTH"
);
}
);
width = 754;
}
);
unicode = 004F;
},
{
glyphname = Oslash;
layers = (
{
layerId = UUID0;
paths = (
{
closed = 1;
nodes = (
"45 252 OFFCURVE",
"66 172 OFFCURVE",
"107 111 CURVE",
"42 39 LINE SMOOTH",
"36 32 OFFCURVE",
"33 25 OFFCURVE",
"33 20 CURVE SMOOTH",
"33 14 OFFCURVE",
"36 9 OFFCURVE",
"41 4 CURVE SMOOTH",
"63 -15 LINE SMOOTH",
"68 -20 OFFCURVE",
"72 -22 OFFCURVE",
"77 -22 CURVE SMOOTH",
"83 -22 OFFCURVE",
"90 -18 OFFCURVE",
"97 -10 CURVE SMOOTH",
"156 55 LINE",
"210 9 OFFCURVE",
"282 -15 OFFCURVE",
"372 -15 CURVE SMOOTH",
"585 -15 OFFCURVE",
"699 125 OFFCURVE",
"699 350 CURVE SMOOTH",
"699 448 OFFCURVE",
"678 528 OFFCURVE",
"637 589 CURVE",
"702 661 LINE SMOOTH",
"708 668 OFFCURVE",
"711 674 OFFCURVE",
"711 681 CURVE SMOOTH",
"711 686 OFFCURVE",
"708 691 OFFCURVE",
"703 696 CURVE SMOOTH",
"681 715 LINE SMOOTH",
"676 720 OFFCURVE",
"672 722 OFFCURVE",
"667 722 CURVE",
"661 722 OFFCURVE",
"654 718 OFFCURVE",
"647 710 CURVE SMOOTH",
"588 645 LINE",
"534 691 OFFCURVE",
"462 715 OFFCURVE",
"372 715 CURVE SMOOTH",
"160 715 OFFCURVE",
"45 577 OFFCURVE",
"45 350 CURVE SMOOTH"
);
},
{
closed = 1;
nodes = (
"145 532 OFFCURVE",
"219 639 OFFCURVE",
"372 639 CURVE SMOOTH",
"439 639 OFFCURVE",
"492 619 OFFCURVE",
"529 580 CURVE",
"174 185 LINE",
"155 229 OFFCURVE",
"145 285 OFFCURVE",
"145 350 CURVE SMOOTH"
);
},
{
closed = 1;
nodes = (
"570 515 LINE",
"589 471 OFFCURVE",
"599 416 OFFCURVE",
"599 350 CURVE SMOOTH",
"599 169 OFFCURVE",
"526 62 OFFCURVE",
"372 62 CURVE SMOOTH",
"305 62 OFFCURVE",
"252 81 OFFCURVE",
"215 121 CURVE"
);
}
);
width = 744;
},
{
layerId = "39B5C782-31E0-4FF6-90B4-6BA13107E116";
paths = (
{
closed = 1;
nodes = (
"42 260 OFFCURVE",
"61 185 OFFCURVE",
"98 125 CURVE",
"32 51 LINE SMOOTH",
"26 44 OFFCURVE",
"22 38 OFFCURVE",
"22 31 CURVE SMOOTH",
"22 24 OFFCURVE",
"26 18 OFFCURVE",
"33 12 CURVE SMOOTH",
"76 -28 LINE SMOOTH",
"82 -33 OFFCURVE",
"88 -36 OFFCURVE",
"94 -36 CURVE SMOOTH",
"101 -36 OFFCURVE",
"108 -32 OFFCURVE",
"116 -24 CURVE SMOOTH",
"174 41 LINE",
"228 2 OFFCURVE",
"295 -17 OFFCURVE",
"377 -17 CURVE SMOOTH",
"592 -17 OFFCURVE",
"712 127 OFFCURVE",
"712 350 CURVE SMOOTH",
"712 440 OFFCURVE",
"693 516 OFFCURVE",
"656 576 CURVE",
"722 649 LINE SMOOTH",
"728 656 OFFCURVE",
"731 663 OFFCURVE",
"731 669 CURVE SMOOTH",
"731 676 OFFCURVE",
"728 683 OFFCURVE",
"721 688 CURVE SMOOTH",
"678 728 LINE SMOOTH",
"672 733 OFFCURVE",
"666 736 OFFCURVE",
"660 736 CURVE SMOOTH",
"653 736 OFFCURVE",
"646 732 OFFCURVE",
"638 724 CURVE SMOOTH",
"580 659 LINE",
"526 698 OFFCURVE",
"459 717 OFFCURVE",
"377 717 CURVE SMOOTH",
"162 717 OFFCURVE",
"42 573 OFFCURVE",
"42 350 CURVE SMOOTH"
);
},
{
closed = 1;
nodes = (
"194 513 OFFCURVE",
"250 602 OFFCURVE",
"377 602 CURVE SMOOTH",
"426 602 OFFCURVE",
"464 589 OFFCURVE",
"493 563 CURVE",
"205 243 LINE",
"198 274 OFFCURVE",
"194 310 OFFCURVE",
"194 350 CURVE SMOOTH"
);
},
{
closed = 1;
nodes = (
"549 457 LINE",
"556 426 OFFCURVE",
"560 391 OFFCURVE",
"560 350 CURVE SMOOTH",
"560 188 OFFCURVE",
"504 99 OFFCURVE",
"377 99 CURVE SMOOTH",
"328 99 OFFCURVE",
"290 111 OFFCURVE",
"261 137 CURVE"
);
}
);
width = 754;
}
);
unicode = 00D8;
},
{
glyphname = OE;
layers = (
{
layerId = UUID0;
paths = (
{
closed = 1;
nodes = (
"45 124 OFFCURVE",
"161 -15 OFFCURVE",
"352 -15 CURVE SMOOTH",
"407 -15 OFFCURVE",
"464 0 OFFCURVE",
"519 0 CURVE SMOOTH",
"912 0 LINE SMOOTH",
"930 0 OFFCURVE",
"939 7 OFFCURVE",
"939 22 CURVE SMOOTH",
"939 58 LINE SMOOTH",
"939 73 OFFCURVE",
"930 80 OFFCURVE",
"912 80 CURVE SMOOTH",
"559 80 LINE",
"559 323 LINE",
"868 323 LINE SMOOTH",
"886 323 OFFCURVE",
"895 331 OFFCURVE",
"895 345 CURVE SMOOTH",
"895 381 LINE SMOOTH",
"895 396 OFFCURVE",
"886 403 OFFCURVE",
"868 403 CURVE SMOOTH",
"559 403 LINE",
"559 620 LINE",
"897 620 LINE SMOOTH",
"916 620 OFFCURVE",
"924 627 OFFCURVE",
"924 642 CURVE SMOOTH",
"924 678 LINE SMOOTH",
"924 693 OFFCURVE",
"916 700 OFFCURVE",
"897 700 CURVE SMOOTH",
"519 700 LINE SMOOTH",
"464 700 OFFCURVE",
"407 715 OFFCURVE",
"352 715 CURVE SMOOTH",
"162 715 OFFCURVE",
"45 579 OFFCURVE",
"45 351 CURVE SMOOTH"
);
},
{
closed = 1;
nodes = (
"145 533 OFFCURVE",
"214 639 OFFCURVE",
"352 639 CURVE SMOOTH",
"391 639 OFFCURVE",
"429 632 OFFCURVE",
"465 620 CURVE",
"465 80 LINE",
"429 68 OFFCURVE",
"391 62 OFFCURVE",
"352 62 CURVE SMOOTH",
"212 62 OFFCURVE",
"145 169 OFFCURVE",
"145 350 CURVE SMOOTH"
);
}
);
width = 983;
}
);
unicode = 0152;
},
{
glyphname = P;
layers = (
{
layerId = UUID0;
paths = (
{
closed = 1;
nodes = (
"152 0 LINE SMOOTH",
"168 0 OFFCURVE",
"177 9 OFFCURVE",
"177 27 CURVE SMOOTH",
"177 281 LINE",
"313 281 LINE SMOOTH",
"423 281 OFFCURVE",
"498 300 OFFCURVE",
"537 337 CURVE SMOOTH",
"575 374 OFFCURVE",
"595 426 OFFCURVE",
"595 491 CURVE SMOOTH",
"595 556 OFFCURVE",
"575 607 OFFCURVE",
"537 644 CURVE SMOOTH",
"498 682 OFFCURVE",
"423 700 OFFCURVE",
"313 700 CURVE SMOOTH",
"107 700 LINE SMOOTH",
"91 700 OFFCURVE",
"83 691 OFFCURVE",
"83 673 CURVE SMOOTH",
"83 27 LINE SMOOTH",
"83 9 OFFCURVE",
"91 0 OFFCURVE",
"107 0 CURVE SMOOTH"
);
},
{
closed = 1;
nodes = (
"177 620 LINE",
"314 620 LINE SMOOTH",
"459 620 OFFCURVE",
"500 581 OFFCURVE",
"500 491 CURVE SMOOTH",
"500 401 OFFCURVE",
"460 361 OFFCURVE",
"314 361 CURVE SMOOTH",
"177 361 LINE"
);
}
);
width = 639;
},
{
layerId = "39B5C782-31E0-4FF6-90B4-6BA13107E116";
paths = (
{
closed = 1;
nodes = (
"187 0 LINE SMOOTH",
"209 0 OFFCURVE",
"221 12 OFFCURVE",
"221 37 CURVE SMOOTH",
"221 262 LINE",
"295 262 LINE SMOOTH",
"412 262 OFFCURVE",
"493 281 OFFCURVE",
"539 319 CURVE SMOOTH",
"584 357 OFFCURVE",
"607 411 OFFCURVE",
"607 481 CURVE SMOOTH",
"607 551 OFFCURVE",
"584 605 OFFCURVE",
"539 643 CURVE SMOOTH",
"493 681 OFFCURVE",
"412 700 OFFCURVE",
"295 700 CURVE SMOOTH",
"112 700 LINE SMOOTH",
"89 700 OFFCURVE",
"78 688 OFFCURVE",
"78 664 CURVE SMOOTH",
"78 37 LINE SMOOTH",
"78 12 OFFCURVE",
"89 0 OFFCURVE",
"112 0 CURVE SMOOTH"
);
},
{
closed = 1;
nodes = (
"221 581 LINE",
"294 581 LINE SMOOTH",
"426 581 OFFCURVE",
"462 552 OFFCURVE",
"462 481 CURVE SMOOTH",
"462 410 OFFCURVE",
"427 381 OFFCURVE",
"294 381 CURVE SMOOTH",
"221 381 LINE"
);
}
);
width = 648;
}
);
unicode = 0050;
},
{
glyphname = Thorn;
layers = (
{
layerId = UUID0;
paths = (
{
closed = 1;
nodes = (
"152 -4 LINE SMOOTH",
"168 -4 OFFCURVE",
"177 5 OFFCURVE",
"177 23 CURVE SMOOTH",
"177 164 LINE",
"273 164 LINE SMOOTH",
"469 164 OFFCURVE",
"562 226 OFFCURVE",
"562 369 CURVE SMOOTH",
"562 512 OFFCURVE",
"469 574 OFFCURVE",
"273 574 CURVE SMOOTH",
"177 574 LINE",
"177 674 LINE SMOOTH",
"177 692 OFFCURVE",
"168 701 OFFCURVE",
"152 701 CURVE SMOOTH",
"107 701 LINE SMOOTH",
"91 701 OFFCURVE",
"83 692 OFFCURVE",
"83 674 CURVE SMOOTH",
"83 23 LINE SMOOTH",
"83 5 OFFCURVE",
"91 -4 OFFCURVE",
"107 -4 CURVE SMOOTH"
);
},
{
closed = 1;
nodes = (
"177 494 LINE",
"282 494 LINE SMOOTH",
"398 494 OFFCURVE",
"461 468 OFFCURVE",
"461 369 CURVE SMOOTH",
"461 271 OFFCURVE",
"398 244 OFFCURVE",
"282 244 CURVE SMOOTH",
"177 244 LINE"
);
}
);
width = 607;
},
{
layerId = "39B5C782-31E0-4FF6-90B4-6BA13107E116";
paths = (
{
closed = 1;
nodes = (
"187 -5 LINE SMOOTH",
"209 -5 OFFCURVE",
"221 7 OFFCURVE",
"221 31 CURVE SMOOTH",
"221 147 LINE",
"297 147 LINE SMOOTH",
"506 147 OFFCURVE",
"597 223 OFFCURVE",
"597 366 CURVE SMOOTH",
"597 509 OFFCURVE",
"506 585 OFFCURVE",
"297 585 CURVE SMOOTH",
"221 585 LINE",
"221 666 LINE SMOOTH",
"221 690 OFFCURVE",
"209 702 OFFCURVE",
"187 702 CURVE SMOOTH",
"112 702 LINE SMOOTH",
"89 702 OFFCURVE",
"78 690 OFFCURVE",
"78 666 CURVE SMOOTH",
"78 31 LINE SMOOTH",
"78 7 OFFCURVE",
"89 -5 OFFCURVE",
"112 -5 CURVE SMOOTH"
);
},
{
closed = 1;
nodes = (
"221 466 LINE",
"300 466 LINE SMOOTH",
"405 466 OFFCURVE",
"449 438 OFFCURVE",
"449 366 CURVE SMOOTH",
"449 294 OFFCURVE",
"405 267 OFFCURVE",
"300 267 CURVE SMOOTH",
"221 267 LINE"
);
}
);
width = 641;
}
);
unicode = 00DE;
},
{
glyphname = Q;
layers = (
{
layerId = UUID0;
paths = (
{
closed = 1;
nodes = (
"45 142 OFFCURVE",
"144 4 OFFCURVE",
"330 -13 CURVE",
"333 -57 OFFCURVE",
"349 -97 OFFCURVE",
"379 -131 CURVE SMOOTH",
"409 -167 OFFCURVE",
"459 -184 OFFCURVE",
"529 -184 CURVE SMOOTH",
"555 -184 OFFCURVE",
"625 -180 OFFCURVE",
"625 -162 CURVE SMOOTH",
"625 -161 OFFCURVE",
"625 -160 OFFCURVE",
"625 -159 CURVE SMOOTH",
"616 -116 LINE SMOOTH",
"615 -112 OFFCURVE",
"611 -109 OFFCURVE",
"605 -109 CURVE SMOOTH",
"593 -109 OFFCURVE",
"571 -116 OFFCURVE",
"545 -116 CURVE SMOOTH",
"470 -116 OFFCURVE",
"430 -75 OFFCURVE",
"423 -12 CURVE",
"604 8 OFFCURVE",
"699 144 OFFCURVE",
"699 350 CURVE SMOOTH",
"699 576 OFFCURVE",
"583 715 OFFCURVE",
"372 715 CURVE SMOOTH",
"160 715 OFFCURVE",
"45 578 OFFCURVE",
"45 351 CURVE SMOOTH"
);
},
{
closed = 1;
nodes = (
"145 532 OFFCURVE",
"219 639 OFFCURVE",
"372 639 CURVE SMOOTH",
"525 639 OFFCURVE",
"599 532 OFFCURVE",
"599 350 CURVE SMOOTH",
"599 169 OFFCURVE",
"526 62 OFFCURVE",
"372 62 CURVE SMOOTH",
"217 62 OFFCURVE",
"145 169 OFFCURVE",
"145 350 CURVE SMOOTH"
);
}
);
width = 744;
},
{
layerId = "39B5C782-31E0-4FF6-90B4-6BA13107E116";
paths = (
{
closed = 1;
nodes = (
"42 155 OFFCURVE",
"135 16 OFFCURVE",
"306 -11 CURVE",
"309 -63 OFFCURVE",
"326 -107 OFFCURVE",
"354 -144 CURVE SMOOTH",
"384 -180 OFFCURVE",
"442 -199 OFFCURVE",
"529 -199 CURVE SMOOTH",
"552 -199 OFFCURVE",
"582 -193 OFFCURVE",
"621 -184 CURVE SMOOTH",
"633 -181 OFFCURVE",
"639 -175 OFFCURVE",
"639 -165 CURVE SMOOTH",
"639 -164 OFFCURVE",
"639 -161 OFFCURVE",
"639 -159 CURVE SMOOTH",
"625 -103 LINE SMOOTH",
"623 -94 OFFCURVE",
"618 -90 OFFCURVE",
"608 -90 CURVE SMOOTH",
"605 -90 OFFCURVE",
"601 -91 OFFCURVE",
"597 -92 CURVE SMOOTH",
"579 -96 OFFCURVE",
"562 -99 OFFCURVE",
"545 -99 CURVE SMOOTH",
"473 -99 OFFCURVE",
"455 -71 OFFCURVE",
"449 -11 CURVE",
"619 17 OFFCURVE",
"712 155 OFFCURVE",
"712 350 CURVE SMOOTH",
"712 573 OFFCURVE",
"592 717 OFFCURVE",
"377 717 CURVE SMOOTH",
"162 717 OFFCURVE",
"42 573 OFFCURVE",
"42 350 CURVE SMOOTH"
);
},
{
closed = 1;
nodes = (
"194 513 OFFCURVE",
"250 602 OFFCURVE",
"377 602 CURVE SMOOTH",
"504 602 OFFCURVE",
"560 513 OFFCURVE",
"560 350 CURVE SMOOTH",
"560 188 OFFCURVE",
"504 99 OFFCURVE",
"377 99 CURVE SMOOTH",
"250 99 OFFCURVE",
"194 188 OFFCURVE",
"194 350 CURVE SMOOTH"
);
}
);
width = 754;
}
);
unicode = 0051;
},
{
glyphname = R;
layers = (
{
layerId = UUID0;
paths = (
{
closed = 1;
nodes = (
"152 0 LINE SMOOTH",
"168 0 OFFCURVE",
"177 9 OFFCURVE",
"177 27 CURVE SMOOTH",
"177 303 LINE",
"262 303 LINE SMOOTH",
"343 303 OFFCURVE",
"398 242 OFFCURVE",
"427 193 CURVE SMOOTH",
"528 19 LINE SMOOTH",
"536 6 OFFCURVE",
"547 0 OFFCURVE",
"563 0 CURVE SMOOTH",
"618 0 LINE SMOOTH",
"629 0 OFFCURVE",
"635 4 OFFCURVE",
"635 11 CURVE SMOOTH",
"635 17 OFFCURVE",
"632 23 OFFCURVE",
"627 32 CURVE SMOOTH",
"517 211 LINE SMOOTH",
"487 259 OFFCURVE",
"484 269 OFFCURVE",
"415 320 CURVE",
"415 321 LINE",
"541 332 OFFCURVE",
"611 408 OFFCURVE",
"611 508 CURVE SMOOTH",
"611 621 OFFCURVE",
"534 700 OFFCURVE",
"343 700 CURVE SMOOTH",
"107 700 LINE SMOOTH",
"91 700 OFFCURVE",
"83 691 OFFCURVE",
"83 673 CURVE SMOOTH",
"83 27 LINE SMOOTH",
"83 9 OFFCURVE",
"91 0 OFFCURVE",
"107 0 CURVE SMOOTH"
);
},
{
closed = 1;
nodes = (
"177 620 LINE",
"341 620 LINE SMOOTH",
"446 620 OFFCURVE",
"516 598 OFFCURVE",
"516 514 CURVE SMOOTH",
"516 405 OFFCURVE",
"443 383 OFFCURVE",
"318 383 CURVE SMOOTH",
"177 383 LINE"
);
}
);
width = 681;
},
{
layerId = "39B5C782-31E0-4FF6-90B4-6BA13107E116";
paths = (
{
closed = 1;
nodes = (
"187 0 LINE SMOOTH",
"209 0 OFFCURVE",
"221 12 OFFCURVE",
"221 37 CURVE SMOOTH",
"221 283 LINE",
"257 283 LINE SMOOTH",
"312 283 OFFCURVE",
"381 226 OFFCURVE",
"400 193 CURVE SMOOTH",
"499 29 LINE SMOOTH",
"510 10 OFFCURVE",
"525 0 OFFCURVE",
"543 0 CURVE SMOOTH",
"628 0 LINE SMOOTH",
"647 0 OFFCURVE",
"656 5 OFFCURVE",
"656 17 CURVE",
"657 23 OFFCURVE",
"653 31 OFFCURVE",
"646 42 CURVE",
"539 211 LINE SMOOTH",
"520 242 OFFCURVE",
"492 291 OFFCURVE",
"429 315 CURVE",
"429 316 LINE",
"542 336 OFFCURVE",
"628 396 OFFCURVE",
"628 502 CURVE SMOOTH",
"628 643 OFFCURVE",
"539 700 OFFCURVE",
"338 700 CURVE SMOOTH",
"112 700 LINE SMOOTH",
"89 700 OFFCURVE",
"78 688 OFFCURVE",
"78 664 CURVE SMOOTH",
"78 37 LINE SMOOTH",
"78 12 OFFCURVE",
"89 0 OFFCURVE",
"112 0 CURVE SMOOTH"
);
},
{
closed = 1;
nodes = (
"221 581 LINE",
"332 581 LINE SMOOTH",
"433 581 OFFCURVE",
"488 567 OFFCURVE",
"488 497 CURVE SMOOTH",
"488 433 OFFCURVE",
"440 404 OFFCURVE",
"308 404 CURVE SMOOTH",
"221 404 LINE"
);
}
);
width = 697;
}
);
unicode = 0052;
},
{
glyphname = S;
layers = (
{
layerId = UUID0;
paths = (
{
closed = 1;
nodes = (
"106 18 OFFCURVE",
"184 -15 OFFCURVE",
"302 -15 CURVE SMOOTH",
"401 -15 OFFCURVE",
"461 5 OFFCURVE",
"509 68 CURVE SMOOTH",
"533 99 OFFCURVE",
"545 137 OFFCURVE",
"545 184 CURVE SMOOTH",
"545 292 OFFCURVE",
"484 359 OFFCURVE",
"325 402 CURVE SMOOTH",
"282 414 OFFCURVE",
"250 425 OFFCURVE",
"230 434 CURVE SMOOTH",
"178 456 OFFCURVE",
"167 496 OFFCURVE",
"167 535 CURVE SMOOTH",
"167 605 OFFCURVE",
"220 638 OFFCURVE",
"306 638 CURVE SMOOTH",
"351 638 OFFCURVE",
"405 612 OFFCURVE",
"438 590 CURVE SMOOTH",
"450 581 OFFCURVE",
"461 577 OFFCURVE",
"469 576 CURVE SMOOTH",
"474 576 OFFCURVE",
"479 579 OFFCURVE",
"481 583 CURVE SMOOTH",
"506 619 LINE SMOOTH",
"510 623 OFFCURVE",
"511 628 OFFCURVE",
"511 632 CURVE SMOOTH",
"511 641 OFFCURVE",
"506 649 OFFCURVE",
"495 657 CURVE SMOOTH",
"446 691 OFFCURVE",
"387 715 OFFCURVE",
"305 715 CURVE SMOOTH",
"206 715 OFFCURVE",
"73 677 OFFCURVE",
"73 534 CURVE SMOOTH",
"73 428 OFFCURVE",
"110 366 OFFCURVE",
"290 311 CURVE SMOOTH",
"330 298 OFFCURVE",
"359 288 OFFCURVE",
"379 279 CURVE SMOOTH",
"417 261 OFFCURVE",
"446 230 OFFCURVE",
"446 172 CURVE",
"444 103 OFFCURVE",
"390 62 OFFCURVE",
"305 62 CURVE SMOOTH",
"224 62 OFFCURVE",
"176 88 OFFCURVE",
"123 127 CURVE SMOOTH",
"112 135 OFFCURVE",
"104 139 OFFCURVE",
"96 139 CURVE SMOOTH",
"90 139 OFFCURVE",
"84 136 OFFCURVE",
"81 130 CURVE SMOOTH",
"55 94 LINE SMOOTH",
"52 90 OFFCURVE",
"51 86 OFFCURVE",
"51 82 CURVE SMOOTH",
"51 73 OFFCURVE",
"57 63 OFFCURVE",
"69 53 CURVE SMOOTH"
);
}
);
width = 598;
},
{
layerId = "39B5C782-31E0-4FF6-90B4-6BA13107E116";
paths = (
{
closed = 1;
nodes = (
"136 3 OFFCURVE",
"195 -17 OFFCURVE",
"310 -17 CURVE SMOOTH",
"386 -17 OFFCURVE",
"473 -4 OFFCURVE",
"539 64 CURVE SMOOTH",
"572 98 OFFCURVE",
"589 141 OFFCURVE",
"589 193 CURVE SMOOTH",
"589 366 OFFCURVE",
"470 386 OFFCURVE",
"284 447 CURVE SMOOTH",
"252 457 OFFCURVE",
"206 475 OFFCURVE",
"206 527 CURVE SMOOTH",
"206 589 OFFCURVE",
"270 602 OFFCURVE",
"320 602 CURVE SMOOTH",
"398 602 OFFCURVE",
"462 541 OFFCURVE",
"485 541 CURVE SMOOTH",
"495 541 OFFCURVE",
"503 545 OFFCURVE",
"511 555 CURVE SMOOTH",
"550 608 LINE SMOOTH",
"554 613 OFFCURVE",
"556 618 OFFCURVE",
"556 623 CURVE SMOOTH",
"556 667 OFFCURVE",
"428 717 OFFCURVE",
"324 717 CURVE SMOOTH",
"247 717 OFFCURVE",
"166 706 OFFCURVE",
"107 641 CURVE SMOOTH",
"78 609 OFFCURVE",
"63 570 OFFCURVE",
"63 525 CURVE SMOOTH",
"63 448 OFFCURVE",
"89 408 OFFCURVE",
"134 372 CURVE SMOOTH",
"261 270 OFFCURVE",
"443 310 OFFCURVE",
"443 190 CURVE SMOOTH",
"443 126 OFFCURVE",
"394 99 OFFCURVE",
"313 99 CURVE SMOOTH",
"248 99 OFFCURVE",
"183 133 OFFCURVE",
"148 158 CURVE SMOOTH",
"137 166 OFFCURVE",
"126 170 OFFCURVE",
"118 170 CURVE SMOOTH",
"108 170 OFFCURVE",
"100 165 OFFCURVE",
"94 155 CURVE SMOOTH",
"56 99 LINE SMOOTH",
"53 93 OFFCURVE",
"51 88 OFFCURVE",
"51 83 CURVE SMOOTH",
"51 72 OFFCURVE",
"58 62 OFFCURVE",
"71 52 CURVE SMOOTH"
);
}
);
width = 639;
}
);
unicode = 0053;
},
{
glyphname = Germandbls;
layers = (
{
layerId = UUID0;
paths = (
{
closed = 1;
nodes = (
"152 0 LINE SMOOTH",
"168 0 OFFCURVE",
"177 9 OFFCURVE",
"177 27 CURVE SMOOTH",
"177 465 LINE SMOOTH",
"177 591 OFFCURVE",
"254 639 OFFCURVE",
"342 639 CURVE SMOOTH",
"391 639 OFFCURVE",
"417 633 OFFCURVE",
"450 600 CURVE",
"450 598 LINE",
"296 398 LINE SMOOTH",
"290 391 OFFCURVE",
"288 384 OFFCURVE",
"288 376 CURVE SMOOTH",
"288 372 OFFCURVE",
"288 368 OFFCURVE",
"290 364 CURVE SMOOTH",
"301 340 LINE SMOOTH",
"305 330 OFFCURVE",
"313 324 OFFCURVE",
"326 324 CURVE SMOOTH",
"414 320 OFFCURVE",
"484 288 OFFCURVE",
"484 191 CURVE SMOOTH",
"484 104 OFFCURVE",
"445 62 OFFCURVE",
"378 62 CURVE SMOOTH",
"319 62 OFFCURVE",
"295 89 OFFCURVE",
"281 89 CURVE SMOOTH",
"274 89 OFFCURVE",
"268 85 OFFCURVE",
"264 78 CURVE SMOOTH",
"243 43 LINE SMOOTH",
"241 39 OFFCURVE",
"239 35 OFFCURVE",
"239 31 CURVE SMOOTH",
"239 10 OFFCURVE",
"290 -6 OFFCURVE",
"311 -10 CURVE SMOOTH",
"329 -13 OFFCURVE",
"353 -15 OFFCURVE",
"383 -15 CURVE SMOOTH",
"514 -15 OFFCURVE",
"584 69 OFFCURVE",
"584 184 CURVE SMOOTH",
"584 289 OFFCURVE",
"529 368 OFFCURVE",
"403 390 CURVE",
"403 392 LINE",
"542 574 LINE SMOOTH",
"547 581 OFFCURVE",
"550 591 OFFCURVE",
"550 606 CURVE SMOOTH",
"550 627 OFFCURVE",
"529 655 OFFCURVE",
"473 687 CURVE SMOOTH",
"439 705 OFFCURVE",
"399 715 OFFCURVE",
"352 715 CURVE SMOOTH",
"271 715 OFFCURVE",
"207 694 OFFCURVE",
"157 652 CURVE SMOOTH",
"108 610 OFFCURVE",
"83 537 OFFCURVE",
"83 434 CURVE SMOOTH",
"83 27 LINE SMOOTH",
"83 9 OFFCURVE",
"91 0 OFFCURVE",
"107 0 CURVE SMOOTH"
);
}
);
width = 638;
},
{
layerId = "39B5C782-31E0-4FF6-90B4-6BA13107E116";
paths = (
{
closed = 1;
nodes = (
"187 0 LINE SMOOTH",
"209 0 OFFCURVE",
"221 12 OFFCURVE",
"221 37 CURVE SMOOTH",
"221 426 LINE SMOOTH",
"221 497 OFFCURVE",
"237 543 OFFCURVE",
"271 566 CURVE SMOOTH",
"305 590 OFFCURVE",
"341 602 OFFCURVE",
"381 602 CURVE SMOOTH",
"404 602 OFFCURVE",
"425 588 OFFCURVE",
"436 568 CURVE",
"436 566 LINE",
"326 401 LINE SMOOTH",
"320 393 OFFCURVE",
"317 384 OFFCURVE",
"317 375 CURVE SMOOTH",
"317 369 OFFCURVE",
"319 363 OFFCURVE",
"322 357 CURVE SMOOTH",
"333 336 LINE SMOOTH",
"339 323 OFFCURVE",
"350 315 OFFCURVE",
"366 314 CURVE SMOOTH",
"461 305 OFFCURVE",
"489 255 OFFCURVE",
"489 191 CURVE SMOOTH",
"489 121 OFFCURVE",
"449 99 OFFCURVE",
"408 99 CURVE SMOOTH",
"348 99 OFFCURVE",
"330 127 OFFCURVE",
"313 127 CURVE SMOOTH",
"306 127 OFFCURVE",
"301 123 OFFCURVE",
"298 115 CURVE SMOOTH",
"271 43 LINE SMOOTH",
"270 39 OFFCURVE",
"269 35 OFFCURVE",
"269 31 CURVE SMOOTH",
"269 23 OFFCURVE",
"273 17 OFFCURVE",
"282 12 CURVE SMOOTH",
"322 -10 OFFCURVE",
"365 -17 OFFCURVE",
"417 -17 CURVE SMOOTH",
"542 -17 OFFCURVE",
"637 60 OFFCURVE",
"637 193 CURVE SMOOTH",
"637 283 OFFCURVE",
"598 365 OFFCURVE",
"479 396 CURVE",
"479 397 LINE",
"590 561 LINE SMOOTH",
"598 573 OFFCURVE",
"602 585 OFFCURVE",
"602 598 CURVE SMOOTH",
"602 642 OFFCURVE",
"515 717 OFFCURVE",
"386 717 CURVE SMOOTH",
"298 717 OFFCURVE",
"225 693 OFFCURVE",
"166 645 CURVE SMOOTH",
"107 597 OFFCURVE",
"78 514 OFFCURVE",
"78 395 CURVE SMOOTH",
"78 37 LINE SMOOTH",
"78 12 OFFCURVE",
"89 0 OFFCURVE",
"112 0 CURVE SMOOTH"
);
}
);
width = 688;
}
);
unicode = 1E9E;
},
{
glyphname = T;
layers = (
{
layerId = UUID0;
paths = (
{
closed = 1;
nodes = (
"256 616 LINE",
"256 27 LINE SMOOTH",
"256 9 OFFCURVE",
"264 0 OFFCURVE",
"280 0 CURVE SMOOTH",
"325 0 LINE SMOOTH",
"341 0 OFFCURVE",
"350 9 OFFCURVE",
"350 27 CURVE SMOOTH",
"350 616 LINE",
"561 616 LINE SMOOTH",
"579 616 OFFCURVE",
"588 624 OFFCURVE",
"588 638 CURVE SMOOTH",
"588 678 LINE SMOOTH",
"588 693 OFFCURVE",
"579 700 OFFCURVE",
"561 700 CURVE SMOOTH",
"44 700 LINE SMOOTH",
"26 700 OFFCURVE",
"18 693 OFFCURVE",
"18 678 CURVE SMOOTH",
"18 638 LINE SMOOTH",
"18 624 OFFCURVE",
"26 616 OFFCURVE",
"44 616 CURVE SMOOTH"
);
}
);
width = 605;
},
{
layerId = "39B5C782-31E0-4FF6-90B4-6BA13107E116";
paths = (
{
closed = 1;
nodes = (
"233 575 LINE",
"233 27 LINE SMOOTH",
"233 9 OFFCURVE",
"241 0 OFFCURVE",
"257 0 CURVE SMOOTH",
"351 0 LINE SMOOTH",
"367 0 OFFCURVE",
"375 9 OFFCURVE",
"375 27 CURVE SMOOTH",
"375 575 LINE",
"555 575 LINE SMOOTH",
"580 575 OFFCURVE",
"592 586 OFFCURVE",
"592 607 CURVE SMOOTH",
"592 668 LINE SMOOTH",
"592 689 OFFCURVE",
"580 700 OFFCURVE",
"555 700 CURVE SMOOTH",
"53 700 LINE SMOOTH",
"29 700 OFFCURVE",
"17 689 OFFCURVE",
"17 668 CURVE SMOOTH",
"17 607 LINE SMOOTH",
"17 586 OFFCURVE",
"29 575 OFFCURVE",
"53 575 CURVE SMOOTH"
);
}
);
width = 608;
}
);
unicode = 0054;
},
{
glyphname = U;
layers = (
{
layerId = UUID0;
paths = (
{
closed = 1;
nodes = (
"83 267 LINE SMOOTH",
"83 164 OFFCURVE",
"106 91 OFFCURVE",
"154 49 CURVE SMOOTH",
"201 6 OFFCURVE",
"264 -15 OFFCURVE",
"342 -15 CURVE SMOOTH",
"420 -15 OFFCURVE",
"483 6 OFFCURVE",
"530 49 CURVE SMOOTH",
"578 91 OFFCURVE",
"602 164 OFFCURVE",
"602 267 CURVE SMOOTH",
"602 673 LINE SMOOTH",
"602 691 OFFCURVE",
"593 700 OFFCURVE",
"577 700 CURVE SMOOTH",
"532 700 LINE SMOOTH",
"516 700 OFFCURVE",
"508 691 OFFCURVE",
"508 673 CURVE SMOOTH",
"508 282 LINE SMOOTH",
"508 190 OFFCURVE",
"495 131 OFFCURVE",
"469 103 CURVE SMOOTH",
"443 75 OFFCURVE",
"401 62 OFFCURVE",
"342 62 CURVE SMOOTH",
"284 62 OFFCURVE",
"241 75 OFFCURVE",
"215 103 CURVE SMOOTH",
"189 131 OFFCURVE",
"177 190 OFFCURVE",
"177 282 CURVE SMOOTH",
"177 673 LINE SMOOTH",
"177 691 OFFCURVE",
"168 700 OFFCURVE",
"152 700 CURVE SMOOTH",
"107 700 LINE SMOOTH",
"91 700 OFFCURVE",
"83 691 OFFCURVE",
"83 673 CURVE SMOOTH"
);
}
);
width = 685;
},
{
layerId = "39B5C782-31E0-4FF6-90B4-6BA13107E116";
paths = (
{
closed = 1;
nodes = (
"78 292 LINE SMOOTH",
"78 178 OFFCURVE",
"102 97 OFFCURVE",
"150 52 CURVE SMOOTH",
"198 6 OFFCURVE",
"264 -17 OFFCURVE",
"347 -17 CURVE SMOOTH",
"430 -17 OFFCURVE",
"496 6 OFFCURVE",
"544 52 CURVE SMOOTH",
"592 98 OFFCURVE",
"616 178 OFFCURVE",
"616 292 CURVE SMOOTH",
"616 673 LINE SMOOTH",
"616 691 OFFCURVE",
"605 700 OFFCURVE",
"582 700 CURVE SMOOTH",
"508 700 LINE SMOOTH",
"485 700 OFFCURVE",
"474 691 OFFCURVE",
"474 673 CURVE SMOOTH",
"474 296 LINE SMOOTH",
"474 208 OFFCURVE",
"460 153 OFFCURVE",
"435 131 CURVE SMOOTH",
"409 109 OFFCURVE",
"380 99 OFFCURVE",
"347 99 CURVE SMOOTH",
"314 99 OFFCURVE",
"285 109 OFFCURVE",
"259 131 CURVE SMOOTH",
"233 153 OFFCURVE",
"221 208 OFFCURVE",
"221 296 CURVE SMOOTH",
"221 673 LINE SMOOTH",
"221 691 OFFCURVE",
"209 700 OFFCURVE",
"187 700 CURVE SMOOTH",
"112 700 LINE SMOOTH",
"89 700 OFFCURVE",
"78 691 OFFCURVE",
"78 673 CURVE SMOOTH"
);
}
);
width = 694;
}
);
unicode = 0055;
},
{
glyphname = Ubar;
layers = (
{
layerId = UUID0;
paths = (
{
closed = 1;
nodes = (
"125 314 LINE",
"125 267 LINE SMOOTH",
"125 164 OFFCURVE",
"148 91 OFFCURVE",
"195 49 CURVE SMOOTH",
"243 6 OFFCURVE",
"306 -15 OFFCURVE",
"384 -15 CURVE SMOOTH",
"462 -15 OFFCURVE",
"524 6 OFFCURVE",
"572 49 CURVE SMOOTH",
"619 91 OFFCURVE",
"643 164 OFFCURVE",
"643 267 CURVE SMOOTH",
"643 314 LINE",
"716 314 LINE SMOOTH",
"734 314 OFFCURVE",
"743 322 OFFCURVE",
"743 336 CURVE SMOOTH",
"743 373 LINE SMOOTH",
"743 387 OFFCURVE",
"734 395 OFFCURVE",
"716 395 CURVE SMOOTH",
"643 395 LINE",
"643 673 LINE SMOOTH",
"643 691 OFFCURVE",
"635 700 OFFCURVE",
"619 700 CURVE SMOOTH",
"574 700 LINE SMOOTH",
"558 700 OFFCURVE",
"549 691 OFFCURVE",
"549 673 CURVE SMOOTH",
"549 395 LINE",
"218 395 LINE",
"218 673 LINE SMOOTH",
"218 691 OFFCURVE",
"210 700 OFFCURVE",
"194 700 CURVE SMOOTH",
"149 700 LINE SMOOTH",
"133 700 OFFCURVE",
"125 691 OFFCURVE",
"125 673 CURVE SMOOTH",
"125 395 LINE",
"51 395 LINE SMOOTH",
"33 395 OFFCURVE",
"24 387 OFFCURVE",
"24 373 CURVE SMOOTH",
"24 336 LINE SMOOTH",
"24 322 OFFCURVE",
"33 314 OFFCURVE",
"51 314 CURVE SMOOTH"
);
},
{
closed = 1;
nodes = (
"218 314 LINE",
"549 314 LINE",
"549 282 LINE SMOOTH",
"549 190 OFFCURVE",
"536 131 OFFCURVE",
"510 103 CURVE SMOOTH",
"484 75 OFFCURVE",
"442 62 OFFCURVE",
"384 62 CURVE SMOOTH",
"325 62 OFFCURVE",
"283 75 OFFCURVE",
"257 103 CURVE SMOOTH",
"231 131 OFFCURVE",
"218 190 OFFCURVE",
"218 282 CURVE SMOOTH"
);
}
);
width = 768;
},
{
layerId = "39B5C782-31E0-4FF6-90B4-6BA13107E116";
paths = (
{
closed = 1;
nodes = (
"267 304 LINE",
"520 304 LINE",
"520 296 LINE SMOOTH",
"520 208 OFFCURVE",
"506 153 OFFCURVE",
"480 131 CURVE SMOOTH",
"455 109 OFFCURVE",
"426 99 OFFCURVE",
"393 99 CURVE SMOOTH",
"360 99 OFFCURVE",
"331 109 OFFCURVE",
"305 131 CURVE SMOOTH",
"279 153 OFFCURVE",
"267 208 OFFCURVE",
"267 296 CURVE SMOOTH"
);
},
{
closed = 1;
nodes = (
"124 304 LINE",
"124 292 LINE SMOOTH",
"124 178 OFFCURVE",
"148 97 OFFCURVE",
"196 52 CURVE SMOOTH",
"244 6 OFFCURVE",
"310 -17 OFFCURVE",
"393 -17 CURVE SMOOTH",
"476 -17 OFFCURVE",
"542 6 OFFCURVE",
"590 52 CURVE SMOOTH",
"638 98 OFFCURVE",
"662 178 OFFCURVE",
"662 292 CURVE SMOOTH",
"662 304 LINE",
"727 304 LINE SMOOTH",
"751 304 OFFCURVE",
"764 314 OFFCURVE",
"764 335 CURVE SMOOTH",
"764 393 LINE SMOOTH",
"764 414 OFFCURVE",
"751 425 OFFCURVE",
"727 425 CURVE SMOOTH",
"662 425 LINE",
"662 673 LINE SMOOTH",
"662 691 OFFCURVE",
"651 700 OFFCURVE",
"628 700 CURVE SMOOTH",
"554 700 LINE SMOOTH",
"531 700 OFFCURVE",
"520 691 OFFCURVE",
"520 673 CURVE SMOOTH",
"520 425 LINE",
"267 425 LINE",
"267 673 LINE SMOOTH",
"267 691 OFFCURVE",
"255 700 OFFCURVE",
"232 700 CURVE SMOOTH",
"158 700 LINE SMOOTH",
"135 700 OFFCURVE",
"124 691 OFFCURVE",
"124 673 CURVE SMOOTH",
"124 425 LINE",
"59 425 LINE SMOOTH",
"35 425 OFFCURVE",
"22 414 OFFCURVE",
"22 393 CURVE SMOOTH",
"22 335 LINE SMOOTH",
"22 314 OFFCURVE",
"35 304 OFFCURVE",
"59 304 CURVE SMOOTH"
);
}
);
width = 786;
}
);
unicode = 0244;
},
{
glyphname = V;
layers = (
{
layerId = UUID0;
paths = (
{
closed = 1;
nodes = (
"260 30 LINE SMOOTH",
"268 10 OFFCURVE",
"278 0 OFFCURVE",
"292 0 CURVE SMOOTH",
"361 0 LINE SMOOTH",
"375 0 OFFCURVE",
"386 10 OFFCURVE",
"393 30 CURVE SMOOTH",
"631 668 LINE SMOOTH",
"633 675 OFFCURVE",
"635 681 OFFCURVE",
"635 686 CURVE SMOOTH",
"635 695 OFFCURVE",
"629 700 OFFCURVE",
"618 700 CURVE SMOOTH",
"568 700 LINE SMOOTH",
"550 700 OFFCURVE",
"539 692 OFFCURVE",
"533 676 CURVE SMOOTH",
"374 239 LINE SMOOTH",
"362 206 OFFCURVE",
"334 119 OFFCURVE",
"328 84 CURVE",
"326 84 LINE",
"319 118 OFFCURVE",
"291 207 OFFCURVE",
"279 239 CURVE SMOOTH",
"121 676 LINE SMOOTH",
"115 692 OFFCURVE",
"103 700 OFFCURVE",
"85 700 CURVE SMOOTH",
"36 700 LINE SMOOTH",
"24 700 OFFCURVE",
"19 695 OFFCURVE",
"19 686 CURVE SMOOTH",
"19 681 OFFCURVE",
"20 675 OFFCURVE",
"22 668 CURVE"
);
}
);
width = 653;
},
{
layerId = "39B5C782-31E0-4FF6-90B4-6BA13107E116";
paths = (
{
closed = 1;
nodes = (
"254 40 LINE SMOOTH",
"264 13 OFFCURVE",
"279 0 OFFCURVE",
"300 0 CURVE SMOOTH",
"369 0 LINE SMOOTH",
"390 0 OFFCURVE",
"405 13 OFFCURVE",
"415 40 CURVE SMOOTH",
"648 668 LINE SMOOTH",
"650 673 OFFCURVE",
"651 678 OFFCURVE",
"651 683 CURVE SMOOTH",
"651 694 OFFCURVE",
"642 700 OFFCURVE",
"625 700 CURVE SMOOTH",
"547 700 LINE SMOOTH",
"525 700 OFFCURVE",
"511 689 OFFCURVE",
"502 667 CURVE SMOOTH",
"353 259 LINE",
"337 214 OFFCURVE",
"339 219 OFFCURVE",
"335 182 CURVE",
"333 182 LINE",
"330 219 OFFCURVE",
"331 214 OFFCURVE",
"316 259 CURVE",
"167 667 LINE SMOOTH",
"158 689 OFFCURVE",
"144 700 OFFCURVE",
"122 700 CURVE SMOOTH",
"44 700 LINE SMOOTH",
"26 700 OFFCURVE",
"18 694 OFFCURVE",
"18 683 CURVE SMOOTH",
"18 678 OFFCURVE",
"19 673 OFFCURVE",
"21 668 CURVE"
);
}
);
width = 669;
}
);
unicode = 0056;
},
{
glyphname = Vhook;
layers = (
{
layerId = UUID0;
paths = (
{
closed = 1;
nodes = (
"83 267 LINE SMOOTH",
"83 58 OFFCURVE",
"184 -15 OFFCURVE",
"335 -15 CURVE SMOOTH",
"436 -15 OFFCURVE",
"506 19 OFFCURVE",
"548 86 CURVE SMOOTH",
"589 154 OFFCURVE",
"610 247 OFFCURVE",
"610 366 CURVE SMOOTH",
"610 481 OFFCURVE",
"563 605 OFFCURVE",
"479 699 CURVE SMOOTH",
"471 708 OFFCURVE",
"462 713 OFFCURVE",
"455 713 CURVE SMOOTH",
"449 713 OFFCURVE",
"444 710 OFFCURVE",
"438 706 CURVE SMOOTH",
"399 672 LINE SMOOTH",
"393 667 OFFCURVE",
"390 661 OFFCURVE",
"390 655 CURVE SMOOTH",
"390 648 OFFCURVE",
"394 640 OFFCURVE",
"402 632 CURVE SMOOTH",
"455 581 OFFCURVE",
"510 488 OFFCURVE",
"510 345 CURVE SMOOTH",
"510 152 OFFCURVE",
"450 62 OFFCURVE",
"338 62 CURVE SMOOTH",
"288 62 OFFCURVE",
"248 75 OFFCURVE",
"219 103 CURVE SMOOTH",
"191 131 OFFCURVE",
"177 190 OFFCURVE",
"177 282 CURVE SMOOTH",
"177 673 LINE SMOOTH",
"177 691 OFFCURVE",
"168 700 OFFCURVE",
"152 700 CURVE SMOOTH",
"107 700 LINE SMOOTH",
"91 700 OFFCURVE",
"83 691 OFFCURVE",
"83 673 CURVE SMOOTH"
);
}
);
width = 655;
},
{
layerId = "39B5C782-31E0-4FF6-90B4-6BA13107E116";
paths = (
{
closed = 1;
nodes = (
"78 292 LINE SMOOTH",
"78 61 OFFCURVE",
"173 -17 OFFCURVE",
"350 -17 CURVE SMOOTH",
"458 -17 OFFCURVE",
"531 18 OFFCURVE",
"571 87 CURVE SMOOTH",
"610 157 OFFCURVE",
"630 249 OFFCURVE",
"630 363 CURVE SMOOTH",
"630 478 OFFCURVE",
"598 585 OFFCURVE",
"509 687 CURVE SMOOTH",
"496 702 OFFCURVE",
"483 710 OFFCURVE",
"471 710 CURVE SMOOTH",
"464 710 OFFCURVE",
"457 708 OFFCURVE",
"451 703 CURVE SMOOTH",
"386 651 LINE SMOOTH",
"375 643 OFFCURVE",
"370 635 OFFCURVE",
"370 625 CURVE SMOOTH",
"370 616 OFFCURVE",
"375 607 OFFCURVE",
"384 597 CURVE SMOOTH",
"446 526 OFFCURVE",
"478 440 OFFCURVE",
"478 341 CURVE SMOOTH",
"478 169 OFFCURVE",
"445 99 OFFCURVE",
"351 99 CURVE SMOOTH",
"320 99 OFFCURVE",
"290 109 OFFCURVE",
"262 131 CURVE SMOOTH",
"234 153 OFFCURVE",
"221 208 OFFCURVE",
"221 296 CURVE SMOOTH",
"221 673 LINE SMOOTH",
"221 691 OFFCURVE",
"209 700 OFFCURVE",
"187 700 CURVE SMOOTH",
"112 700 LINE SMOOTH",
"89 700 OFFCURVE",
"78 691 OFFCURVE",
"78 673 CURVE SMOOTH"
);
}
);
width = 672;
}
);
unicode = 01B2;
},
{
glyphname = Vturned;
layers = (
{
layerId = UUID0;
paths = (
{
closed = 1;
nodes = (
"85 0 LINE SMOOTH",
"103 0 OFFCURVE",
"115 8 OFFCURVE",
"121 24 CURVE SMOOTH",
"279 461 LINE SMOOTH",
"292 495 OFFCURVE",
"320 583 OFFCURVE",
"326 616 CURVE",
"328 616 LINE",
"333 583 OFFCURVE",
"362 495 OFFCURVE",
"374 461 CURVE SMOOTH",
"533 24 LINE SMOOTH",
"539 8 OFFCURVE",
"550 0 OFFCURVE",
"568 0 CURVE SMOOTH",
"618 0 LINE SMOOTH",
"629 0 OFFCURVE",
"635 5 OFFCURVE",
"635 15 CURVE SMOOTH",
"635 20 OFFCURVE",
"633 25 OFFCURVE",
"631 32 CURVE SMOOTH",
"393 670 LINE SMOOTH",
"386 690 OFFCURVE",
"375 700 OFFCURVE",
"361 700 CURVE SMOOTH",
"292 700 LINE SMOOTH",
"278 700 OFFCURVE",
"268 690 OFFCURVE",
"260 670 CURVE SMOOTH",
"22 32 LINE SMOOTH",
"20 25 OFFCURVE",
"19 20 OFFCURVE",
"19 15 CURVE SMOOTH",
"19 5 OFFCURVE",
"24 0 OFFCURVE",
"36 0 CURVE SMOOTH"
);
}
);
width = 653;
},
{
layerId = "39B5C782-31E0-4FF6-90B4-6BA13107E116";
paths = (
{
closed = 1;
nodes = (
"122 0 LINE SMOOTH",
"144 0 OFFCURVE",
"158 11 OFFCURVE",
"167 34 CURVE SMOOTH",
"316 441 LINE",
"332 488 OFFCURVE",
"330 482 OFFCURVE",
"333 518 CURVE",
"335 518 LINE",
"338 482 OFFCURVE",
"337 488 OFFCURVE",
"353 441 CURVE",
"502 34 LINE SMOOTH",
"511 11 OFFCURVE",
"525 0 OFFCURVE",
"547 0 CURVE SMOOTH",
"625 0 LINE SMOOTH",
"642 0 OFFCURVE",
"651 6 OFFCURVE",
"651 18 CURVE SMOOTH",
"651 22 OFFCURVE",
"650 26 OFFCURVE",
"648 32 CURVE SMOOTH",
"415 661 LINE SMOOTH",
"405 687 OFFCURVE",
"390 700 OFFCURVE",
"369 700 CURVE SMOOTH",
"300 700 LINE SMOOTH",
"279 700 OFFCURVE",
"264 687 OFFCURVE",
"254 661 CURVE SMOOTH",
"21 32 LINE SMOOTH",
"19 26 OFFCURVE",
"18 22 OFFCURVE",
"18 18 CURVE SMOOTH",
"18 6 OFFCURVE",
"26 0 OFFCURVE",
"44 0 CURVE SMOOTH"
);
}
);
width = 669;
}
);
unicode = 0245;
},
{
glyphname = W;
layers = (
{
layerId = UUID0;
paths = (
{
closed = 1;
nodes = (
"191 38 LINE SMOOTH",
"198 13 OFFCURVE",
"209 0 OFFCURVE",
"228 0 CURVE SMOOTH",
"289 0 LINE SMOOTH",
"305 0 OFFCURVE",
"316 14 OFFCURVE",
"323 41 CURVE SMOOTH",
"441 509 LINE SMOOTH",
"453 559 OFFCURVE",
"456 581 OFFCURVE",
"460 615 CURVE",
"461 615 LINE",
"466 581 OFFCURVE",
"468 559 OFFCURVE",
"481 509 CURVE SMOOTH",
"599 41 LINE SMOOTH",
"605 14 OFFCURVE",
"617 0 OFFCURVE",
"633 0 CURVE SMOOTH",
"694 0 LINE SMOOTH",
"712 0 OFFCURVE",
"724 13 OFFCURVE",
"730 38 CURVE SMOOTH",
"898 671 LINE SMOOTH",
"900 676 OFFCURVE",
"900 681 OFFCURVE",
"900 685 CURVE SMOOTH",
"900 695 OFFCURVE",
"896 700 OFFCURVE",
"886 700 CURVE SMOOTH",
"826 700 LINE SMOOTH",
"816 700 OFFCURVE",
"809 693 OFFCURVE",
"805 678 CURVE SMOOTH",
"696 208 LINE",
"687 171 OFFCURVE",
"674 124 OFFCURVE",
"666 84 CURVE",
"664 84 LINE",
"657 123 OFFCURVE",
"648 157 OFFCURVE",
"637 208 CURVE",
"526 674 LINE SMOOTH",
"521 691 OFFCURVE",
"511 700 OFFCURVE",
"495 700 CURVE SMOOTH",
"427 700 LINE SMOOTH",
"411 700 OFFCURVE",
"400 691 OFFCURVE",
"396 674 CURVE SMOOTH",
"285 208 LINE",
"273 157 OFFCURVE",
"265 123 OFFCURVE",
"258 84 CURVE",
"256 84 LINE",
"248 124 OFFCURVE",
"235 171 OFFCURVE",
"226 208 CURVE",
"117 678 LINE SMOOTH",
"113 693 OFFCURVE",
"106 700 OFFCURVE",
"96 700 CURVE SMOOTH",
"36 700 LINE SMOOTH",
"26 700 OFFCURVE",
"21 695 OFFCURVE",
"21 685 CURVE SMOOTH",
"21 681 OFFCURVE",
"22 676 OFFCURVE",
"23 671 CURVE SMOOTH"
);
}
);
width = 922;
},
{
layerId = "39B5C782-31E0-4FF6-90B4-6BA13107E116";
paths = (
{
closed = 1;
nodes = (
"188 47 LINE SMOOTH",
"196 16 OFFCURVE",
"211 0 OFFCURVE",
"234 0 CURVE SMOOTH",
"319 0 LINE SMOOTH",
"338 0 OFFCURVE",
"352 16 OFFCURVE",
"361 47 CURVE SMOOTH",
"478 456 LINE SMOOTH",
"492 506 OFFCURVE",
"490 496 OFFCURVE",
"493 537 CURVE",
"494 537 LINE",
"498 496 OFFCURVE",
"495 506 OFFCURVE",
"509 456 CURVE SMOOTH",
"626 47 LINE SMOOTH",
"635 16 OFFCURVE",
"649 0 OFFCURVE",
"668 0 CURVE SMOOTH",
"753 0 LINE SMOOTH",
"775 0 OFFCURVE",
"791 16 OFFCURVE",
"799 47 CURVE SMOOTH",
"965 661 LINE SMOOTH",
"967 667 OFFCURVE",
"968 673 OFFCURVE",
"968 678 CURVE",
"968 692 OFFCURVE",
"959 700 OFFCURVE",
"943 700 CURVE SMOOTH",
"853 700 LINE SMOOTH",
"837 700 OFFCURVE",
"827 689 OFFCURVE",
"822 668 CURVE SMOOTH",
"715 227 LINE",
"713 216 OFFCURVE",
"711 200 OFFCURVE",
"710 177 CURVE",
"708 177 LINE",
"705 228 OFFCURVE",
"705 229 OFFCURVE",
"688 287 CURVE SMOOTH",
"580 664 LINE SMOOTH",
"573 688 OFFCURVE",
"559 700 OFFCURVE",
"539 700 CURVE SMOOTH",
"449 700 LINE SMOOTH",
"428 700 OFFCURVE",
"415 688 OFFCURVE",
"408 664 CURVE SMOOTH",
"299 287 LINE SMOOTH",
"282 229 OFFCURVE",
"283 228 OFFCURVE",
"280 177 CURVE",
"277 177 LINE",
"274 228 OFFCURVE",
"273 224 OFFCURVE",
"258 284 CURVE SMOOTH",
"166 668 LINE SMOOTH",
"160 689 OFFCURVE",
"150 700 OFFCURVE",
"135 700 CURVE SMOOTH",
"44 700 LINE SMOOTH",
"28 700 OFFCURVE",
"19 692 OFFCURVE",
"19 678 CURVE SMOOTH",
"19 673 OFFCURVE",
"20 667 OFFCURVE",
"22 661 CURVE SMOOTH"
);
}
);
width = 987;
}
);
unicode = 0057;
},
{
glyphname = X;
layers = (
{
layerId = UUID0;
paths = (
{
closed = 1;
nodes = (
"98 0 LINE SMOOTH",
"112 0 OFFCURVE",
"124 6 OFFCURVE",
"132 19 CURVE SMOOTH",
"320 296 LINE",
"507 19 LINE SMOOTH",
"516 6 OFFCURVE",
"527 0 OFFCURVE",
"542 0 CURVE SMOOTH",
"602 0 LINE SMOOTH",
"614 0 OFFCURVE",
"620 3 OFFCURVE",
"620 11 CURVE SMOOTH",
"620 16 OFFCURVE",
"617 23 OFFCURVE",
"611 32 CURVE SMOOTH",
"376 361 LINE",
"594 668 LINE SMOOTH",
"601 677 OFFCURVE",
"604 684 OFFCURVE",
"604 689 CURVE SMOOTH",
"604 696 OFFCURVE",
"598 700 OFFCURVE",
"585 700 CURVE SMOOTH",
"525 700 LINE SMOOTH",
"511 700 OFFCURVE",
"500 694 OFFCURVE",
"491 681 CURVE SMOOTH",
"320 426 LINE",
"148 681 LINE SMOOTH",
"140 694 OFFCURVE",
"128 700 OFFCURVE",
"114 700 CURVE SMOOTH",
"54 700 LINE SMOOTH",
"42 700 OFFCURVE",
"36 696 OFFCURVE",
"36 689 CURVE SMOOTH",
"36 684 OFFCURVE",
"39 677 OFFCURVE",
"45 668 CURVE SMOOTH",
"263 361 LINE",
"29 32 LINE SMOOTH",
"22 23 OFFCURVE",
"19 16 OFFCURVE",
"19 11 CURVE SMOOTH",
"19 3 OFFCURVE",
"25 0 OFFCURVE",
"38 0 CURVE SMOOTH"
);
}
);
width = 640;
},
{
layerId = "39B5C782-31E0-4FF6-90B4-6BA13107E116";
paths = (
{
closed = 1;
nodes = (
"153 0 LINE SMOOTH",
"170 0 OFFCURVE",
"185 10 OFFCURVE",
"197 29 CURVE SMOOTH",
"346 262 LINE",
"496 29 LINE SMOOTH",
"508 10 OFFCURVE",
"522 0 OFFCURVE",
"540 0 CURVE SMOOTH",
"640 0 LINE SMOOTH",
"659 0 OFFCURVE",
"669 5 OFFCURVE",
"669 16 CURVE SMOOTH",
"669 23 OFFCURVE",
"666 31 OFFCURVE",
"658 42 CURVE SMOOTH",
"441 361 LINE",
"641 658 LINE SMOOTH",
"647 669 OFFCURVE",
"651 677 OFFCURVE",
"651 684 CURVE SMOOTH",
"651 695 OFFCURVE",
"642 700 OFFCURVE",
"622 700 CURVE SMOOTH",
"523 700 LINE SMOOTH",
"506 700 OFFCURVE",
"492 690 OFFCURVE",
"479 671 CURVE SMOOTH",
"346 460 LINE",
"213 671 LINE SMOOTH",
"201 690 OFFCURVE",
"186 700 OFFCURVE",
"169 700 CURVE SMOOTH",
"70 700 LINE SMOOTH",
"51 700 OFFCURVE",
"41 695 OFFCURVE",
"41 684 CURVE SMOOTH",
"41 677 OFFCURVE",
"44 669 OFFCURVE",
"52 658 CURVE SMOOTH",
"250 361 LINE",
"34 42 LINE SMOOTH",
"27 31 OFFCURVE",
"23 23 OFFCURVE",
"23 16 CURVE SMOOTH",
"23 5 OFFCURVE",
"33 0 OFFCURVE",
"53 0 CURVE SMOOTH"
);
}
);
width = 692;
}
);
unicode = 0058;
},
{
glyphname = Y;
layers = (
{
layerId = UUID0;
paths = (
{
closed = 1;
nodes = (
"271 288 LINE",
"271 27 LINE SMOOTH",
"271 9 OFFCURVE",
"279 0 OFFCURVE",
"295 0 CURVE SMOOTH",
"340 0 LINE SMOOTH",
"356 0 OFFCURVE",
"365 9 OFFCURVE",
"365 27 CURVE SMOOTH",
"365 288 LINE",
"609 668 LINE SMOOTH",
"615 676 OFFCURVE",
"617 683 OFFCURVE",
"617 688 CURVE SMOOTH",
"617 696 OFFCURVE",
"610 700 OFFCURVE",
"596 700 CURVE SMOOTH",
"542 700 LINE SMOOTH",
"527 700 OFFCURVE",
"516 692 OFFCURVE",
"506 676 CURVE SMOOTH",
"347 401 LINE SMOOTH",
"337 384 OFFCURVE",
"328 366 OFFCURVE",
"319 346 CURVE",
"317 346 LINE",
"308 366 OFFCURVE",
"298 384 OFFCURVE",
"289 401 CURVE SMOOTH",
"129 676 LINE SMOOTH",
"120 692 OFFCURVE",
"108 700 OFFCURVE",
"94 700 CURVE SMOOTH",
"40 700 LINE SMOOTH",
"25 700 OFFCURVE",
"18 696 OFFCURVE",
"18 688 CURVE SMOOTH",
"18 683 OFFCURVE",
"21 676 OFFCURVE",
"26 668 CURVE SMOOTH"
);
}
);
width = 636;
},
{
layerId = "39B5C782-31E0-4FF6-90B4-6BA13107E116";
paths = (
{
closed = 1;
nodes = (
"263 256 LINE",
"263 27 LINE SMOOTH",
"263 9 OFFCURVE",
"274 0 OFFCURVE",
"297 0 CURVE SMOOTH",
"371 0 LINE SMOOTH",
"394 0 OFFCURVE",
"405 9 OFFCURVE",
"405 27 CURVE SMOOTH",
"405 256 LINE",
"643 658 LINE SMOOTH",
"648 667 OFFCURVE",
"651 675 OFFCURVE",
"651 682 CURVE SMOOTH",
"651 694 OFFCURVE",
"641 700 OFFCURVE",
"620 700 CURVE SMOOTH",
"535 700 LINE SMOOTH",
"518 700 OFFCURVE",
"502 689 OFFCURVE",
"490 667 CURVE SMOOTH",
"386 485 LINE SMOOTH",
"382 479 OFFCURVE",
"339 411 OFFCURVE",
"335 365 CURVE",
"333 365 LINE",
"329 411 OFFCURVE",
"286 479 OFFCURVE",
"282 485 CURVE SMOOTH",
"178 667 LINE SMOOTH",
"165 689 OFFCURVE",
"150 700 OFFCURVE",
"133 700 CURVE SMOOTH",
"48 700 LINE SMOOTH",
"27 700 OFFCURVE",
"16 694 OFFCURVE",
"16 682 CURVE SMOOTH",
"16 675 OFFCURVE",
"19 667 OFFCURVE",
"25 658 CURVE SMOOTH"
);
}
);
width = 668;
}
);
unicode = 0059;
},
{
glyphname = Z;
layers = (
{
layerId = UUID0;
paths = (
{
closed = 1;
nodes = (
"535 0 LINE SMOOTH",
"553 0 OFFCURVE",
"562 7 OFFCURVE",
"562 22 CURVE SMOOTH",
"562 58 LINE SMOOTH",
"562 73 OFFCURVE",
"553 80 OFFCURVE",
"535 80 CURVE SMOOTH",
"192 80 LINE SMOOTH",
"175 80 OFFCURVE",
"162 80 OFFCURVE",
"153 79 CURVE",
"153 81 LINE",
"542 633 LINE SMOOTH",
"548 643 OFFCURVE",
"551 652 OFFCURVE",
"551 663 CURVE SMOOTH",
"551 678 LINE SMOOTH",
"551 693 OFFCURVE",
"542 700 OFFCURVE",
"524 700 CURVE SMOOTH",
"74 700 LINE SMOOTH",
"56 700 OFFCURVE",
"47 693 OFFCURVE",
"47 678 CURVE SMOOTH",
"47 642 LINE SMOOTH",
"47 627 OFFCURVE",
"56 620 OFFCURVE",
"74 620 CURVE SMOOTH",
"391 620 LINE SMOOTH",
"404 620 OFFCURVE",
"417 621 OFFCURVE",
"430 621 CURVE",
"430 619 LINE",
"46 89 LINE SMOOTH",
"37 76 OFFCURVE",
"32 61 OFFCURVE",
"32 45 CURVE SMOOTH",
"32 22 LINE SMOOTH",
"32 7 OFFCURVE",
"41 0 OFFCURVE",
"59 0 CURVE SMOOTH"
);
}
);
width = 594;
},
{
layerId = "39B5C782-31E0-4FF6-90B4-6BA13107E116";
paths = (
{
closed = 1;
nodes = (
"545 0 LINE SMOOTH",
"569 0 OFFCURVE",
"582 11 OFFCURVE",
"582 32 CURVE SMOOTH",
"582 89 LINE SMOOTH",
"582 110 OFFCURVE",
"569 121 OFFCURVE",
"545 121 CURVE SMOOTH",
"272 121 LINE SMOOTH",
"253 121 OFFCURVE",
"233 120 OFFCURVE",
"214 119 CURVE",
"214 122 LINE",
"551 586 LINE SMOOTH",
"562 602 OFFCURVE",
"568 619 OFFCURVE",
"568 636 CURVE SMOOTH",
"568 668 LINE SMOOTH",
"568 689 OFFCURVE",
"556 700 OFFCURVE",
"531 700 CURVE SMOOTH",
"86 700 LINE SMOOTH",
"62 700 OFFCURVE",
"49 689 OFFCURVE",
"49 668 CURVE SMOOTH",
"49 611 LINE SMOOTH",
"49 590 OFFCURVE",
"62 579 OFFCURVE",
"86 579 CURVE SMOOTH",
"313 579 LINE SMOOTH",
"333 579 OFFCURVE",
"353 580 OFFCURVE",
"372 582 CURVE",
"372 578 LINE",
"55 140 LINE SMOOTH",
"38 117 OFFCURVE",
"30 94 OFFCURVE",
"30 72 CURVE SMOOTH",
"30 32 LINE SMOOTH",
"30 11 OFFCURVE",
"42 0 OFFCURVE",
"66 0 CURVE SMOOTH"
);
}
);
width = 611;
}
);
unicode = 005A;
},
{
glyphname = Gsmall;
layers = (
{
layerId = UUID0;
paths = (
{
closed = 1;
nodes = (
"42 106 OFFCURVE",
"112 -8 OFFCURVE",
"277 -8 CURVE SMOOTH",
"385 -8 OFFCURVE",
"422 15 OFFCURVE",
"489 70 CURVE",
"489 229 LINE SMOOTH",
"489 240 OFFCURVE",
"481 246 OFFCURVE",
"467 246 CURVE SMOOTH",
"299 246 LINE SMOOTH",
"285 246 OFFCURVE",
"277 240 OFFCURVE",
"277 229 CURVE SMOOTH",
"277 199 LINE SMOOTH",
"277 188 OFFCURVE",
"285 182 OFFCURVE",
"299 182 CURVE SMOOTH",
"403 182 LINE",
"403 98 LINE",
"376 71 OFFCURVE",
"345 55 OFFCURVE",
"277 55 CURVE SMOOTH",
"180 55 OFFCURVE",
"132 120 OFFCURVE",
"132 256 CURVE SMOOTH",
"132 393 OFFCURVE",
"180 458 OFFCURVE",
"277 458 CURVE SMOOTH",
"347 458 OFFCURVE",
"378 433 OFFCURVE",
"400 405 CURVE SMOOTH",
"407 395 OFFCURVE",
"414 391 OFFCURVE",
"420 391 CURVE SMOOTH",
"424 391 OFFCURVE",
"427 392 OFFCURVE",
"430 395 CURVE SMOOTH",
"459 417 LINE SMOOTH",
"464 421 OFFCURVE",
"467 425 OFFCURVE",
"467 430 CURVE SMOOTH",
"467 448 OFFCURVE",
"430 477 OFFCURVE",
"398 496 CURVE SMOOTH",
"370 512 OFFCURVE",
"330 521 OFFCURVE",
"277 521 CURVE SMOOTH",
"113 521 OFFCURVE",
"42 408 OFFCURVE",
"42 256 CURVE SMOOTH"
);
}
);
width = 542;
}
);
unicode = 0262;
},
{
glyphname = Gsmallhook;
layers = (
{
layerId = UUID0;
paths = (
{
closed = 1;
nodes = (
"42 106 OFFCURVE",
"112 -8 OFFCURVE",
"277 -8 CURVE SMOOTH",
"385 -8 OFFCURVE",
"422 15 OFFCURVE",
"489 70 CURVE",
"489 229 LINE SMOOTH",
"489 240 OFFCURVE",
"481 246 OFFCURVE",
"467 246 CURVE SMOOTH",
"299 246 LINE SMOOTH",
"285 246 OFFCURVE",
"277 240 OFFCURVE",
"277 229 CURVE SMOOTH",
"277 199 LINE SMOOTH",
"277 188 OFFCURVE",
"285 182 OFFCURVE",
"299 182 CURVE SMOOTH",
"403 182 LINE",
"403 98 LINE",
"376 71 OFFCURVE",
"345 55 OFFCURVE",
"277 55 CURVE SMOOTH",
"180 55 OFFCURVE",
"132 120 OFFCURVE",
"132 256 CURVE SMOOTH",
"132 393 OFFCURVE",
"180 458 OFFCURVE",
"277 458 CURVE SMOOTH",
"347 458 OFFCURVE",
"378 433 OFFCURVE",
"400 405 CURVE SMOOTH",
"406 396 OFFCURVE",
"413 392 OFFCURVE",
"420 392 CURVE SMOOTH",
"424 392 OFFCURVE",
"429 394 OFFCURVE",
"434 398 CURVE SMOOTH",
"465 422 LINE SMOOTH",
"471 427 OFFCURVE",
"475 437 OFFCURVE",
"475 449 CURVE SMOOTH",
"475 571 LINE SMOOTH",
"475 647 OFFCURVE",
"510 666 OFFCURVE",
"546 666 CURVE SMOOTH",
"569 666 OFFCURVE",
"585 659 OFFCURVE",
"597 650 CURVE SMOOTH",
"599 649 OFFCURVE",
"601 648 OFFCURVE",
"603 648 CURVE SMOOTH",
"607 648 OFFCURVE",
"611 651 OFFCURVE",
"614 657 CURVE SMOOTH",
"631 693 LINE SMOOTH",
"632 695 OFFCURVE",
"632 697 OFFCURVE",
"632 699 CURVE SMOOTH",
"632 711 OFFCURVE",
"594 722 OFFCURVE",
"583 725 CURVE SMOOTH",
"570 727 OFFCURVE",
"556 729 OFFCURVE",
"538 729 CURVE SMOOTH",
"499 729 OFFCURVE",
"465 719 OFFCURVE",
"434 698 CURVE SMOOTH",
"404 677 OFFCURVE",
"389 640 OFFCURVE",
"389 585 CURVE SMOOTH",
"389 526 LINE SMOOTH",
"389 517 OFFCURVE",
"389 507 OFFCURVE",
"390 497 CURVE",
"389 497 LINE",
"362 513 OFFCURVE",
"325 521 OFFCURVE",
"277 521 CURVE SMOOTH",
"113 521 OFFCURVE",
"42 408 OFFCURVE",
"42 256 CURVE SMOOTH"
);
}
);
width = 599;
}
);
unicode = 029B;
},
{
glyphname = Ismall;
layers = (
{
layerId = UUID0;
paths = (
{
closed = 1;
nodes = (
"214 0 LINE SMOOTH",
"229 0 OFFCURVE",
"236 6 OFFCURVE",
"236 17 CURVE SMOOTH",
"236 46 LINE SMOOTH",
"236 58 OFFCURVE",
"229 63 OFFCURVE",
"214 63 CURVE SMOOTH",
"186 63 LINE",
"186 449 LINE",
"214 449 LINE SMOOTH",
"229 449 OFFCURVE",
"236 455 OFFCURVE",
"236 466 CURVE SMOOTH",
"236 496 LINE SMOOTH",
"236 507 OFFCURVE",
"229 513 OFFCURVE",
"214 513 CURVE SMOOTH",
"71 513 LINE SMOOTH",
"56 513 OFFCURVE",
"49 507 OFFCURVE",
"49 496 CURVE SMOOTH",
"49 466 LINE SMOOTH",
"49 455 OFFCURVE",
"56 449 OFFCURVE",
"71 449 CURVE SMOOTH",
"100 449 LINE",
"100 63 LINE",
"71 63 LINE SMOOTH",
"56 63 OFFCURVE",
"49 58 OFFCURVE",
"49 46 CURVE SMOOTH",
"49 17 LINE SMOOTH",
"49 6 OFFCURVE",
"56 0 OFFCURVE",
"71 0 CURVE SMOOTH"
);
}
);
width = 285;
},
{
layerId = "39B5C782-31E0-4FF6-90B4-6BA13107E116";
paths = (
{
closed = 1;
nodes = (
"291 0 LINE SMOOTH",
"311 0 OFFCURVE",
"320 8 OFFCURVE",
"320 24 CURVE SMOOTH",
"320 73 LINE SMOOTH",
"320 89 OFFCURVE",
"311 98 OFFCURVE",
"291 98 CURVE SMOOTH",
"251 98 LINE",
"251 415 LINE",
"291 415 LINE SMOOTH",
"311 415 OFFCURVE",
"320 423 OFFCURVE",
"320 439 CURVE SMOOTH",
"320 488 LINE SMOOTH",
"320 504 OFFCURVE",
"311 513 OFFCURVE",
"291 513 CURVE SMOOTH",
"74 513 LINE SMOOTH",
"55 513 OFFCURVE",
"45 504 OFFCURVE",
"45 488 CURVE SMOOTH",
"45 439 LINE SMOOTH",
"45 423 OFFCURVE",
"55 415 OFFCURVE",
"74 415 CURVE SMOOTH",
"114 415 LINE",
"114 98 LINE",
"74 98 LINE SMOOTH",
"55 98 OFFCURVE",
"45 89 OFFCURVE",
"45 73 CURVE SMOOTH",
"45 24 LINE SMOOTH",
"45 8 OFFCURVE",
"55 0 OFFCURVE",
"74 0 CURVE SMOOTH"
);
}
);
width = 365;
}
);
unicode = 026A;
},
{
glyphname = Lsmall;
layers = (
{
layerId = UUID0;
paths = (
{
closed = 1;
nodes = (
"381 0 LINE SMOOTH",
"396 0 OFFCURVE",
"403 6 OFFCURVE",
"403 17 CURVE SMOOTH",
"403 47 LINE SMOOTH",
"403 59 OFFCURVE",
"396 64 OFFCURVE",
"381 64 CURVE SMOOTH",
"155 64 LINE",
"155 491 LINE SMOOTH",
"155 505 OFFCURVE",
"148 513 OFFCURVE",
"133 513 CURVE SMOOTH",
"91 513 LINE SMOOTH",
"77 513 OFFCURVE",
"69 505 OFFCURVE",
"69 491 CURVE SMOOTH",
"69 22 LINE SMOOTH",
"69 7 OFFCURVE",
"77 0 OFFCURVE",
"91 0 CURVE SMOOTH"
);
}
);
width = 424;
}
);
unicode = 029F;
},
{
glyphname = Nsmall;
layers = (
{
layerId = UUID0;
paths = (
{
closed = 1;
nodes = (
"133 0 LINE SMOOTH",
"148 0 OFFCURVE",
"155 7 OFFCURVE",
"155 22 CURVE SMOOTH",
"155 367 LINE SMOOTH",
"155 377 OFFCURVE",
"155 387 OFFCURVE",
"154 396 CURVE",
"155 396 LINE",
"403 24 LINE SMOOTH",
"414 8 OFFCURVE",
"428 0 OFFCURVE",
"445 0 CURVE SMOOTH",
"490 0 LINE SMOOTH",
"504 0 OFFCURVE",
"512 7 OFFCURVE",
"512 22 CURVE SMOOTH",
"512 491 LINE SMOOTH",
"512 505 OFFCURVE",
"504 513 OFFCURVE",
"490 513 CURVE SMOOTH",
"448 513 LINE SMOOTH",
"433 513 OFFCURVE",
"426 505 OFFCURVE",
"426 491 CURVE SMOOTH",
"426 169 LINE SMOOTH",
"426 159 OFFCURVE",
"426 149 OFFCURVE",
"427 140 CURVE",
"426 140 LINE",
"194 489 LINE SMOOTH",
"184 505 OFFCURVE",
"170 513 OFFCURVE",
"152 513 CURVE SMOOTH",
"91 513 LINE SMOOTH",
"77 513 OFFCURVE",
"69 505 OFFCURVE",
"69 491 CURVE SMOOTH",
"69 22 LINE SMOOTH",
"69 7 OFFCURVE",
"77 0 OFFCURVE",
"91 0 CURVE SMOOTH"
);
}
);
width = 581;
}
);
unicode = 0274;
},
{
glyphname = OEsmall;
layers = (
{
layerId = UUID0;
paths = (
{
closed = 1;
nodes = (
"42 95 OFFCURVE",
"124 -8 OFFCURVE",
"288 -8 CURVE SMOOTH",
"332 -8 OFFCURVE",
"377 0 OFFCURVE",
"422 0 CURVE SMOOTH",
"710 0 LINE SMOOTH",
"725 0 OFFCURVE",
"732 6 OFFCURVE",
"732 17 CURVE SMOOTH",
"732 47 LINE SMOOTH",
"732 59 OFFCURVE",
"725 64 OFFCURVE",
"710 64 CURVE SMOOTH",
"454 64 LINE",
"454 232 LINE",
"678 232 LINE SMOOTH",
"692 232 OFFCURVE",
"700 238 OFFCURVE",
"700 249 CURVE SMOOTH",
"700 280 LINE SMOOTH",
"700 291 OFFCURVE",
"692 297 OFFCURVE",
"678 297 CURVE SMOOTH",
"454 297 LINE",
"454 448 LINE",
"699 448 LINE SMOOTH",
"714 448 OFFCURVE",
"721 454 OFFCURVE",
"721 465 CURVE SMOOTH",
"721 496 LINE SMOOTH",
"721 507 OFFCURVE",
"714 513 OFFCURVE",
"699 513 CURVE SMOOTH",
"422 513 LINE SMOOTH",
"377 513 OFFCURVE",
"332 521 OFFCURVE",
"288 521 CURVE SMOOTH",
"124 521 OFFCURVE",
"42 418 OFFCURVE",
"42 256 CURVE SMOOTH"
);
},
{
closed = 1;
nodes = (
"133 383 OFFCURVE",
"184 458 OFFCURVE",
"285 458 CURVE SMOOTH",
"320 458 OFFCURVE",
"348 455 OFFCURVE",
"368 448 CURVE",
"368 64 LINE",
"348 58 OFFCURVE",
"320 55 OFFCURVE",
"285 55 CURVE SMOOTH",
"184 55 OFFCURVE",
"133 129 OFFCURVE",
"133 256 CURVE SMOOTH"
);
}
);
width = 786;
}
);
unicode = 0276;
},
{
glyphname = Rsmall;
layers = (
{
layerId = UUID0;
paths = (
{
closed = 1;
nodes = (
"133 0 LINE SMOOTH",
"148 0 OFFCURVE",
"155 7 OFFCURVE",
"155 22 CURVE SMOOTH",
"155 211 LINE",
"216 211 LINE SMOOTH",
"260 211 OFFCURVE",
"282 191 OFFCURVE",
"317 141 CURVE SMOOTH",
"403 18 LINE SMOOTH",
"412 6 OFFCURVE",
"421 0 OFFCURVE",
"431 0 CURVE SMOOTH",
"485 0 LINE SMOOTH",
"499 0 OFFCURVE",
"506 3 OFFCURVE",
"506 11 CURVE SMOOTH",
"506 15 OFFCURVE",
"503 21 OFFCURVE",
"498 29 CURVE SMOOTH",
"405 153 LINE SMOOTH",
"388 177 OFFCURVE",
"370 198 OFFCURVE",
"324 225 CURVE",
"324 226 LINE",
"437 239 OFFCURVE",
"481 289 OFFCURVE",
"481 372 CURVE SMOOTH",
"481 467 OFFCURVE",
"427 513 OFFCURVE",
"275 513 CURVE SMOOTH",
"91 513 LINE SMOOTH",
"77 513 OFFCURVE",
"69 505 OFFCURVE",
"69 491 CURVE SMOOTH",
"69 22 LINE SMOOTH",
"69 7 OFFCURVE",
"77 0 OFFCURVE",
"91 0 CURVE SMOOTH"
);
},
{
closed = 1;
nodes = (
"155 449 LINE",
"263 449 LINE SMOOTH",
"352 449 OFFCURVE",
"391 431 OFFCURVE",
"391 372 CURVE SMOOTH",
"391 292 OFFCURVE",
"331 274 OFFCURVE",
"263 274 CURVE SMOOTH",
"155 274 LINE"
);
}
);
width = 544;
}
);
unicode = 0280;
},
{
glyphname = Ysmall;
layers = (
{
layerId = UUID0;
paths = (
{
closed = 1;
nodes = (
"208 198 LINE",
"208 22 LINE SMOOTH",
"208 7 OFFCURVE",
"215 0 OFFCURVE",
"229 0 CURVE SMOOTH",
"271 0 LINE SMOOTH",
"286 0 OFFCURVE",
"293 7 OFFCURVE",
"293 22 CURVE SMOOTH",
"293 198 LINE",
"479 482 LINE SMOOTH",
"484 490 OFFCURVE",
"487 497 OFFCURVE",
"487 501 CURVE SMOOTH",
"487 509 OFFCURVE",
"480 513 OFFCURVE",
"468 513 CURVE SMOOTH",
"422 513 LINE SMOOTH",
"412 513 OFFCURVE",
"403 507 OFFCURVE",
"396 496 CURVE SMOOTH",
"292 333 LINE SMOOTH",
"276 309 OFFCURVE",
"257 281 OFFCURVE",
"251 255 CURVE",
"250 255 LINE",
"244 281 OFFCURVE",
"225 309 OFFCURVE",
"209 333 CURVE SMOOTH",
"105 496 LINE SMOOTH",
"98 507 OFFCURVE",
"89 513 OFFCURVE",
"79 513 CURVE SMOOTH",
"33 513 LINE SMOOTH",
"21 513 OFFCURVE",
"14 509 OFFCURVE",
"14 501 CURVE SMOOTH",
"14 497 OFFCURVE",
"17 490 OFFCURVE",
"22 482 CURVE SMOOTH"
);
}
);
width = 501;
}
);
unicode = 028F;
},
{
glyphname = a;
layers = (
{
layerId = UUID0;
paths = (
{
closed = 1;
nodes = (
"42 45 OFFCURVE",
"101 -8 OFFCURVE",
"208 -8 CURVE SMOOTH",
"269 -8 OFFCURVE",
"314 5 OFFCURVE",
"366 46 CURVE",
"367 46 LINE",
"367 22 LINE SMOOTH",
"367 7 OFFCURVE",
"373 0 OFFCURVE",
"386 0 CURVE SMOOTH",
"430 0 LINE SMOOTH",
"444 0 OFFCURVE",
"452 7 OFFCURVE",
"452 22 CURVE SMOOTH",
"452 325 LINE SMOOTH",
"452 446 OFFCURVE",
"399 521 OFFCURVE",
"263 521 CURVE SMOOTH",
"180 521 OFFCURVE",
"122 497 OFFCURVE",
"78 455 CURVE SMOOTH",
"70 448 OFFCURVE",
"66 441 OFFCURVE",
"66 436 CURVE SMOOTH",
"66 432 OFFCURVE",
"67 429 OFFCURVE",
"70 426 CURVE SMOOTH",
"96 396 LINE SMOOTH",
"99 392 OFFCURVE",
"103 390 OFFCURVE",
"107 390 CURVE SMOOTH",
"111 390 OFFCURVE",
"116 393 OFFCURVE",
"121 398 CURVE SMOOTH",
"157 438 OFFCURVE",
"194 458 OFFCURVE",
"263 458 CURVE SMOOTH",
"346 458 OFFCURVE",
"366 404 OFFCURVE",
"366 345 CURVE SMOOTH",
"366 312 LINE",
"151 303 OFFCURVE",
"42 253 OFFCURVE",
"42 137 CURVE SMOOTH"
);
},
{
closed = 1;
nodes = (
"130 179 OFFCURVE",
"170 216 OFFCURVE",
"225 229 CURVE SMOOTH",
"253 236 OFFCURVE",
"300 243 OFFCURVE",
"366 248 CURVE",
"366 104 LINE",
"317 61 OFFCURVE",
"275 58 OFFCURVE",
"225 58 CURVE SMOOTH",
"176 58 OFFCURVE",
"130 68 OFFCURVE",
"130 135 CURVE SMOOTH"
);
}
);
width = 521;
},
{
layerId = "39B5C782-31E0-4FF6-90B4-6BA13107E116";
paths = (
{
closed = 1;
nodes = (
"39 46 OFFCURVE",
"95 -10 OFFCURVE",
"202 -10 CURVE SMOOTH",
"246 -10 OFFCURVE",
"308 7 OFFCURVE",
"345 44 CURVE",
"346 44 LINE",
"346 29 LINE SMOOTH",
"346 10 OFFCURVE",
"355 0 OFFCURVE",
"373 0 CURVE SMOOTH",
"453 0 LINE SMOOTH",
"472 0 OFFCURVE",
"482 10 OFFCURVE",
"482 29 CURVE SMOOTH",
"482 337 LINE SMOOTH",
"482 459 OFFCURVE",
"407 522 OFFCURVE",
"271 522 CURVE SMOOTH",
"103 522 OFFCURVE",
"60 456 OFFCURVE",
"60 442 CURVE SMOOTH",
"60 437 OFFCURVE",
"63 432 OFFCURVE",
"66 427 CURVE SMOOTH",
"107 377 LINE SMOOTH",
"111 371 OFFCURVE",
"117 369 OFFCURVE",
"123 369 CURVE SMOOTH",
"129 369 OFFCURVE",
"136 372 OFFCURVE",
"144 379 CURVE SMOOTH",
"168 399 OFFCURVE",
"204 427 OFFCURVE",
"260 427 CURVE SMOOTH",
"313 427 OFFCURVE",
"345 405 OFFCURVE",
"345 345 CURVE SMOOTH",
"345 325 LINE",
"266 323 OFFCURVE",
"194 308 OFFCURVE",
"132 278 CURVE SMOOTH",
"70 249 OFFCURVE",
"39 202 OFFCURVE",
"39 137 CURVE SMOOTH"
);
},
{
closed = 1;
nodes = (
"184 168 OFFCURVE",
"198 188 OFFCURVE",
"235 207 CURVE SMOOTH",
"254 217 OFFCURVE",
"291 225 OFFCURVE",
"345 231 CURVE",
"345 125 LINE",
"307 90 OFFCURVE",
"278 86 OFFCURVE",
"245 86 CURVE SMOOTH",
"207 86 OFFCURVE",
"184 104 OFFCURVE",
"184 140 CURVE SMOOTH"
);
}
);
width = 548;
}
);
unicode = 0061;
},
{
glyphname = "alpha-latin";
layers = (
{
layerId = UUID0;
paths = (
{
closed = 1;
nodes = (
"42 187 OFFCURVE",
"59 125 OFFCURVE",
"92 71 CURVE SMOOTH",
"126 18 OFFCURVE",
"174 -8 OFFCURVE",
"237 -8 CURVE SMOOTH",
"307 -8 OFFCURVE",
"347 18 OFFCURVE",
"383 61 CURVE",
"384 61 LINE",
"387 22 LINE SMOOTH",
"388 7 OFFCURVE",
"395 0 OFFCURVE",
"406 0 CURVE SMOOTH",
"447 0 LINE SMOOTH",
"462 0 OFFCURVE",
"469 7 OFFCURVE",
"469 22 CURVE SMOOTH",
"469 491 LINE SMOOTH",
"469 505 OFFCURVE",
"462 513 OFFCURVE",
"447 513 CURVE SMOOTH",
"406 513 LINE SMOOTH",
"395 513 OFFCURVE",
"388 505 OFFCURVE",
"387 491 CURVE SMOOTH",
"384 452 LINE",
"383 452 LINE",
"347 495 OFFCURVE",
"307 521 OFFCURVE",
"237 521 CURVE SMOOTH",
"174 521 OFFCURVE",
"126 494 OFFCURVE",
"92 441 CURVE SMOOTH",
"59 388 OFFCURVE",
"42 326 OFFCURVE",
"42 256 CURVE SMOOTH"
);
},
{
closed = 1;
nodes = (
"132 374 OFFCURVE",
"169 458 OFFCURVE",
"265 458 CURVE SMOOTH",
"329 458 OFFCURVE",
"383 410 OFFCURVE",
"383 313 CURVE SMOOTH",
"383 200 LINE SMOOTH",
"383 102 OFFCURVE",
"329 55 OFFCURVE",
"265 55 CURVE SMOOTH",
"169 55 OFFCURVE",
"132 139 OFFCURVE",
"132 256 CURVE SMOOTH"
);
}
);
width = 539;
}
);
unicode = 0251;
},
{
glyphname = aogonek;
layers = (
{
layerId = UUID0;
paths = (
{
closed = 1;
nodes = (
"42 45 OFFCURVE",
"101 -8 OFFCURVE",
"208 -8 CURVE SMOOTH",
"269 -8 OFFCURVE",
"314 5 OFFCURVE",
"366 46 CURVE",
"367 46 LINE",
"367 22 LINE SMOOTH",
"367 10 OFFCURVE",
"364 1 OFFCURVE",
"359 -3 CURVE SMOOTH",
"308 -40 OFFCURVE",
"275 -70 OFFCURVE",
"275 -125 CURVE SMOOTH",
"275 -164 OFFCURVE",
"306 -204 OFFCURVE",
"382 -204 CURVE SMOOTH",
"400 -204 OFFCURVE",
"451 -204 OFFCURVE",
"451 -188 CURVE SMOOTH",
"451 -187 OFFCURVE",
"451 -186 OFFCURVE",
"451 -185 CURVE SMOOTH",
"444 -146 LINE SMOOTH",
"443 -140 OFFCURVE",
"440 -136 OFFCURVE",
"435 -136 CURVE SMOOTH",
"425 -136 OFFCURVE",
"411 -140 OFFCURVE",
"393 -140 CURVE SMOOTH",
"371 -140 OFFCURVE",
"354 -129 OFFCURVE",
"354 -103 CURVE SMOOTH",
"354 -70 OFFCURVE",
"382 -45 OFFCURVE",
"443 0 CURVE",
"449 5 OFFCURVE",
"452 12 OFFCURVE",
"452 22 CURVE SMOOTH",
"452 325 LINE SMOOTH",
"452 446 OFFCURVE",
"399 521 OFFCURVE",
"263 521 CURVE SMOOTH",
"180 521 OFFCURVE",
"122 497 OFFCURVE",
"78 455 CURVE SMOOTH",
"70 448 OFFCURVE",
"66 441 OFFCURVE",
"66 436 CURVE SMOOTH",
"66 432 OFFCURVE",
"67 429 OFFCURVE",
"70 426 CURVE SMOOTH",
"96 396 LINE SMOOTH",
"99 392 OFFCURVE",
"103 390 OFFCURVE",
"107 390 CURVE SMOOTH",
"111 390 OFFCURVE",
"116 393 OFFCURVE",
"121 398 CURVE SMOOTH",
"157 438 OFFCURVE",
"194 458 OFFCURVE",
"263 458 CURVE SMOOTH",
"346 458 OFFCURVE",
"366 404 OFFCURVE",
"366 345 CURVE SMOOTH",
"366 312 LINE",
"151 303 OFFCURVE",
"42 253 OFFCURVE",
"42 137 CURVE SMOOTH"
);
},
{
closed = 1;
nodes = (
"130 179 OFFCURVE",
"170 216 OFFCURVE",
"225 229 CURVE SMOOTH",
"253 236 OFFCURVE",
"300 243 OFFCURVE",
"366 248 CURVE",
"366 104 LINE",
"317 61 OFFCURVE",
"275 58 OFFCURVE",
"225 58 CURVE SMOOTH",
"176 58 OFFCURVE",
"130 68 OFFCURVE",
"130 135 CURVE SMOOTH"
);
}
);
width = 521;
},
{
layerId = "39B5C782-31E0-4FF6-90B4-6BA13107E116";
paths = (
{
closed = 1;
nodes = (
"39 46 OFFCURVE",
"95 -10 OFFCURVE",
"202 -10 CURVE SMOOTH",
"246 -10 OFFCURVE",
"308 7 OFFCURVE",
"345 44 CURVE",
"346 44 LINE",
"346 29 LINE SMOOTH",
"346 14 OFFCURVE",
"343 5 OFFCURVE",
"337 0 CURVE SMOOTH",
"304 -28 OFFCURVE",
"272 -65 OFFCURVE",
"266 -86 CURVE SMOOTH",
"263 -98 OFFCURVE",
"262 -109 OFFCURVE",
"262 -121 CURVE SMOOTH",
"262 -176 OFFCURVE",
"308 -205 OFFCURVE",
"399 -205 CURVE SMOOTH",
"451 -205 OFFCURVE",
"481 -204 OFFCURVE",
"481 -183 CURVE SMOOTH",
"481 -182 OFFCURVE",
"481 -181 OFFCURVE",
"481 -180 CURVE SMOOTH",
"475 -122 LINE SMOOTH",
"473 -112 OFFCURVE",
"468 -106 OFFCURVE",
"459 -106 CURVE SMOOTH",
"449 -106 OFFCURVE",
"434 -109 OFFCURVE",
"416 -109 CURVE SMOOTH",
"395 -109 OFFCURVE",
"377 -106 OFFCURVE",
"377 -86 CURVE SMOOTH",
"377 -66 OFFCURVE",
"432 -32 OFFCURVE",
"464 -5 CURVE",
"476 3 OFFCURVE",
"482 15 OFFCURVE",
"482 29 CURVE SMOOTH",
"482 337 LINE SMOOTH",
"482 459 OFFCURVE",
"407 522 OFFCURVE",
"271 522 CURVE SMOOTH",
"103 522 OFFCURVE",
"60 456 OFFCURVE",
"60 442 CURVE SMOOTH",
"60 437 OFFCURVE",
"63 432 OFFCURVE",
"66 427 CURVE SMOOTH",
"107 377 LINE SMOOTH",
"111 371 OFFCURVE",
"117 369 OFFCURVE",
"123 369 CURVE SMOOTH",
"129 369 OFFCURVE",
"136 372 OFFCURVE",
"144 379 CURVE SMOOTH",
"168 399 OFFCURVE",
"204 427 OFFCURVE",
"260 427 CURVE SMOOTH",
"313 427 OFFCURVE",
"345 405 OFFCURVE",
"345 345 CURVE SMOOTH",
"345 325 LINE",
"266 323 OFFCURVE",
"194 308 OFFCURVE",
"132 278 CURVE SMOOTH",
"70 249 OFFCURVE",
"39 202 OFFCURVE",
"39 137 CURVE SMOOTH"
);
},
{
closed = 1;
nodes = (
"184 168 OFFCURVE",
"198 188 OFFCURVE",
"235 207 CURVE SMOOTH",
"254 217 OFFCURVE",
"291 225 OFFCURVE",
"345 231 CURVE",
"345 125 LINE",
"307 90 OFFCURVE",
"278 86 OFFCURVE",
"245 86 CURVE SMOOTH",
"206 86 OFFCURVE",
"184 104 OFFCURVE",
"184 140 CURVE SMOOTH"
);
}
);
width = 548;
}
);
unicode = 0105;
},
{
glyphname = ae;
layers = (
{
layerId = UUID0;
paths = (
{
closed = 1;
nodes = (
"42 45 OFFCURVE",
"102 -8 OFFCURVE",
"206 -8 CURVE SMOOTH",
"271 -8 OFFCURVE",
"332 14 OFFCURVE",
"406 76 CURVE",
"407 76 LINE",
"454 12 OFFCURVE",
"509 -8 OFFCURVE",
"591 -8 CURVE SMOOTH",
"652 -8 OFFCURVE",
"696 2 OFFCURVE",
"725 23 CURVE SMOOTH",
"772 57 OFFCURVE",
"783 71 OFFCURVE",
"783 83 CURVE SMOOTH",
"783 88 OFFCURVE",
"781 92 OFFCURVE",
"778 95 CURVE SMOOTH",
"749 120 LINE SMOOTH",
"745 123 OFFCURVE",
"742 125 OFFCURVE",
"738 125 CURVE SMOOTH",
"715 125 OFFCURVE",
"698 56 OFFCURVE",
"591 56 CURVE SMOOTH",
"523 56 OFFCURVE",
"459 95 OFFCURVE",
"449 224 CURVE",
"781 224 LINE SMOOTH",
"794 224 OFFCURVE",
"801 231 OFFCURVE",
"801 246 CURVE SMOOTH",
"801 439 OFFCURVE",
"706 521 OFFCURVE",
"587 521 CURVE SMOOTH",
"529 521 OFFCURVE",
"471 508 OFFCURVE",
"418 446 CURVE",
"417 446 LINE",
"384 507 OFFCURVE",
"325 521 OFFCURVE",
"260 521 CURVE SMOOTH",
"181 521 OFFCURVE",
"112 488 OFFCURVE",
"78 455 CURVE SMOOTH",
"70 448 OFFCURVE",
"66 442 OFFCURVE",
"66 436 CURVE SMOOTH",
"66 432 OFFCURVE",
"67 429 OFFCURVE",
"70 426 CURVE SMOOTH",
"96 396 LINE SMOOTH",
"99 392 OFFCURVE",
"103 390 OFFCURVE",
"107 390 CURVE SMOOTH",
"111 390 OFFCURVE",
"116 393 OFFCURVE",
"121 398 CURVE SMOOTH",
"153 434 OFFCURVE",
"184 458 OFFCURVE",
"260 458 CURVE SMOOTH",
"340 458 OFFCURVE",
"361 404 OFFCURVE",
"361 345 CURVE SMOOTH",
"361 312 LINE",
"150 303 OFFCURVE",
"42 253 OFFCURVE",
"42 137 CURVE SMOOTH"
);
},
{
closed = 1;
nodes = (
"130 175 OFFCURVE",
"164 212 OFFCURVE",
"220 228 CURVE SMOOTH",
"249 236 OFFCURVE",
"296 243 OFFCURVE",
"361 248 CURVE",
"361 201 OFFCURVE",
"364 157 OFFCURVE",
"371 114 CURVE",
"322 69 OFFCURVE",
"286 58 OFFCURVE",
"223 58 CURVE SMOOTH",
"142 58 OFFCURVE",
"130 93 OFFCURVE",
"130 135 CURVE SMOOTH"
);
},
{
closed = 1;
nodes = (
"447 287 LINE",
"457 418 OFFCURVE",
"515 458 OFFCURVE",
"585 458 CURVE SMOOTH",
"670 458 OFFCURVE",
"711 375 OFFCURVE",
"714 287 CURVE"
);
}
);
width = 844;
},
{
layerId = "39B5C782-31E0-4FF6-90B4-6BA13107E116";
paths = (
{
closed = 1;
nodes = (
"39 46 OFFCURVE",
"91 -10 OFFCURVE",
"207 -10 CURVE SMOOTH",
"268 -10 OFFCURVE",
"339 26 OFFCURVE",
"379 71 CURVE",
"380 71 LINE",
"421 14 OFFCURVE",
"482 -10 OFFCURVE",
"589 -10 CURVE SMOOTH",
"707 -10 OFFCURVE",
"743 12 OFFCURVE",
"783 61 CURVE SMOOTH",
"789 67 OFFCURVE",
"792 74 OFFCURVE",
"792 80 CURVE SMOOTH",
"792 88 OFFCURVE",
"786 96 OFFCURVE",
"775 103 CURVE SMOOTH",
"729 133 LINE SMOOTH",
"723 137 OFFCURVE",
"717 139 OFFCURVE",
"711 139 CURVE SMOOTH",
"703 139 OFFCURVE",
"695 135 OFFCURVE",
"688 126 CURVE SMOOTH",
"667 100 OFFCURVE",
"631 86 OFFCURVE",
"587 86 CURVE SMOOTH",
"535 86 OFFCURVE",
"484 111 OFFCURVE",
"477 209 CURVE",
"794 209 LINE SMOOTH",
"813 209 OFFCURVE",
"822 219 OFFCURVE",
"822 238 CURVE SMOOTH",
"822 438 OFFCURVE",
"741 522 OFFCURVE",
"566 522 CURVE SMOOTH",
"513 522 OFFCURVE",
"453 507 OFFCURVE",
"421 477 CURVE",
"419 477 LINE",
"379 512 OFFCURVE",
"324 522 OFFCURVE",
"270 522 CURVE SMOOTH",
"123 522 OFFCURVE",
"60 466 OFFCURVE",
"60 442 CURVE SMOOTH",
"60 437 OFFCURVE",
"63 432 OFFCURVE",
"66 427 CURVE SMOOTH",
"107 377 LINE SMOOTH",
"111 371 OFFCURVE",
"117 369 OFFCURVE",
"123 369 CURVE SMOOTH",
"144 369 OFFCURVE",
"185 427 OFFCURVE",
"257 427 CURVE SMOOTH",
"308 427 OFFCURVE",
"340 405 OFFCURVE",
"340 345 CURVE SMOOTH",
"340 325 LINE",
"262 323 OFFCURVE",
"192 308 OFFCURVE",
"131 278 CURVE SMOOTH",
"70 249 OFFCURVE",
"39 202 OFFCURVE",
"39 137 CURVE SMOOTH"
);
},
{
closed = 1;
nodes = (
"184 185 OFFCURVE",
"214 215 OFFCURVE",
"340 231 CURVE",
"341 194 OFFCURVE",
"343 164 OFFCURVE",
"347 139 CURVE",
"306 100 OFFCURVE",
"273 86 OFFCURVE",
"242 86 CURVE SMOOTH",
"207 86 OFFCURVE",
"184 103 OFFCURVE",
"184 140 CURVE SMOOTH"
);
},
{
closed = 1;
nodes = (
"477 307 LINE",
"480 381 OFFCURVE",
"516 426 OFFCURVE",
"577 426 CURVE SMOOTH",
"654 426 OFFCURVE",
"685 375 OFFCURVE",
"685 307 CURVE"
);
}
);
width = 862;
}
);
unicode = 00E6;
},
{
glyphname = b;
layers = (
{
layerId = UUID0;
paths = (
{
closed = 1;
nodes = (
"132 0 LINE SMOOTH",
"144 0 OFFCURVE",
"150 7 OFFCURVE",
"151 22 CURVE SMOOTH",
"154 61 LINE",
"155 61 LINE",
"191 18 OFFCURVE",
"230 -8 OFFCURVE",
"306 -8 CURVE SMOOTH",
"371 -8 OFFCURVE",
"420 18 OFFCURVE",
"454 71 CURVE SMOOTH",
"488 125 OFFCURVE",
"505 187 OFFCURVE",
"505 256 CURVE SMOOTH",
"505 326 OFFCURVE",
"488 388 OFFCURVE",
"454 441 CURVE SMOOTH",
"420 494 OFFCURVE",
"371 521 OFFCURVE",
"306 521 CURVE SMOOTH",
"230 521 OFFCURVE",
"191 495 OFFCURVE",
"155 452 CURVE",
"154 452 LINE",
"155 461 OFFCURVE",
"155 471 OFFCURVE",
"155 481 CURVE SMOOTH",
"155 699 LINE SMOOTH",
"155 713 OFFCURVE",
"148 721 OFFCURVE",
"133 721 CURVE SMOOTH",
"91 721 LINE SMOOTH",
"77 721 OFFCURVE",
"69 713 OFFCURVE",
"69 699 CURVE SMOOTH",
"69 22 LINE SMOOTH",
"69 7 OFFCURVE",
"77 0 OFFCURVE",
"91 0 CURVE SMOOTH"
);
},
{
closed = 1;
nodes = (
"155 313 LINE SMOOTH",
"155 411 OFFCURVE",
"209 458 OFFCURVE",
"278 458 CURVE SMOOTH",
"378 458 OFFCURVE",
"414 374 OFFCURVE",
"414 256 CURVE SMOOTH",
"414 139 OFFCURVE",
"378 55 OFFCURVE",
"278 55 CURVE SMOOTH",
"208 55 OFFCURVE",
"155 101 OFFCURVE",
"155 200 CURVE SMOOTH"
);
}
);
width = 546;
},
{
layerId = "39B5C782-31E0-4FF6-90B4-6BA13107E116";
paths = (
{
closed = 1;
nodes = (
"173 0 LINE SMOOTH",
"189 0 OFFCURVE",
"198 10 OFFCURVE",
"199 29 CURVE SMOOTH",
"201 58 LINE",
"203 58 LINE",
"238 1 OFFCURVE",
"276 -10 OFFCURVE",
"335 -10 CURVE SMOOTH",
"412 -10 OFFCURVE",
"465 17 OFFCURVE",
"496 69 CURVE SMOOTH",
"527 123 OFFCURVE",
"543 185 OFFCURVE",
"543 256 CURVE SMOOTH",
"543 328 OFFCURVE",
"527 390 OFFCURVE",
"496 443 CURVE SMOOTH",
"465 496 OFFCURVE",
"412 522 OFFCURVE",
"335 522 CURVE SMOOTH",
"276 522 OFFCURVE",
"238 512 OFFCURVE",
"203 455 CURVE",
"201 455 LINE",
"203 468 OFFCURVE",
"203 481 OFFCURVE",
"203 494 CURVE SMOOTH",
"203 691 LINE SMOOTH",
"203 711 OFFCURVE",
"193 721 OFFCURVE",
"174 721 CURVE SMOOTH",
"96 721 LINE SMOOTH",
"76 721 OFFCURVE",
"66 711 OFFCURVE",
"66 691 CURVE SMOOTH",
"66 29 LINE SMOOTH",
"66 10 OFFCURVE",
"76 0 OFFCURVE",
"96 0 CURVE SMOOTH"
);
},
{
closed = 1;
nodes = (
"203 278 LINE SMOOTH",
"203 366 OFFCURVE",
"244 427 OFFCURVE",
"292 427 CURVE SMOOTH",
"381 427 OFFCURVE",
"398 358 OFFCURVE",
"398 256 CURVE SMOOTH",
"398 155 OFFCURVE",
"382 86 OFFCURVE",
"292 86 CURVE SMOOTH",
"243 86 OFFCURVE",
"203 147 OFFCURVE",
"203 234 CURVE SMOOTH"
);
}
);
width = 582;
}
);
unicode = 0062;
},
{
glyphname = bhook;
layers = (
{
layerId = UUID0;
paths = (
{
closed = 1;
nodes = (
"132 0 LINE SMOOTH",
"144 0 OFFCURVE",
"150 7 OFFCURVE",
"151 22 CURVE SMOOTH",
"154 61 LINE",
"155 61 LINE",
"191 18 OFFCURVE",
"230 -8 OFFCURVE",
"306 -8 CURVE SMOOTH",
"371 -8 OFFCURVE",
"420 18 OFFCURVE",
"454 71 CURVE SMOOTH",
"488 125 OFFCURVE",
"505 187 OFFCURVE",
"505 256 CURVE SMOOTH",
"505 326 OFFCURVE",
"488 388 OFFCURVE",
"454 441 CURVE SMOOTH",
"420 494 OFFCURVE",
"371 521 OFFCURVE",
"306 521 CURVE SMOOTH",
"230 521 OFFCURVE",
"191 495 OFFCURVE",
"155 452 CURVE",
"154 452 LINE",
"155 461 OFFCURVE",
"155 471 OFFCURVE",
"155 481 CURVE SMOOTH",
"155 500 LINE SMOOTH",
"155 635 OFFCURVE",
"197 666 OFFCURVE",
"273 666 CURVE SMOOTH",
"337 666 OFFCURVE",
"364 650 OFFCURVE",
"402 617 CURVE SMOOTH",
"407 613 OFFCURVE",
"412 610 OFFCURVE",
"417 610 CURVE SMOOTH",
"420 610 OFFCURVE",
"423 612 OFFCURVE",
"427 615 CURVE SMOOTH",
"454 642 LINE SMOOTH",
"457 645 OFFCURVE",
"459 649 OFFCURVE",
"459 653 CURVE SMOOTH",
"459 670 OFFCURVE",
"429 692 OFFCURVE",
"391 709 CURVE SMOOTH",
"362 722 OFFCURVE",
"324 729 OFFCURVE",
"273 729 CURVE SMOOTH",
"133 729 OFFCURVE",
"69 649 OFFCURVE",
"69 513 CURVE SMOOTH",
"69 22 LINE SMOOTH",
"69 7 OFFCURVE",
"77 0 OFFCURVE",
"91 0 CURVE SMOOTH"
);
},
{
closed = 1;
nodes = (
"155 313 LINE SMOOTH",
"155 411 OFFCURVE",
"209 458 OFFCURVE",
"278 458 CURVE SMOOTH",
"378 458 OFFCURVE",
"414 374 OFFCURVE",
"414 256 CURVE SMOOTH",
"414 139 OFFCURVE",
"378 55 OFFCURVE",
"278 55 CURVE SMOOTH",
"208 55 OFFCURVE",
"155 101 OFFCURVE",
"155 200 CURVE SMOOTH"
);
}
);
width = 546;
}
);
unicode = 0253;
},
{
glyphname = bidentalpercussive;
layers = (
{
layerId = UUID0;
paths = (
{
closed = 1;
nodes = (
"116 0 LINE SMOOTH",
"130 0 OFFCURVE",
"138 7 OFFCURVE",
"138 22 CURVE SMOOTH",
"138 171 LINE",
"366 171 LINE",
"366 22 LINE SMOOTH",
"366 7 OFFCURVE",
"374 0 OFFCURVE",
"388 0 CURVE SMOOTH",
"425 0 LINE SMOOTH",
"440 0 OFFCURVE",
"447 7 OFFCURVE",
"447 22 CURVE SMOOTH",
"447 222 LINE SMOOTH",
"447 237 OFFCURVE",
"440 244 OFFCURVE",
"425 244 CURVE SMOOTH",
"79 244 LINE SMOOTH",
"64 244 OFFCURVE",
"57 237 OFFCURVE",
"57 222 CURVE SMOOTH",
"57 22 LINE SMOOTH",
"57 7 OFFCURVE",
"64 0 OFFCURVE",
"79 0 CURVE SMOOTH"
);
},
{
closed = 1;
nodes = (
"116 456 LINE SMOOTH",
"130 456 OFFCURVE",
"138 463 OFFCURVE",
"138 478 CURVE SMOOTH",
"138 627 LINE",
"366 627 LINE",
"366 478 LINE SMOOTH",
"366 463 OFFCURVE",
"374 456 OFFCURVE",
"388 456 CURVE SMOOTH",
"425 456 LINE SMOOTH",
"440 456 OFFCURVE",
"447 463 OFFCURVE",
"447 478 CURVE SMOOTH",
"447 678 LINE SMOOTH",
"447 693 OFFCURVE",
"440 700 OFFCURVE",
"425 700 CURVE SMOOTH",
"79 700 LINE SMOOTH",
"64 700 OFFCURVE",
"57 693 OFFCURVE",
"57 678 CURVE SMOOTH",
"57 478 LINE SMOOTH",
"57 463 OFFCURVE",
"64 456 OFFCURVE",
"79 456 CURVE SMOOTH"
);
}
);
width = 504;
}
);
unicode = 02AD;
},
{
glyphname = bilabialpercussive;
layers = (
{
layerId = UUID0;
paths = (
{
closed = 1;
nodes = (
"94 18 LINE SMOOTH",
"97 6 OFFCURVE",
"102 0 OFFCURVE",
"109 0 CURVE SMOOTH",
"146 0 LINE SMOOTH",
"153 0 OFFCURVE",
"159 6 OFFCURVE",
"162 18 CURVE SMOOTH",
"213 207 LINE SMOOTH",
"216 219 OFFCURVE",
"218 228 OFFCURVE",
"219 232 CURVE SMOOTH",
"222 251 LINE",
"225 232 LINE SMOOTH",
"226 228 OFFCURVE",
"228 219 OFFCURVE",
"231 207 CURVE SMOOTH",
"282 18 LINE SMOOTH",
"285 6 OFFCURVE",
"290 0 OFFCURVE",
"297 0 CURVE SMOOTH",
"334 0 LINE SMOOTH",
"341 0 OFFCURVE",
"347 6 OFFCURVE",
"350 18 CURVE SMOOTH",
"423 293 LINE SMOOTH",
"424 296 OFFCURVE",
"424 298 OFFCURVE",
"424 299 CURVE SMOOTH",
"424 305 OFFCURVE",
"421 308 OFFCURVE",
"416 308 CURVE SMOOTH",
"383 308 LINE SMOOTH",
"375 308 OFFCURVE",
"371 304 OFFCURVE",
"370 296 CURVE SMOOTH",
"325 105 LINE SMOOTH",
"319 80 OFFCURVE",
"315 68 OFFCURVE",
"313 52 CURVE",
"312 52 LINE",
"309 68 OFFCURVE",
"306 80 OFFCURVE",
"300 105 CURVE SMOOTH",
"250 296 LINE SMOOTH",
"249 304 OFFCURVE",
"244 308 OFFCURVE",
"237 308 CURVE SMOOTH",
"206 308 LINE SMOOTH",
"199 308 OFFCURVE",
"195 304 OFFCURVE",
"193 296 CURVE SMOOTH",
"144 105 LINE SMOOTH",
"138 80 OFFCURVE",
"134 68 OFFCURVE",
"132 52 CURVE",
"131 52 LINE",
"128 68 OFFCURVE",
"125 80 OFFCURVE",
"119 105 CURVE SMOOTH",
"74 296 LINE SMOOTH",
"72 304 OFFCURVE",
"68 308 OFFCURVE",
"61 308 CURVE SMOOTH",
"28 308 LINE SMOOTH",
"22 308 OFFCURVE",
"19 305 OFFCURVE",
"19 299 CURVE SMOOTH",
"19 298 OFFCURVE",
"20 296 OFFCURVE",
"20 293 CURVE SMOOTH"
);
},
{
closed = 1;
nodes = (
"94 411 LINE SMOOTH",
"97 398 OFFCURVE",
"102 393 OFFCURVE",
"109 393 CURVE SMOOTH",
"146 393 LINE SMOOTH",
"153 393 OFFCURVE",
"159 398 OFFCURVE",
"162 411 CURVE SMOOTH",
"213 599 LINE SMOOTH",
"216 612 OFFCURVE",
"218 620 OFFCURVE",
"219 625 CURVE SMOOTH",
"222 644 LINE",
"225 625 LINE SMOOTH",
"226 620 OFFCURVE",
"228 612 OFFCURVE",
"231 599 CURVE SMOOTH",
"282 411 LINE SMOOTH",
"285 398 OFFCURVE",
"290 393 OFFCURVE",
"297 393 CURVE SMOOTH",
"334 393 LINE SMOOTH",
"341 393 OFFCURVE",
"347 398 OFFCURVE",
"350 411 CURVE SMOOTH",
"423 686 LINE SMOOTH",
"424 688 OFFCURVE",
"424 690 OFFCURVE",
"424 692 CURVE SMOOTH",
"424 697 OFFCURVE",
"421 700 OFFCURVE",
"416 700 CURVE SMOOTH",
"383 700 LINE SMOOTH",
"375 700 OFFCURVE",
"371 696 OFFCURVE",
"370 689 CURVE SMOOTH",
"325 498 LINE SMOOTH",
"319 473 OFFCURVE",
"315 460 OFFCURVE",
"313 444 CURVE",
"312 444 LINE",
"309 460 OFFCURVE",
"306 473 OFFCURVE",
"300 498 CURVE SMOOTH",
"250 689 LINE SMOOTH",
"249 696 OFFCURVE",
"244 700 OFFCURVE",
"237 700 CURVE SMOOTH",
"206 700 LINE SMOOTH",
"199 700 OFFCURVE",
"195 696 OFFCURVE",
"193 689 CURVE SMOOTH",
"144 498 LINE SMOOTH",
"138 473 OFFCURVE",
"134 460 OFFCURVE",
"132 444 CURVE",
"131 444 LINE",
"128 460 OFFCURVE",
"125 473 OFFCURVE",
"119 498 CURVE SMOOTH",
"74 689 LINE SMOOTH",
"72 696 OFFCURVE",
"68 700 OFFCURVE",
"61 700 CURVE SMOOTH",
"28 700 LINE SMOOTH",
"22 700 OFFCURVE",
"19 697 OFFCURVE",
"19 692 CURVE SMOOTH",
"19 690 OFFCURVE",
"20 688 OFFCURVE",
"20 686 CURVE SMOOTH"
);
}
);
width = 443;
}
);
unicode = 02AC;
},
{
glyphname = bstroke;
layers = (
{
layerId = UUID0;
paths = (
{
closed = 1;
nodes = (
"104 590 LINE",
"104 22 LINE SMOOTH",
"104 7 OFFCURVE",
"111 0 OFFCURVE",
"125 0 CURVE SMOOTH",
"167 0 LINE SMOOTH",
"178 0 OFFCURVE",
"185 7 OFFCURVE",
"186 22 CURVE SMOOTH",
"188 61 LINE",
"189 61 LINE",
"226 18 OFFCURVE",
"264 -8 OFFCURVE",
"340 -8 CURVE SMOOTH",
"405 -8 OFFCURVE",
"455 18 OFFCURVE",
"488 71 CURVE SMOOTH",
"522 125 OFFCURVE",
"539 187 OFFCURVE",
"539 256 CURVE SMOOTH",
"539 326 OFFCURVE",
"522 388 OFFCURVE",
"488 441 CURVE SMOOTH",
"455 494 OFFCURVE",
"405 521 OFFCURVE",
"340 521 CURVE SMOOTH",
"264 521 OFFCURVE",
"226 495 OFFCURVE",
"189 452 CURVE",
"188 452 LINE",
"189 461 OFFCURVE",
"189 471 OFFCURVE",
"189 481 CURVE SMOOTH",
"189 590 LINE",
"367 590 LINE SMOOTH",
"381 590 OFFCURVE",
"389 596 OFFCURVE",
"389 607 CURVE SMOOTH",
"389 637 LINE SMOOTH",
"389 648 OFFCURVE",
"381 654 OFFCURVE",
"367 654 CURVE SMOOTH",
"189 654 LINE",
"189 699 LINE SMOOTH",
"189 713 OFFCURVE",
"182 721 OFFCURVE",
"167 721 CURVE SMOOTH",
"125 721 LINE SMOOTH",
"111 721 OFFCURVE",
"104 713 OFFCURVE",
"104 699 CURVE SMOOTH",
"104 654 LINE",
"37 654 LINE SMOOTH",
"22 654 OFFCURVE",
"15 648 OFFCURVE",
"15 637 CURVE SMOOTH",
"15 607 LINE SMOOTH",
"15 596 OFFCURVE",
"22 590 OFFCURVE",
"37 590 CURVE SMOOTH"
);
},
{
closed = 1;
nodes = (
"189 313 LINE SMOOTH",
"189 411 OFFCURVE",
"243 458 OFFCURVE",
"312 458 CURVE SMOOTH",
"412 458 OFFCURVE",
"448 374 OFFCURVE",
"448 256 CURVE SMOOTH",
"448 139 OFFCURVE",
"412 55 OFFCURVE",
"312 55 CURVE SMOOTH",
"243 55 OFFCURVE",
"189 101 OFFCURVE",
"189 200 CURVE SMOOTH"
);
}
);
width = 581;
}
);
unicode = 0180;
},
{
glyphname = c;
layers = (
{
layerId = UUID0;
paths = (
{
closed = 1;
nodes = (
"42 106 OFFCURVE",
"114 -8 OFFCURVE",
"272 -8 CURVE SMOOTH",
"333 -8 OFFCURVE",
"379 4 OFFCURVE",
"408 29 CURVE SMOOTH",
"446 63 OFFCURVE",
"467 87 OFFCURVE",
"468 101 CURVE SMOOTH",
"468 107 OFFCURVE",
"465 111 OFFCURVE",
"459 115 CURVE SMOOTH",
"426 134 LINE SMOOTH",
"423 136 OFFCURVE",
"420 137 OFFCURVE",
"417 137 CURVE SMOOTH",
"410 137 OFFCURVE",
"403 132 OFFCURVE",
"397 121 CURVE SMOOTH",
"380 89 OFFCURVE",
"346 55 OFFCURVE",
"272 55 CURVE SMOOTH",
"183 55 OFFCURVE",
"132 120 OFFCURVE",
"132 256 CURVE SMOOTH",
"132 393 OFFCURVE",
"183 458 OFFCURVE",
"272 458 CURVE SMOOTH",
"341 458 OFFCURVE",
"371 433 OFFCURVE",
"389 403 CURVE SMOOTH",
"396 392 OFFCURVE",
"403 386 OFFCURVE",
"410 386 CURVE SMOOTH",
"413 386 OFFCURVE",
"416 388 OFFCURVE",
"418 390 CURVE SMOOTH",
"449 410 LINE SMOOTH",
"455 414 OFFCURVE",
"458 418 OFFCURVE",
"458 423 CURVE SMOOTH",
"458 442 OFFCURVE",
"424 472 OFFCURVE",
"393 493 CURVE SMOOTH",
"365 512 OFFCURVE",
"325 521 OFFCURVE",
"272 521 CURVE SMOOTH",
"115 521 OFFCURVE",
"42 408 OFFCURVE",
"42 256 CURVE SMOOTH"
);
}
);
width = 501;
},
{
layerId = "39B5C782-31E0-4FF6-90B4-6BA13107E116";
paths = (
{
closed = 1;
nodes = (
"39 92 OFFCURVE",
"120 -10 OFFCURVE",
"293 -10 CURVE SMOOTH",
"432 -10 OFFCURVE",
"499 63 OFFCURVE",
"499 96 CURVE SMOOTH",
"499 104 OFFCURVE",
"495 110 OFFCURVE",
"488 116 CURVE SMOOTH",
"442 152 LINE SMOOTH",
"437 156 OFFCURVE",
"431 159 OFFCURVE",
"425 159 CURVE SMOOTH",
"417 159 OFFCURVE",
"410 154 OFFCURVE",
"403 146 CURVE SMOOTH",
"375 110 OFFCURVE",
"347 86 OFFCURVE",
"293 86 CURVE SMOOTH",
"220 86 OFFCURVE",
"184 131 OFFCURVE",
"184 256 CURVE SMOOTH",
"184 381 OFFCURVE",
"221 427 OFFCURVE",
"293 427 CURVE SMOOTH",
"373 427 OFFCURVE",
"384 368 OFFCURVE",
"407 368 CURVE SMOOTH",
"412 368 OFFCURVE",
"417 370 OFFCURVE",
"422 374 CURVE SMOOTH",
"474 408 LINE SMOOTH",
"481 413 OFFCURVE",
"485 419 OFFCURVE",
"485 426 CURVE SMOOTH",
"485 453 OFFCURVE",
"439 489 OFFCURVE",
"411 502 CURVE SMOOTH",
"383 516 OFFCURVE",
"344 522 OFFCURVE",
"293 522 CURVE SMOOTH",
"120 522 OFFCURVE",
"39 421 OFFCURVE",
"39 256 CURVE SMOOTH"
);
}
);
width = 530;
}
);
unicode = 0063;
},
{
glyphname = ccurl;
layers = (
{
layerId = UUID0;
paths = (
{
closed = 1;
nodes = (
"42 187 OFFCURVE",
"55 131 OFFCURVE",
"81 91 CURVE SMOOTH",
"106 51 OFFCURVE",
"132 26 OFFCURVE",
"157 17 CURVE",
"144 -17 OFFCURVE",
"133 -52 OFFCURVE",
"126 -89 CURVE SMOOTH",
"126 -93 OFFCURVE",
"125 -96 OFFCURVE",
"125 -98 CURVE SMOOTH",
"125 -108 OFFCURVE",
"129 -114 OFFCURVE",
"137 -116 CURVE SMOOTH",
"174 -125 LINE",
"176 -126 OFFCURVE",
"179 -126 OFFCURVE",
"181 -126 CURVE SMOOTH",
"190 -126 OFFCURVE",
"195 -121 OFFCURVE",
"197 -110 CURVE SMOOTH",
"202 -83 OFFCURVE",
"211 -48 OFFCURVE",
"225 -5 CURVE",
"242 -7 OFFCURVE",
"257 -8 OFFCURVE",
"272 -8 CURVE SMOOTH",
"403 -8 OFFCURVE",
"464 55 OFFCURVE",
"464 114 CURVE SMOOTH",
"464 178 OFFCURVE",
"409 212 OFFCURVE",
"343 212 CURVE SMOOTH",
"258 212 OFFCURVE",
"204 145 OFFCURVE",
"186 86 CURVE",
"162 105 OFFCURVE",
"132 145 OFFCURVE",
"132 256 CURVE SMOOTH",
"132 393 OFFCURVE",
"183 458 OFFCURVE",
"272 458 CURVE SMOOTH",
"341 458 OFFCURVE",
"371 433 OFFCURVE",
"389 403 CURVE SMOOTH",
"396 392 OFFCURVE",
"403 386 OFFCURVE",
"410 386 CURVE SMOOTH",
"413 386 OFFCURVE",
"416 388 OFFCURVE",
"418 390 CURVE SMOOTH",
"449 410 LINE SMOOTH",
"455 414 OFFCURVE",
"458 418 OFFCURVE",
"458 423 CURVE SMOOTH",
"458 442 OFFCURVE",
"424 473 OFFCURVE",
"393 493 CURVE SMOOTH",
"365 512 OFFCURVE",
"325 521 OFFCURVE",
"272 521 CURVE SMOOTH",
"115 521 OFFCURVE",
"42 407 OFFCURVE",
"42 256 CURVE SMOOTH"
);
},
{
closed = 1;
nodes = (
"267 116 OFFCURVE",
"307 148 OFFCURVE",
"342 148 CURVE SMOOTH",
"371 148 OFFCURVE",
"389 140 OFFCURVE",
"389 115 CURVE SMOOTH",
"389 94 OFFCURVE",
"357 55 OFFCURVE",
"272 55 CURVE SMOOTH",
"263 55 OFFCURVE",
"254 56 OFFCURVE",
"246 57 CURVE"
);
}
);
width = 501;
}
);
unicode = 0255;
},
{
glyphname = cstretched;
layers = (
{
layerId = UUID0;
paths = (
{
closed = 1;
nodes = (
"44 61 LINE SMOOTH",
"44 -88 OFFCURVE",
"116 -204 OFFCURVE",
"272 -204 CURVE SMOOTH",
"334 -204 OFFCURVE",
"378 -190 OFFCURVE",
"407 -165 CURVE SMOOTH",
"438 -135 OFFCURVE",
"469 -101 OFFCURVE",
"469 -83 CURVE SMOOTH",
"469 -77 OFFCURVE",
"465 -72 OFFCURVE",
"458 -68 CURVE SMOOTH",
"424 -52 LINE SMOOTH",
"421 -50 OFFCURVE",
"418 -50 OFFCURVE",
"416 -50 CURVE SMOOTH",
"409 -50 OFFCURVE",
"402 -56 OFFCURVE",
"397 -67 CURVE SMOOTH",
"381 -102 OFFCURVE",
"346 -140 OFFCURVE",
"272 -140 CURVE SMOOTH",
"181 -140 OFFCURVE",
"130 -76 OFFCURVE",
"130 61 CURVE SMOOTH",
"130 256 LINE SMOOTH",
"130 393 OFFCURVE",
"181 458 OFFCURVE",
"272 458 CURVE SMOOTH",
"341 458 OFFCURVE",
"373 427 OFFCURVE",
"389 396 CURVE SMOOTH",
"395 384 OFFCURVE",
"401 378 OFFCURVE",
"409 378 CURVE SMOOTH",
"411 378 OFFCURVE",
"414 379 OFFCURVE",
"417 380 CURVE SMOOTH",
"449 397 LINE SMOOTH",
"455 401 OFFCURVE",
"458 405 OFFCURVE",
"458 412 CURVE SMOOTH",
"458 435 OFFCURVE",
"425 468 OFFCURVE",
"395 490 CURVE SMOOTH",
"366 510 OFFCURVE",
"325 521 OFFCURVE",
"272 521 CURVE SMOOTH",
"117 521 OFFCURVE",
"44 407 OFFCURVE",
"44 256 CURVE SMOOTH"
);
}
);
width = 501;
}
);
unicode = 0297;
},
{
glyphname = d;
layers = (
{
layerId = UUID0;
paths = (
{
closed = 1;
nodes = (
"42 187 OFFCURVE",
"59 125 OFFCURVE",
"92 71 CURVE SMOOTH",
"126 18 OFFCURVE",
"176 -8 OFFCURVE",
"241 -8 CURVE SMOOTH",
"316 -8 OFFCURVE",
"354 18 OFFCURVE",
"391 61 CURVE",
"392 61 LINE",
"395 22 LINE SMOOTH",
"396 7 OFFCURVE",
"402 0 OFFCURVE",
"414 0 CURVE SMOOTH",
"455 0 LINE SMOOTH",
"470 0 OFFCURVE",
"477 7 OFFCURVE",
"477 22 CURVE SMOOTH",
"477 699 LINE SMOOTH",
"477 713 OFFCURVE",
"470 721 OFFCURVE",
"455 721 CURVE SMOOTH",
"413 721 LINE SMOOTH",
"398 721 OFFCURVE",
"391 713 OFFCURVE",
"391 699 CURVE SMOOTH",
"391 481 LINE SMOOTH",
"391 471 OFFCURVE",
"392 461 OFFCURVE",
"392 452 CURVE",
"391 452 LINE",
"354 495 OFFCURVE",
"316 521 OFFCURVE",
"241 521 CURVE SMOOTH",
"176 521 OFFCURVE",
"126 494 OFFCURVE",
"92 441 CURVE SMOOTH",
"59 388 OFFCURVE",
"42 326 OFFCURVE",
"42 256 CURVE SMOOTH"
);
},
{
closed = 1;
nodes = (
"132 375 OFFCURVE",
"168 458 OFFCURVE",
"269 458 CURVE SMOOTH",
"338 458 OFFCURVE",
"391 410 OFFCURVE",
"391 313 CURVE SMOOTH",
"391 200 LINE SMOOTH",
"391 102 OFFCURVE",
"338 55 OFFCURVE",
"269 55 CURVE SMOOTH",
"168 55 OFFCURVE",
"132 138 OFFCURVE",
"132 256 CURVE SMOOTH"
);
}
);
width = 546;
},
{
layerId = "39B5C782-31E0-4FF6-90B4-6BA13107E116";
paths = (
{
closed = 1;
nodes = (
"39 185 OFFCURVE",
"54 122 OFFCURVE",
"85 69 CURVE SMOOTH",
"116 17 OFFCURVE",
"170 -10 OFFCURVE",
"247 -10 CURVE SMOOTH",
"306 -10 OFFCURVE",
"344 1 OFFCURVE",
"379 58 CURVE",
"381 58 LINE",
"383 29 LINE SMOOTH",
"384 10 OFFCURVE",
"393 0 OFFCURVE",
"409 0 CURVE SMOOTH",
"486 0 LINE SMOOTH",
"506 0 OFFCURVE",
"516 10 OFFCURVE",
"516 29 CURVE SMOOTH",
"516 691 LINE SMOOTH",
"516 711 OFFCURVE",
"506 721 OFFCURVE",
"486 721 CURVE SMOOTH",
"408 721 LINE SMOOTH",
"389 721 OFFCURVE",
"379 711 OFFCURVE",
"379 691 CURVE SMOOTH",
"379 494 LINE SMOOTH",
"379 481 OFFCURVE",
"379 468 OFFCURVE",
"381 455 CURVE",
"379 455 LINE",
"344 512 OFFCURVE",
"306 522 OFFCURVE",
"247 522 CURVE SMOOTH",
"170 522 OFFCURVE",
"117 496 OFFCURVE",
"85 443 CURVE SMOOTH",
"55 390 OFFCURVE",
"39 328 OFFCURVE",
"39 256 CURVE SMOOTH"
);
},
{
closed = 1;
nodes = (
"184 359 OFFCURVE",
"201 427 OFFCURVE",
"290 427 CURVE SMOOTH",
"338 427 OFFCURVE",
"379 365 OFFCURVE",
"379 278 CURVE SMOOTH",
"379 234 LINE SMOOTH",
"379 149 OFFCURVE",
"339 86 OFFCURVE",
"290 86 CURVE SMOOTH",
"200 86 OFFCURVE",
"184 154 OFFCURVE",
"184 256 CURVE SMOOTH"
);
}
);
width = 582;
}
);
unicode = 0064;
},
{
glyphname = eth;
layers = (
{
layerId = UUID0;
paths = (
{
closed = 1;
nodes = (
"42 181 OFFCURVE",
"62 120 OFFCURVE",
"102 68 CURVE SMOOTH",
"143 17 OFFCURVE",
"202 -8 OFFCURVE",
"280 -8 CURVE SMOOTH",
"448 -8 OFFCURVE",
"520 124 OFFCURVE",
"520 286 CURVE SMOOTH",
"520 365 OFFCURVE",
"503 437 OFFCURVE",
"470 503 CURVE SMOOTH",
"437 569 OFFCURVE",
"403 616 OFFCURVE",
"369 645 CURVE",
"410 666 LINE SMOOTH",
"418 670 OFFCURVE",
"423 676 OFFCURVE",
"423 683 CURVE SMOOTH",
"423 686 OFFCURVE",
"422 688 OFFCURVE",
"421 691 CURVE SMOOTH",
"413 713 LINE SMOOTH",
"410 720 OFFCURVE",
"405 723 OFFCURVE",
"399 723 CURVE SMOOTH",
"396 723 OFFCURVE",
"391 722 OFFCURVE",
"385 719 CURVE SMOOTH",
"319 685 LINE",
"300 700 OFFCURVE",
"275 713 OFFCURVE",
"244 725 CURVE SMOOTH",
"237 727 OFFCURVE",
"232 728 OFFCURVE",
"227 728 CURVE SMOOTH",
"220 728 OFFCURVE",
"214 725 OFFCURVE",
"210 720 CURVE SMOOTH",
"196 696 LINE SMOOTH",
"194 693 OFFCURVE",
"193 690 OFFCURVE",
"193 687 CURVE SMOOTH",
"193 673 OFFCURVE",
"237 657 OFFCURVE",
"250 649 CURVE",
"187 617 LINE SMOOTH",
"177 612 OFFCURVE",
"173 607 OFFCURVE",
"173 600 CURVE SMOOTH",
"173 597 OFFCURVE",
"173 595 OFFCURVE",
"175 592 CURVE SMOOTH",
"184 569 LINE SMOOTH",
"186 563 OFFCURVE",
"190 560 OFFCURVE",
"196 560 CURVE SMOOTH",
"201 560 OFFCURVE",
"205 561 OFFCURVE",
"211 564 CURVE SMOOTH",
"300 609 LINE",
"324 589 OFFCURVE",
"391 521 OFFCURVE",
"414 458 CURVE",
"410 458 LINE",
"380 489 OFFCURVE",
"328 513 OFFCURVE",
"259 513 CURVE SMOOTH",
"124 513 OFFCURVE",
"42 394 OFFCURVE",
"42 252 CURVE SMOOTH"
);
},
{
closed = 1;
nodes = (
"132 383 OFFCURVE",
"192 449 OFFCURVE",
"280 449 CURVE SMOOTH",
"369 449 OFFCURVE",
"428 369 OFFCURVE",
"428 252 CURVE SMOOTH",
"428 123 OFFCURVE",
"369 55 OFFCURVE",
"280 55 CURVE SMOOTH",
"191 55 OFFCURVE",
"132 119 OFFCURVE",
"132 252 CURVE SMOOTH"
);
}
);
width = 563;
},
{
layerId = "39B5C782-31E0-4FF6-90B4-6BA13107E116";
paths = (
{
closed = 1;
nodes = (
"39 95 OFFCURVE",
"124 -10 OFFCURVE",
"294 -10 CURVE SMOOTH",
"463 -10 OFFCURVE",
"546 73 OFFCURVE",
"546 291 CURVE SMOOTH",
"546 396 OFFCURVE",
"527 474 OFFCURVE",
"489 526 CURVE SMOOTH",
"452 579 OFFCURVE",
"418 616 OFFCURVE",
"388 640 CURVE",
"405 651 LINE SMOOTH",
"417 659 OFFCURVE",
"423 666 OFFCURVE",
"423 675 CURVE SMOOTH",
"423 678 OFFCURVE",
"422 683 OFFCURVE",
"419 687 CURVE SMOOTH",
"401 719 LINE SMOOTH",
"396 727 OFFCURVE",
"391 731 OFFCURVE",
"383 731 CURVE SMOOTH",
"377 731 OFFCURVE",
"371 729 OFFCURVE",
"364 726 CURVE SMOOTH",
"308 694 LINE",
"282 708 OFFCURVE",
"237 732 OFFCURVE",
"215 732 CURVE SMOOTH",
"206 732 OFFCURVE",
"199 729 OFFCURVE",
"194 721 CURVE SMOOTH",
"171 681 LINE SMOOTH",
"168 675 OFFCURVE",
"167 671 OFFCURVE",
"167 667 CURVE SMOOTH",
"167 651 OFFCURVE",
"188 646 OFFCURVE",
"206 638 CURVE",
"181 624 LINE SMOOTH",
"169 617 OFFCURVE",
"163 609 OFFCURVE",
"163 601 CURVE SMOOTH",
"163 597 OFFCURVE",
"164 593 OFFCURVE",
"167 588 CURVE SMOOTH",
"185 556 LINE SMOOTH",
"189 548 OFFCURVE",
"195 543 OFFCURVE",
"203 543 CURVE SMOOTH",
"208 543 OFFCURVE",
"215 545 OFFCURVE",
"222 549 CURVE SMOOTH",
"294 589 LINE",
"323 570 OFFCURVE",
"397 521 OFFCURVE",
"428 444 CURVE",
"423 444 LINE",
"384 491 OFFCURVE",
"346 505 OFFCURVE",
"274 505 CURVE SMOOTH",
"129 505 OFFCURVE",
"39 412 OFFCURVE",
"39 253 CURVE SMOOTH"
);
},
{
closed = 1;
nodes = (
"184 362 OFFCURVE",
"223 410 OFFCURVE",
"294 410 CURVE SMOOTH",
"366 410 OFFCURVE",
"405 362 OFFCURVE",
"405 248 CURVE SMOOTH",
"405 134 OFFCURVE",
"366 86 OFFCURVE",
"294 86 CURVE SMOOTH",
"223 86 OFFCURVE",
"184 134 OFFCURVE",
"184 248 CURVE SMOOTH"
);
}
);
width = 589;
}
);
unicode = 00F0;
},
{
glyphname = dbdigraph;
layers = (
{
layerId = UUID0;
paths = (
{
closed = 1;
nodes = (
"42 187 OFFCURVE",
"59 125 OFFCURVE",
"92 71 CURVE SMOOTH",
"126 18 OFFCURVE",
"176 -8 OFFCURVE",
"241 -8 CURVE SMOOTH",
"316 -8 OFFCURVE",
"354 18 OFFCURVE",
"391 61 CURVE",
"392 61 LINE",
"395 22 LINE SMOOTH",
"396 7 OFFCURVE",
"402 0 OFFCURVE",
"414 0 CURVE SMOOTH",
"454 0 LINE SMOOTH",
"466 0 OFFCURVE",
"472 7 OFFCURVE",
"473 22 CURVE SMOOTH",
"476 61 LINE",
"477 61 LINE",
"513 18 OFFCURVE",
"552 -8 OFFCURVE",
"627 -8 CURVE SMOOTH",
"692 -8 OFFCURVE",
"742 18 OFFCURVE",
"776 71 CURVE SMOOTH",
"810 125 OFFCURVE",
"827 187 OFFCURVE",
"827 256 CURVE SMOOTH",
"827 326 OFFCURVE",
"810 388 OFFCURVE",
"776 441 CURVE SMOOTH",
"742 494 OFFCURVE",
"692 521 OFFCURVE",
"627 521 CURVE SMOOTH",
"552 521 OFFCURVE",
"513 495 OFFCURVE",
"477 452 CURVE",
"476 452 LINE",
"477 461 OFFCURVE",
"477 471 OFFCURVE",
"477 481 CURVE SMOOTH",
"477 699 LINE SMOOTH",
"477 713 OFFCURVE",
"470 721 OFFCURVE",
"455 721 CURVE SMOOTH",
"413 721 LINE SMOOTH",
"398 721 OFFCURVE",
"391 713 OFFCURVE",
"391 699 CURVE SMOOTH",
"391 481 LINE SMOOTH",
"391 471 OFFCURVE",
"392 461 OFFCURVE",
"392 452 CURVE",
"391 452 LINE",
"354 495 OFFCURVE",
"316 521 OFFCURVE",
"241 521 CURVE SMOOTH",
"176 521 OFFCURVE",
"126 494 OFFCURVE",
"92 441 CURVE SMOOTH",
"59 388 OFFCURVE",
"42 326 OFFCURVE",
"42 256 CURVE SMOOTH"
);
},
{
closed = 1;
nodes = (
"132 375 OFFCURVE",
"168 458 OFFCURVE",
"269 458 CURVE SMOOTH",
"338 458 OFFCURVE",
"391 410 OFFCURVE",
"391 313 CURVE SMOOTH",
"391 200 LINE SMOOTH",
"391 102 OFFCURVE",
"338 55 OFFCURVE",
"269 55 CURVE SMOOTH",
"168 55 OFFCURVE",
"132 138 OFFCURVE",
"132 256 CURVE SMOOTH"
);
},
{
closed = 1;
nodes = (
"477 313 LINE SMOOTH",
"477 411 OFFCURVE",
"531 458 OFFCURVE",
"600 458 CURVE SMOOTH",
"700 458 OFFCURVE",
"736 374 OFFCURVE",
"736 256 CURVE SMOOTH",
"736 139 OFFCURVE",
"700 55 OFFCURVE",
"600 55 CURVE SMOOTH",
"530 55 OFFCURVE",
"477 101 OFFCURVE",
"477 200 CURVE SMOOTH"
);
}
);
width = 868;
}
);
unicode = 0238;
},
{
glyphname = dcroat;
layers = (
{
layerId = UUID0;
paths = (
{
closed = 1;
nodes = (
"42 187 OFFCURVE",
"59 125 OFFCURVE",
"92 71 CURVE SMOOTH",
"126 18 OFFCURVE",
"176 -8 OFFCURVE",
"241 -8 CURVE SMOOTH",
"316 -8 OFFCURVE",
"354 18 OFFCURVE",
"391 61 CURVE",
"392 61 LINE",
"395 22 LINE SMOOTH",
"396 7 OFFCURVE",
"402 0 OFFCURVE",
"414 0 CURVE SMOOTH",
"455 0 LINE SMOOTH",
"470 0 OFFCURVE",
"477 7 OFFCURVE",
"477 22 CURVE SMOOTH",
"477 590 LINE",
"533 590 LINE SMOOTH",
"547 590 OFFCURVE",
"555 596 OFFCURVE",
"555 607 CURVE SMOOTH",
"555 637 LINE SMOOTH",
"555 648 OFFCURVE",
"547 654 OFFCURVE",
"533 654 CURVE SMOOTH",
"477 654 LINE",
"477 699 LINE SMOOTH",
"477 713 OFFCURVE",
"470 721 OFFCURVE",
"455 721 CURVE SMOOTH",
"413 721 LINE SMOOTH",
"398 721 OFFCURVE",
"391 713 OFFCURVE",
"391 699 CURVE SMOOTH",
"391 654 LINE",
"241 654 LINE SMOOTH",
"226 654 OFFCURVE",
"219 648 OFFCURVE",
"219 637 CURVE SMOOTH",
"219 607 LINE SMOOTH",
"219 596 OFFCURVE",
"226 590 OFFCURVE",
"241 590 CURVE SMOOTH",
"391 590 LINE",
"391 481 LINE SMOOTH",
"391 471 OFFCURVE",
"392 461 OFFCURVE",
"392 452 CURVE",
"391 452 LINE",
"354 495 OFFCURVE",
"316 521 OFFCURVE",
"241 521 CURVE SMOOTH",
"176 521 OFFCURVE",
"126 494 OFFCURVE",
"92 441 CURVE SMOOTH",
"59 388 OFFCURVE",
"42 326 OFFCURVE",
"42 256 CURVE SMOOTH"
);
},
{
closed = 1;
nodes = (
"132 375 OFFCURVE",
"168 458 OFFCURVE",
"269 458 CURVE SMOOTH",
"338 458 OFFCURVE",
"391 410 OFFCURVE",
"391 313 CURVE SMOOTH",
"391 200 LINE SMOOTH",
"391 102 OFFCURVE",
"338 55 OFFCURVE",
"269 55 CURVE SMOOTH",
"168 55 OFFCURVE",
"132 138 OFFCURVE",
"132 256 CURVE SMOOTH"
);
}
);
width = 564;
},
{
layerId = "39B5C782-31E0-4FF6-90B4-6BA13107E116";
paths = (
{
closed = 1;
nodes = (
"39 185 OFFCURVE",
"54 122 OFFCURVE",
"85 69 CURVE SMOOTH",
"116 17 OFFCURVE",
"170 -10 OFFCURVE",
"247 -10 CURVE SMOOTH",
"306 -10 OFFCURVE",
"344 1 OFFCURVE",
"379 58 CURVE",
"381 58 LINE",
"383 29 LINE SMOOTH",
"384 10 OFFCURVE",
"393 0 OFFCURVE",
"409 0 CURVE SMOOTH",
"486 0 LINE SMOOTH",
"506 0 OFFCURVE",
"516 10 OFFCURVE",
"516 29 CURVE SMOOTH",
"516 576 LINE",
"567 576 LINE SMOOTH",
"586 576 OFFCURVE",
"596 584 OFFCURVE",
"596 601 CURVE SMOOTH",
"596 649 LINE SMOOTH",
"596 666 OFFCURVE",
"586 674 OFFCURVE",
"567 674 CURVE SMOOTH",
"516 674 LINE",
"516 691 LINE SMOOTH",
"516 711 OFFCURVE",
"506 721 OFFCURVE",
"486 721 CURVE SMOOTH",
"408 721 LINE SMOOTH",
"389 721 OFFCURVE",
"379 711 OFFCURVE",
"379 691 CURVE SMOOTH",
"379 674 LINE",
"247 674 LINE SMOOTH",
"227 674 OFFCURVE",
"217 666 OFFCURVE",
"217 649 CURVE SMOOTH",
"217 601 LINE SMOOTH",
"217 584 OFFCURVE",
"227 576 OFFCURVE",
"247 576 CURVE SMOOTH",
"379 576 LINE",
"379 494 LINE SMOOTH",
"379 481 OFFCURVE",
"379 468 OFFCURVE",
"381 455 CURVE",
"379 455 LINE",
"344 512 OFFCURVE",
"306 522 OFFCURVE",
"247 522 CURVE SMOOTH",
"170 522 OFFCURVE",
"117 496 OFFCURVE",
"85 443 CURVE SMOOTH",
"55 390 OFFCURVE",
"39 328 OFFCURVE",
"39 256 CURVE SMOOTH"
);
},
{
closed = 1;
nodes = (
"184 359 OFFCURVE",
"201 427 OFFCURVE",
"290 427 CURVE SMOOTH",
"338 427 OFFCURVE",
"379 365 OFFCURVE",
"379 278 CURVE SMOOTH",
"379 234 LINE SMOOTH",
"379 149 OFFCURVE",
"339 86 OFFCURVE",
"290 86 CURVE SMOOTH",
"200 86 OFFCURVE",
"184 154 OFFCURVE",
"184 256 CURVE SMOOTH"
);
}
);
width = 604;
}
);
unicode = 0111;
},
{
glyphname = dezh;
layers = (
{
layerId = UUID0;
paths = (
{
closed = 1;
nodes = (
"132 375 OFFCURVE",
"168 458 OFFCURVE",
"269 458 CURVE SMOOTH",
"338 458 OFFCURVE",
"391 410 OFFCURVE",
"391 313 CURVE SMOOTH",
"391 200 LINE SMOOTH",
"391 102 OFFCURVE",
"338 55 OFFCURVE",
"269 55 CURVE SMOOTH",
"168 55 OFFCURVE",
"132 138 OFFCURVE",
"132 256 CURVE SMOOTH"
);
},
{
closed = 1;
nodes = (
"42 187 OFFCURVE",
"59 125 OFFCURVE",
"92 71 CURVE SMOOTH",
"126 18 OFFCURVE",
"176 -8 OFFCURVE",
"241 -8 CURVE SMOOTH",
"316 -8 OFFCURVE",
"354 18 OFFCURVE",
"391 61 CURVE",
"392 61 LINE",
"395 22 LINE SMOOTH",
"396 7 OFFCURVE",
"402 0 OFFCURVE",
"414 0 CURVE SMOOTH",
"455 0 LINE SMOOTH",
"470 0 OFFCURVE",
"477 7 OFFCURVE",
"477 22 CURVE SMOOTH",
"477 448 LINE",
"718 448 LINE SMOOTH",
"728 448 OFFCURVE",
"737 449 OFFCURVE",
"747 449 CURVE",
"747 448 LINE",
"572 230 LINE SMOOTH",
"561 216 OFFCURVE",
"555 203 OFFCURVE",
"555 191 CURVE SMOOTH",
"555 167 LINE SMOOTH",
"555 155 OFFCURVE",
"563 149 OFFCURVE",
"577 149 CURVE SMOOTH",
"614 149 LINE SMOOTH",
"729 149 OFFCURVE",
"761 98 OFFCURVE",
"761 7 CURVE SMOOTH",
"761 -92 OFFCURVE",
"733 -140 OFFCURVE",
"636 -140 CURVE SMOOTH",
"599 -140 OFFCURVE",
"571 -132 OFFCURVE",
"551 -117 CURVE SMOOTH",
"503 -80 OFFCURVE",
"515 -77 OFFCURVE",
"500 -77 CURVE SMOOTH",
"496 -77 OFFCURVE",
"492 -79 OFFCURVE",
"489 -82 CURVE SMOOTH",
"459 -105 LINE SMOOTH",
"456 -109 OFFCURVE",
"454 -113 OFFCURVE",
"454 -118 CURVE SMOOTH",
"454 -122 OFFCURVE",
"455 -127 OFFCURVE",
"458 -132 CURVE SMOOTH",
"461 -137 OFFCURVE",
"478 -150 OFFCURVE",
"509 -171 CURVE SMOOTH",
"540 -193 OFFCURVE",
"584 -204 OFFCURVE",
"641 -204 CURVE SMOOTH",
"783 -204 OFFCURVE",
"852 -136 OFFCURVE",
"852 11 CURVE SMOOTH",
"852 139 OFFCURVE",
"770 212 OFFCURVE",
"651 212 CURVE",
"651 214 LINE",
"828 435 LINE SMOOTH",
"840 450 OFFCURVE",
"846 462 OFFCURVE",
"846 473 CURVE SMOOTH",
"846 496 LINE SMOOTH",
"846 507 OFFCURVE",
"839 513 OFFCURVE",
"824 513 CURVE SMOOTH",
"477 513 LINE",
"477 699 LINE SMOOTH",
"477 713 OFFCURVE",
"470 721 OFFCURVE",
"455 721 CURVE SMOOTH",
"413 721 LINE SMOOTH",
"398 721 OFFCURVE",
"391 713 OFFCURVE",
"391 699 CURVE SMOOTH",
"391 481 LINE SMOOTH",
"391 471 OFFCURVE",
"392 461 OFFCURVE",
"392 452 CURVE",
"391 452 LINE",
"354 495 OFFCURVE",
"316 521 OFFCURVE",
"241 521 CURVE SMOOTH",
"176 521 OFFCURVE",
"126 494 OFFCURVE",
"92 441 CURVE SMOOTH",
"59 388 OFFCURVE",
"42 326 OFFCURVE",
"42 256 CURVE SMOOTH"
);
}
);
width = 900;
}
);
unicode = 02A4;
},
{
glyphname = dhook;
layers = (
{
layerId = UUID0;
paths = (
{
closed = 1;
nodes = (
"42 187 OFFCURVE",
"59 125 OFFCURVE",
"92 71 CURVE SMOOTH",
"126 18 OFFCURVE",
"176 -8 OFFCURVE",
"241 -8 CURVE SMOOTH",
"316 -8 OFFCURVE",
"354 18 OFFCURVE",
"391 61 CURVE",
"392 61 LINE",
"395 22 LINE SMOOTH",
"396 7 OFFCURVE",
"402 0 OFFCURVE",
"414 0 CURVE SMOOTH",
"455 0 LINE SMOOTH",
"470 0 OFFCURVE",
"477 7 OFFCURVE",
"477 22 CURVE SMOOTH",
"477 571 LINE SMOOTH",
"477 647 OFFCURVE",
"513 666 OFFCURVE",
"548 666 CURVE SMOOTH",
"571 666 OFFCURVE",
"587 659 OFFCURVE",
"599 650 CURVE SMOOTH",
"602 649 OFFCURVE",
"604 648 OFFCURVE",
"605 648 CURVE SMOOTH",
"610 648 OFFCURVE",
"613 651 OFFCURVE",
"616 657 CURVE SMOOTH",
"633 693 LINE SMOOTH",
"634 695 OFFCURVE",
"635 697 OFFCURVE",
"635 699 CURVE SMOOTH",
"635 711 OFFCURVE",
"596 722 OFFCURVE",
"585 725 CURVE SMOOTH",
"573 727 OFFCURVE",
"558 729 OFFCURVE",
"540 729 CURVE SMOOTH",
"501 729 OFFCURVE",
"467 719 OFFCURVE",
"437 698 CURVE SMOOTH",
"406 677 OFFCURVE",
"391 640 OFFCURVE",
"391 585 CURVE SMOOTH",
"391 481 LINE SMOOTH",
"391 472 OFFCURVE",
"392 462 OFFCURVE",
"392 452 CURVE",
"391 452 LINE",
"354 495 OFFCURVE",
"316 521 OFFCURVE",
"241 521 CURVE SMOOTH",
"176 521 OFFCURVE",
"126 494 OFFCURVE",
"92 441 CURVE SMOOTH",
"59 388 OFFCURVE",
"42 326 OFFCURVE",
"42 256 CURVE SMOOTH"
);
},
{
closed = 1;
nodes = (
"132 375 OFFCURVE",
"168 458 OFFCURVE",
"269 458 CURVE SMOOTH",
"338 458 OFFCURVE",
"391 410 OFFCURVE",
"391 313 CURVE SMOOTH",
"391 200 LINE SMOOTH",
"391 102 OFFCURVE",
"338 55 OFFCURVE",
"269 55 CURVE SMOOTH",
"168 55 OFFCURVE",
"132 138 OFFCURVE",
"132 256 CURVE SMOOTH"
);
}
);
width = 601;
}
);
unicode = 0257;
},
{
glyphname = dtail;
layers = (
{
layerId = UUID0;
paths = (
{
closed = 1;
nodes = (
"42 187 OFFCURVE",
"59 125 OFFCURVE",
"92 71 CURVE SMOOTH",
"126 18 OFFCURVE",
"176 -8 OFFCURVE",
"241 -8 CURVE SMOOTH",
"316 -8 OFFCURVE",
"354 18 OFFCURVE",
"391 61 CURVE",
"392 61 LINE",
"392 51 OFFCURVE",
"391 42 OFFCURVE",
"391 31 CURVE SMOOTH",
"391 -45 LINE SMOOTH",
"391 -108 OFFCURVE",
"403 -151 OFFCURVE",
"427 -172 CURVE SMOOTH",
"451 -193 OFFCURVE",
"480 -204 OFFCURVE",
"516 -204 CURVE SMOOTH",
"563 -204 OFFCURVE",
"600 -198 OFFCURVE",
"600 -182 CURVE SMOOTH",
"600 -181 OFFCURVE",
"599 -180 OFFCURVE",
"599 -178 CURVE",
"591 -139 LINE SMOOTH",
"590 -133 OFFCURVE",
"587 -130 OFFCURVE",
"583 -130 CURVE SMOOTH",
"582 -130 OFFCURVE",
"580 -130 OFFCURVE",
"579 -131 CURVE SMOOTH",
"566 -137 OFFCURVE",
"550 -140 OFFCURVE",
"532 -140 CURVE SMOOTH",
"494 -140 OFFCURVE",
"477 -116 OFFCURVE",
"477 3 CURVE SMOOTH",
"477 699 LINE SMOOTH",
"477 713 OFFCURVE",
"470 721 OFFCURVE",
"455 721 CURVE SMOOTH",
"413 721 LINE SMOOTH",
"398 721 OFFCURVE",
"391 713 OFFCURVE",
"391 699 CURVE SMOOTH",
"391 481 LINE SMOOTH",
"391 471 OFFCURVE",
"392 461 OFFCURVE",
"392 452 CURVE",
"391 452 LINE",
"354 495 OFFCURVE",
"316 521 OFFCURVE",
"241 521 CURVE SMOOTH",
"176 521 OFFCURVE",
"126 494 OFFCURVE",
"92 441 CURVE SMOOTH",
"59 388 OFFCURVE",
"42 326 OFFCURVE",
"42 256 CURVE SMOOTH"
);
},
{
closed = 1;
nodes = (
"132 375 OFFCURVE",
"168 458 OFFCURVE",
"269 458 CURVE SMOOTH",
"338 458 OFFCURVE",
"391 410 OFFCURVE",
"391 313 CURVE SMOOTH",
"391 200 LINE SMOOTH",
"391 102 OFFCURVE",
"338 55 OFFCURVE",
"269 55 CURVE SMOOTH",
"168 55 OFFCURVE",
"132 138 OFFCURVE",
"132 256 CURVE SMOOTH"
);
}
);
width = 550;
},
{
layerId = "39B5C782-31E0-4FF6-90B4-6BA13107E116";
paths = (
{
closed = 1;
nodes = (
"39 185 OFFCURVE",
"54 122 OFFCURVE",
"85 69 CURVE SMOOTH",
"116 17 OFFCURVE",
"170 -10 OFFCURVE",
"247 -10 CURVE SMOOTH",
"306 -10 OFFCURVE",
"344 1 OFFCURVE",
"379 58 CURVE",
"381 58 LINE",
"379 44 OFFCURVE",
"379 32 OFFCURVE",
"379 19 CURVE SMOOTH",
"379 -2 LINE SMOOTH",
"379 -83 OFFCURVE",
"395 -137 OFFCURVE",
"426 -164 CURVE SMOOTH",
"458 -191 OFFCURVE",
"500 -205 OFFCURVE",
"551 -205 CURVE SMOOTH",
"578 -205 OFFCURVE",
"602 -204 OFFCURVE",
"623 -200 CURVE SMOOTH",
"633 -198 OFFCURVE",
"638 -192 OFFCURVE",
"638 -182 CURVE SMOOTH",
"638 -180 OFFCURVE",
"638 -177 OFFCURVE",
"637 -174 CURVE SMOOTH",
"626 -121 LINE SMOOTH",
"624 -110 OFFCURVE",
"619 -104 OFFCURVE",
"610 -104 CURVE SMOOTH",
"603 -104 OFFCURVE",
"592 -109 OFFCURVE",
"568 -109 CURVE SMOOTH",
"529 -109 OFFCURVE",
"516 -64 OFFCURVE",
"516 13 CURVE SMOOTH",
"516 691 LINE SMOOTH",
"516 711 OFFCURVE",
"506 721 OFFCURVE",
"486 721 CURVE SMOOTH",
"408 721 LINE SMOOTH",
"389 721 OFFCURVE",
"379 711 OFFCURVE",
"379 691 CURVE SMOOTH",
"379 494 LINE SMOOTH",
"379 481 OFFCURVE",
"379 468 OFFCURVE",
"381 455 CURVE",
"379 455 LINE",
"344 512 OFFCURVE",
"306 522 OFFCURVE",
"247 522 CURVE SMOOTH",
"170 522 OFFCURVE",
"117 496 OFFCURVE",
"85 443 CURVE SMOOTH",
"55 390 OFFCURVE",
"39 328 OFFCURVE",
"39 256 CURVE SMOOTH"
);
},
{
closed = 1;
nodes = (
"184 359 OFFCURVE",
"201 427 OFFCURVE",
"290 427 CURVE SMOOTH",
"338 427 OFFCURVE",
"379 365 OFFCURVE",
"379 278 CURVE SMOOTH",
"379 234 LINE SMOOTH",
"379 149 OFFCURVE",
"339 86 OFFCURVE",
"290 86 CURVE SMOOTH",
"200 86 OFFCURVE",
"184 154 OFFCURVE",
"184 256 CURVE SMOOTH"
);
}
);
width = 588;
}
);
unicode = 0256;
},
{
glyphname = dzaltone;
layers = (
{
layerId = UUID0;
paths = (
{
closed = 1;
nodes = (
"42 187 OFFCURVE",
"59 125 OFFCURVE",
"92 71 CURVE SMOOTH",
"126 18 OFFCURVE",
"176 -8 OFFCURVE",
"241 -8 CURVE SMOOTH",
"316 -8 OFFCURVE",
"354 18 OFFCURVE",
"391 61 CURVE",
"392 61 LINE",
"395 22 LINE SMOOTH",
"396 7 OFFCURVE",
"402 0 OFFCURVE",
"414 0 CURVE SMOOTH",
"860 0 LINE SMOOTH",
"875 0 OFFCURVE",
"882 6 OFFCURVE",
"882 17 CURVE SMOOTH",
"882 47 LINE SMOOTH",
"882 59 OFFCURVE",
"875 64 OFFCURVE",
"860 64 CURVE SMOOTH",
"598 64 LINE SMOOTH",
"588 64 OFFCURVE",
"578 64 OFFCURVE",
"568 63 CURVE",
"568 64 LINE",
"853 435 LINE SMOOTH",
"865 450 OFFCURVE",
"871 463 OFFCURVE",
"871 473 CURVE SMOOTH",
"871 496 LINE SMOOTH",
"871 507 OFFCURVE",
"863 513 OFFCURVE",
"849 513 CURVE SMOOTH",
"477 513 LINE",
"477 699 LINE SMOOTH",
"477 713 OFFCURVE",
"470 721 OFFCURVE",
"455 721 CURVE SMOOTH",
"413 721 LINE SMOOTH",
"398 721 OFFCURVE",
"391 713 OFFCURVE",
"391 699 CURVE SMOOTH",
"391 481 LINE SMOOTH",
"391 471 OFFCURVE",
"392 461 OFFCURVE",
"392 452 CURVE",
"391 452 LINE",
"354 495 OFFCURVE",
"316 521 OFFCURVE",
"241 521 CURVE SMOOTH",
"176 521 OFFCURVE",
"126 494 OFFCURVE",
"92 441 CURVE SMOOTH",
"59 388 OFFCURVE",
"42 326 OFFCURVE",
"42 256 CURVE SMOOTH"
);
},
{
closed = 1;
nodes = (
"132 375 OFFCURVE",
"168 458 OFFCURVE",
"269 458 CURVE SMOOTH",
"338 458 OFFCURVE",
"391 410 OFFCURVE",
"391 313 CURVE SMOOTH",
"391 200 LINE SMOOTH",
"391 102 OFFCURVE",
"338 55 OFFCURVE",
"269 55 CURVE SMOOTH",
"168 55 OFFCURVE",
"132 138 OFFCURVE",
"132 256 CURVE SMOOTH"
);
},
{
closed = 1;
nodes = (
"477 448 LINE",
"742 448 LINE SMOOTH",
"752 448 OFFCURVE",
"762 449 OFFCURVE",
"771 449 CURVE",
"771 448 LINE",
"478 66 LINE",
"477 66 LINE"
);
}
);
width = 909;
}
);
unicode = 02A3;
},
{
glyphname = dzcurl;
layers = (
{
layerId = UUID0;
paths = (
{
closed = 1;
nodes = (
"477 448 LINE",
"742 448 LINE SMOOTH",
"752 448 OFFCURVE",
"762 449 OFFCURVE",
"771 449 CURVE",
"771 448 LINE",
"478 66 LINE",
"477 66 LINE"
);
},
{
closed = 1;
nodes = (
"132 375 OFFCURVE",
"168 458 OFFCURVE",
"269 458 CURVE SMOOTH",
"338 458 OFFCURVE",
"391 410 OFFCURVE",
"391 313 CURVE SMOOTH",
"391 200 LINE SMOOTH",
"391 102 OFFCURVE",
"338 55 OFFCURVE",
"269 55 CURVE SMOOTH",
"168 55 OFFCURVE",
"132 138 OFFCURVE",
"132 256 CURVE SMOOTH"
);
},
{
closed = 1;
nodes = (
"42 187 OFFCURVE",
"59 125 OFFCURVE",
"92 71 CURVE SMOOTH",
"126 18 OFFCURVE",
"176 -8 OFFCURVE",
"241 -8 CURVE SMOOTH",
"316 -8 OFFCURVE",
"354 18 OFFCURVE",
"391 61 CURVE",
"392 61 LINE",
"395 22 LINE SMOOTH",
"396 7 OFFCURVE",
"402 0 OFFCURVE",
"414 0 CURVE SMOOTH",
"654 0 LINE",
"642 -29 OFFCURVE",
"633 -59 OFFCURVE",
"626 -89 CURVE SMOOTH",
"625 -93 OFFCURVE",
"625 -96 OFFCURVE",
"625 -99 CURVE SMOOTH",
"625 -108 OFFCURVE",
"629 -114 OFFCURVE",
"637 -116 CURVE SMOOTH",
"674 -125 LINE SMOOTH",
"676 -126 OFFCURVE",
"678 -126 OFFCURVE",
"680 -126 CURVE SMOOTH",
"688 -126 OFFCURVE",
"694 -121 OFFCURVE",
"697 -110 CURVE SMOOTH",
"709 -64 OFFCURVE",
"721 -27 OFFCURVE",
"732 0 CURVE",
"781 0 LINE SMOOTH",
"855 0 OFFCURVE",
"901 11 OFFCURVE",
"919 32 CURVE SMOOTH",
"937 53 OFFCURVE",
"946 78 OFFCURVE",
"946 108 CURVE SMOOTH",
"946 175 OFFCURVE",
"905 212 OFFCURVE",
"838 212 CURVE SMOOTH",
"770 212 OFFCURVE",
"717 168 OFFCURVE",
"677 64 CURVE",
"598 64 LINE SMOOTH",
"588 64 OFFCURVE",
"578 64 OFFCURVE",
"568 63 CURVE",
"568 64 LINE",
"853 435 LINE SMOOTH",
"865 450 OFFCURVE",
"871 463 OFFCURVE",
"871 473 CURVE SMOOTH",
"871 496 LINE SMOOTH",
"871 507 OFFCURVE",
"863 513 OFFCURVE",
"849 513 CURVE SMOOTH",
"477 513 LINE",
"477 699 LINE SMOOTH",
"477 713 OFFCURVE",
"470 721 OFFCURVE",
"455 721 CURVE SMOOTH",
"413 721 LINE SMOOTH",
"398 721 OFFCURVE",
"391 713 OFFCURVE",
"391 699 CURVE SMOOTH",
"391 481 LINE SMOOTH",
"391 471 OFFCURVE",
"392 461 OFFCURVE",
"392 452 CURVE",
"391 452 LINE",
"354 495 OFFCURVE",
"316 521 OFFCURVE",
"241 521 CURVE SMOOTH",
"176 521 OFFCURVE",
"126 494 OFFCURVE",
"92 441 CURVE SMOOTH",
"59 388 OFFCURVE",
"42 326 OFFCURVE",
"42 256 CURVE SMOOTH"
);
},
{
closed = 1;
nodes = (
"751 64 LINE",
"766 105 OFFCURVE",
"796 148 OFFCURVE",
"832 148 CURVE SMOOTH",
"864 148 OFFCURVE",
"871 129 OFFCURVE",
"871 116 CURVE SMOOTH",
"871 89 OFFCURVE",
"862 64 OFFCURVE",
"801 64 CURVE SMOOTH"
);
}
);
width = 973;
}
);
unicode = 02A5;
},
{
glyphname = e;
layers = (
{
layerId = UUID0;
paths = (
{
closed = 1;
nodes = (
"42 97 OFFCURVE",
"114 -8 OFFCURVE",
"279 -8 CURVE SMOOTH",
"342 -8 OFFCURVE",
"387 2 OFFCURVE",
"417 23 CURVE SMOOTH",
"464 58 OFFCURVE",
"475 71 OFFCURVE",
"475 83 CURVE SMOOTH",
"475 88 OFFCURVE",
"473 92 OFFCURVE",
"470 95 CURVE SMOOTH",
"441 120 LINE SMOOTH",
"437 123 OFFCURVE",
"434 125 OFFCURVE",
"430 125 CURVE SMOOTH",
"407 125 OFFCURVE",
"389 56 OFFCURVE",
"279 56 CURVE SMOOTH",
"209 56 OFFCURVE",
"143 96 OFFCURVE",
"132 224 CURVE",
"473 224 LINE SMOOTH",
"486 224 OFFCURVE",
"493 231 OFFCURVE",
"493 246 CURVE SMOOTH",
"493 440 OFFCURVE",
"397 521 OFFCURVE",
"275 521 CURVE SMOOTH",
"125 521 OFFCURVE",
"42 416 OFFCURVE",
"42 256 CURVE SMOOTH"
);
},
{
closed = 1;
nodes = (
"130 287 LINE",
"140 417 OFFCURVE",
"200 458 OFFCURVE",
"273 458 CURVE SMOOTH",
"360 458 OFFCURVE",
"403 375 OFFCURVE",
"406 287 CURVE"
);
}
);
width = 536;
},
{
layerId = "39B5C782-31E0-4FF6-90B4-6BA13107E116";
paths = (
{
closed = 1;
nodes = (
"39 93 OFFCURVE",
"110 -10 OFFCURVE",
"298 -10 CURVE SMOOTH",
"415 -10 OFFCURVE",
"454 12 OFFCURVE",
"495 61 CURVE SMOOTH",
"500 68 OFFCURVE",
"503 74 OFFCURVE",
"503 80 CURVE SMOOTH",
"503 88 OFFCURVE",
"498 96 OFFCURVE",
"486 103 CURVE SMOOTH",
"438 133 LINE SMOOTH",
"431 137 OFFCURVE",
"425 139 OFFCURVE",
"419 139 CURVE SMOOTH",
"402 139 OFFCURVE",
"384 109 OFFCURVE",
"360 97 CURVE SMOOTH",
"346 89 OFFCURVE",
"325 86 OFFCURVE",
"298 86 CURVE SMOOTH",
"270 86 OFFCURVE",
"245 93 OFFCURVE",
"224 107 CURVE SMOOTH",
"202 121 OFFCURVE",
"189 155 OFFCURVE",
"184 209 CURVE",
"506 209 LINE SMOOTH",
"524 209 OFFCURVE",
"533 219 OFFCURVE",
"533 238 CURVE SMOOTH",
"533 438 OFFCURVE",
"450 522 OFFCURVE",
"275 522 CURVE SMOOTH",
"125 522 OFFCURVE",
"39 421 OFFCURVE",
"39 256 CURVE SMOOTH"
);
},
{
closed = 1;
nodes = (
"184 307 LINE",
"188 381 OFFCURVE",
"225 426 OFFCURVE",
"286 426 CURVE SMOOTH",
"363 426 OFFCURVE",
"396 376 OFFCURVE",
"396 307 CURVE"
);
}
);
width = 573;
}
);
unicode = 0065;
},
{
glyphname = eogonek;
layers = (
{
layerId = UUID0;
paths = (
{
closed = 1;
nodes = (
"42 97 OFFCURVE",
"114 -8 OFFCURVE",
"279 -8 CURVE SMOOTH",
"287 -8 OFFCURVE",
"295 -8 OFFCURVE",
"303 -7 CURVE",
"303 -8 LINE",
"255 -43 OFFCURVE",
"226 -69 OFFCURVE",
"226 -125 CURVE SMOOTH",
"226 -164 OFFCURVE",
"257 -204 OFFCURVE",
"333 -204 CURVE SMOOTH",
"351 -204 OFFCURVE",
"402 -204 OFFCURVE",
"402 -188 CURVE SMOOTH",
"402 -187 OFFCURVE",
"401 -186 OFFCURVE",
"401 -185 CURVE SMOOTH",
"395 -146 LINE SMOOTH",
"394 -140 OFFCURVE",
"391 -136 OFFCURVE",
"386 -136 CURVE SMOOTH",
"376 -136 OFFCURVE",
"362 -140 OFFCURVE",
"344 -140 CURVE SMOOTH",
"322 -140 OFFCURVE",
"304 -129 OFFCURVE",
"304 -103 CURVE SMOOTH",
"304 -85 OFFCURVE",
"316 -65 OFFCURVE",
"340 -43 CURVE SMOOTH",
"364 -22 OFFCURVE",
"385 -3 OFFCURVE",
"403 14 CURVE",
"428 30 OFFCURVE",
"476 60 OFFCURVE",
"476 83 CURVE SMOOTH",
"476 87 OFFCURVE",
"474 91 OFFCURVE",
"470 95 CURVE SMOOTH",
"441 120 LINE SMOOTH",
"437 123 OFFCURVE",
"434 125 OFFCURVE",
"430 125 CURVE SMOOTH",
"407 125 OFFCURVE",
"389 56 OFFCURVE",
"279 56 CURVE SMOOTH",
"209 56 OFFCURVE",
"143 96 OFFCURVE",
"132 224 CURVE",
"473 224 LINE SMOOTH",
"486 224 OFFCURVE",
"493 231 OFFCURVE",
"493 246 CURVE SMOOTH",
"493 440 OFFCURVE",
"397 521 OFFCURVE",
"275 521 CURVE SMOOTH",
"125 521 OFFCURVE",
"42 416 OFFCURVE",
"42 256 CURVE SMOOTH"
);
},
{
closed = 1;
nodes = (
"130 287 LINE",
"140 417 OFFCURVE",
"200 458 OFFCURVE",
"273 458 CURVE SMOOTH",
"360 458 OFFCURVE",
"403 375 OFFCURVE",
"406 287 CURVE"
);
}
);
width = 536;
},
{
layerId = "39B5C782-31E0-4FF6-90B4-6BA13107E116";
paths = (
{
closed = 1;
nodes = (
"39 93 OFFCURVE",
"114 -10 OFFCURVE",
"288 -10 CURVE SMOOTH",
"292 -10 OFFCURVE",
"294 -9 OFFCURVE",
"298 -9 CURVE",
"298 -11 LINE",
"223 -52 OFFCURVE",
"219 -87 OFFCURVE",
"218 -121 CURVE",
"218 -176 OFFCURVE",
"264 -205 OFFCURVE",
"355 -205 CURVE SMOOTH",
"407 -205 OFFCURVE",
"438 -204 OFFCURVE",
"438 -183 CURVE SMOOTH",
"438 -182 OFFCURVE",
"438 -181 OFFCURVE",
"438 -180 CURVE SMOOTH",
"431 -122 LINE SMOOTH",
"429 -112 OFFCURVE",
"424 -106 OFFCURVE",
"416 -106 CURVE SMOOTH",
"405 -106 OFFCURVE",
"390 -109 OFFCURVE",
"372 -109 CURVE SMOOTH",
"351 -109 OFFCURVE",
"333 -106 OFFCURVE",
"333 -86 CURVE SMOOTH",
"333 -66 OFFCURVE",
"388 -32 OFFCURVE",
"420 -5 CURVE",
"451 24 OFFCURVE",
"471 33 OFFCURVE",
"495 61 CURVE SMOOTH",
"500 68 OFFCURVE",
"503 74 OFFCURVE",
"503 80 CURVE SMOOTH",
"503 88 OFFCURVE",
"498 96 OFFCURVE",
"486 103 CURVE SMOOTH",
"438 133 LINE SMOOTH",
"431 137 OFFCURVE",
"425 139 OFFCURVE",
"419 139 CURVE SMOOTH",
"402 139 OFFCURVE",
"384 109 OFFCURVE",
"360 97 CURVE SMOOTH",
"346 89 OFFCURVE",
"325 86 OFFCURVE",
"298 86 CURVE SMOOTH",
"270 86 OFFCURVE",
"245 93 OFFCURVE",
"224 107 CURVE SMOOTH",
"202 121 OFFCURVE",
"189 155 OFFCURVE",
"184 209 CURVE",
"506 209 LINE SMOOTH",
"524 209 OFFCURVE",
"533 219 OFFCURVE",
"533 238 CURVE SMOOTH",
"533 438 OFFCURVE",
"450 522 OFFCURVE",
"275 522 CURVE SMOOTH",
"125 522 OFFCURVE",
"39 421 OFFCURVE",
"39 256 CURVE SMOOTH"
);
},
{
closed = 1;
nodes = (
"184 307 LINE",
"188 381 OFFCURVE",
"225 426 OFFCURVE",
"286 426 CURVE SMOOTH",
"363 426 OFFCURVE",
"396 376 OFFCURVE",
"396 307 CURVE"
);
}
);
width = 573;
}
);
unicode = 0119;
},
{
glyphname = eopen;
layers = (
{
layerId = UUID0;
paths = (
{
closed = 1;
nodes = (
"49 35 OFFCURVE",
"132 -8 OFFCURVE",
"242 -8 CURVE SMOOTH",
"352 -8 OFFCURVE",
"416 47 OFFCURVE",
"416 66 CURVE SMOOTH",
"416 70 OFFCURVE",
"414 75 OFFCURVE",
"410 79 CURVE SMOOTH",
"383 105 LINE SMOOTH",
"379 108 OFFCURVE",
"376 110 OFFCURVE",
"372 110 CURVE SMOOTH",
"356 110 OFFCURVE",
"366 104 OFFCURVE",
"316 73 CURVE SMOOTH",
"297 61 OFFCURVE",
"274 55 OFFCURVE",
"247 55 CURVE SMOOTH",
"165 55 OFFCURVE",
"140 98 OFFCURVE",
"140 146 CURVE SMOOTH",
"140 204 OFFCURVE",
"180 236 OFFCURVE",
"244 236 CURVE SMOOTH",
"284 236 LINE SMOOTH",
"297 236 OFFCURVE",
"304 242 OFFCURVE",
"304 253 CURVE SMOOTH",
"304 282 LINE SMOOTH",
"304 293 OFFCURVE",
"297 299 OFFCURVE",
"284 299 CURVE SMOOTH",
"249 299 LINE SMOOTH",
"189 299 OFFCURVE",
"158 322 OFFCURVE",
"158 380 CURVE SMOOTH",
"158 439 OFFCURVE",
"197 458 OFFCURVE",
"248 458 CURVE SMOOTH",
"280 458 OFFCURVE",
"327 438 OFFCURVE",
"343 426 CURVE SMOOTH",
"353 417 OFFCURVE",
"362 413 OFFCURVE",
"368 413 CURVE SMOOTH",
"371 413 OFFCURVE",
"374 414 OFFCURVE",
"376 416 CURVE SMOOTH",
"402 442 LINE SMOOTH",
"406 446 OFFCURVE",
"408 450 OFFCURVE",
"408 455 CURVE SMOOTH",
"408 474 OFFCURVE",
"359 500 OFFCURVE",
"333 509 CURVE SMOOTH",
"311 517 OFFCURVE",
"282 521 OFFCURVE",
"245 521 CURVE SMOOTH",
"139 521 OFFCURVE",
"72 452 OFFCURVE",
"72 387 CURVE SMOOTH",
"72 316 OFFCURVE",
"102 291 OFFCURVE",
"139 273 CURVE",
"139 271 LINE",
"88 257 OFFCURVE",
"49 202 OFFCURVE",
"49 150 CURVE SMOOTH"
);
}
);
width = 448;
},
{
layerId = "39B5C782-31E0-4FF6-90B4-6BA13107E116";
paths = (
{
closed = 1;
nodes = (
"46 45 OFFCURVE",
"154 -10 OFFCURVE",
"263 -10 CURVE SMOOTH",
"355 -10 OFFCURVE",
"452 23 OFFCURVE",
"452 49 CURVE SMOOTH",
"452 56 OFFCURVE",
"449 63 OFFCURVE",
"444 71 CURVE SMOOTH",
"420 111 LINE SMOOTH",
"415 120 OFFCURVE",
"409 124 OFFCURVE",
"401 124 CURVE SMOOTH",
"388 124 OFFCURVE",
"368 105 OFFCURVE",
"330 95 CURVE SMOOTH",
"306 89 OFFCURVE",
"286 86 OFFCURVE",
"268 86 CURVE SMOOTH",
"208 86 OFFCURVE",
"187 122 OFFCURVE",
"187 158 CURVE SMOOTH",
"187 188 OFFCURVE",
"208 219 OFFCURVE",
"273 219 CURVE SMOOTH",
"314 219 LINE SMOOTH",
"331 219 OFFCURVE",
"339 227 OFFCURVE",
"339 243 CURVE SMOOTH",
"339 292 LINE SMOOTH",
"339 308 OFFCURVE",
"331 316 OFFCURVE",
"314 316 CURVE SMOOTH",
"264 316 LINE SMOOTH",
"224 316 OFFCURVE",
"194 337 OFFCURVE",
"194 376 CURVE SMOOTH",
"194 415 OFFCURVE",
"239 427 OFFCURVE",
"280 427 CURVE SMOOTH",
"313 427 OFFCURVE",
"344 423 OFFCURVE",
"372 401 CURVE SMOOTH",
"380 395 OFFCURVE",
"387 392 OFFCURVE",
"393 392 CURVE SMOOTH",
"399 392 OFFCURVE",
"404 395 OFFCURVE",
"409 401 CURVE SMOOTH",
"437 439 LINE SMOOTH",
"442 446 OFFCURVE",
"444 453 OFFCURVE",
"444 458 CURVE SMOOTH",
"444 483 OFFCURVE",
"388 506 OFFCURVE",
"356 513 CURVE SMOOTH",
"327 519 OFFCURVE",
"298 522 OFFCURVE",
"270 522 CURVE SMOOTH",
"148 522 OFFCURVE",
"62 465 OFFCURVE",
"62 393 CURVE SMOOTH",
"62 321 OFFCURVE",
"97 297 OFFCURVE",
"150 273 CURVE",
"150 271 LINE",
"80 240 OFFCURVE",
"46 201 OFFCURVE",
"46 147 CURVE SMOOTH"
);
}
);
width = 482;
}
);
unicode = 025B;
},
{
glyphname = eopenclosed;
layers = (
{
layerId = UUID0;
paths = (
{
closed = 1;
nodes = (
"49 36 OFFCURVE",
"128 -8 OFFCURVE",
"262 -8 CURVE SMOOTH",
"420 -8 OFFCURVE",
"501 106 OFFCURVE",
"501 256 CURVE SMOOTH",
"501 407 OFFCURVE",
"419 521 OFFCURVE",
"262 521 CURVE SMOOTH",
"136 521 OFFCURVE",
"72 452 OFFCURVE",
"72 387 CURVE SMOOTH",
"72 316 OFFCURVE",
"102 291 OFFCURVE",
"139 273 CURVE",
"139 271 LINE",
"88 257 OFFCURVE",
"49 202 OFFCURVE",
"49 150 CURVE SMOOTH"
);
},
{
closed = 1;
nodes = (
"140 204 OFFCURVE",
"180 236 OFFCURVE",
"244 236 CURVE SMOOTH",
"284 236 LINE SMOOTH",
"297 236 OFFCURVE",
"304 242 OFFCURVE",
"304 253 CURVE SMOOTH",
"304 282 LINE SMOOTH",
"304 293 OFFCURVE",
"297 299 OFFCURVE",
"284 299 CURVE SMOOTH",
"249 299 LINE SMOOTH",
"189 299 OFFCURVE",
"158 322 OFFCURVE",
"158 380 CURVE SMOOTH",
"158 438 OFFCURVE",
"195 458 OFFCURVE",
"262 458 CURVE SMOOTH",
"351 458 OFFCURVE",
"410 394 OFFCURVE",
"410 256 CURVE SMOOTH",
"410 119 OFFCURVE",
"351 55 OFFCURVE",
"262 55 CURVE SMOOTH",
"161 55 OFFCURVE",
"140 99 OFFCURVE",
"140 146 CURVE SMOOTH"
);
}
);
width = 542;
}
);
unicode = 029A;
},
{
glyphname = eopenreversedhook;
layers = (
{
layerId = UUID0;
paths = (
{
closed = 1;
nodes = (
"39 79 LINE SMOOTH",
"35 75 OFFCURVE",
"33 70 OFFCURVE",
"33 66 CURVE SMOOTH",
"33 52 OFFCURVE",
"63 31 OFFCURVE",
"98 12 CURVE SMOOTH",
"123 -1 OFFCURVE",
"160 -8 OFFCURVE",
"207 -8 CURVE SMOOTH",
"315 -8 OFFCURVE",
"399 35 OFFCURVE",
"399 150 CURVE SMOOTH",
"399 202 OFFCURVE",
"359 257 OFFCURVE",
"309 271 CURVE",
"309 273 LINE",
"348 291 OFFCURVE",
"363 315 OFFCURVE",
"370 335 CURVE",
"448 360 LINE",
"448 358 LINE",
"438 342 OFFCURVE",
"432 320 OFFCURVE",
"432 302 CURVE SMOOTH",
"432 252 OFFCURVE",
"470 211 OFFCURVE",
"531 211 CURVE SMOOTH",
"570 211 OFFCURVE",
"600 222 OFFCURVE",
"624 239 CURVE SMOOTH",
"626 241 OFFCURVE",
"628 244 OFFCURVE",
"628 248 CURVE SMOOTH",
"628 250 OFFCURVE",
"627 253 OFFCURVE",
"626 256 CURVE SMOOTH",
"616 278 LINE SMOOTH",
"613 284 OFFCURVE",
"610 286 OFFCURVE",
"605 286 CURVE SMOOTH",
"603 286 OFFCURVE",
"601 286 OFFCURVE",
"598 285 CURVE SMOOTH",
"579 276 OFFCURVE",
"561 272 OFFCURVE",
"542 272 CURVE SMOOTH",
"509 272 OFFCURVE",
"495 290 OFFCURVE",
"495 326 CURVE SMOOTH",
"495 346 OFFCURVE",
"508 380 OFFCURVE",
"533 405 CURVE SMOOTH",
"536 409 OFFCURVE",
"538 413 OFFCURVE",
"538 417 CURVE SMOOTH",
"538 420 OFFCURVE",
"537 425 OFFCURVE",
"534 429 CURVE SMOOTH",
"524 444 LINE SMOOTH",
"522 448 OFFCURVE",
"519 450 OFFCURVE",
"514 450 CURVE SMOOTH",
"511 450 OFFCURVE",
"508 449 OFFCURVE",
"504 448 CURVE SMOOTH",
"375 407 LINE",
"369 433 OFFCURVE",
"353 458 OFFCURVE",
"325 483 CURVE SMOOTH",
"296 508 OFFCURVE",
"256 521 OFFCURVE",
"203 521 CURVE SMOOTH",
"129 521 OFFCURVE",
"93 506 OFFCURVE",
"53 474 CURVE SMOOTH",
"44 467 OFFCURVE",
"40 460 OFFCURVE",
"40 455 CURVE SMOOTH",
"40 450 OFFCURVE",
"42 446 OFFCURVE",
"46 442 CURVE SMOOTH",
"72 416 LINE SMOOTH",
"74 414 OFFCURVE",
"77 413 OFFCURVE",
"80 413 CURVE SMOOTH",
"94 413 OFFCURVE",
"103 430 OFFCURVE",
"146 447 CURVE SMOOTH",
"166 454 OFFCURVE",
"183 458 OFFCURVE",
"200 458 CURVE SMOOTH",
"250 458 OFFCURVE",
"291 438 OFFCURVE",
"291 380 CURVE SMOOTH",
"291 322 OFFCURVE",
"259 299 OFFCURVE",
"200 299 CURVE SMOOTH",
"164 299 LINE SMOOTH",
"151 299 OFFCURVE",
"145 293 OFFCURVE",
"145 282 CURVE SMOOTH",
"145 253 LINE SMOOTH",
"145 242 OFFCURVE",
"151 236 OFFCURVE",
"164 236 CURVE SMOOTH",
"204 236 LINE SMOOTH",
"268 236 OFFCURVE",
"309 204 OFFCURVE",
"309 146 CURVE SMOOTH",
"309 98 OFFCURVE",
"284 55 OFFCURVE",
"201 55 CURVE SMOOTH",
"148 55 OFFCURVE",
"104 90 OFFCURVE",
"97 98 CURVE SMOOTH",
"89 106 OFFCURVE",
"83 110 OFFCURVE",
"76 110 CURVE SMOOTH",
"72 110 OFFCURVE",
"69 108 OFFCURVE",
"65 105 CURVE SMOOTH"
);
}
);
width = 448;
}
);
unicode = 025D;
},
{
glyphname = esh;
layers = (
{
layerId = UUID0;
paths = (
{
closed = 1;
nodes = (
"-26 -200 OFFCURVE",
"-1 -204 OFFCURVE",
"33 -204 CURVE SMOOTH",
"69 -204 OFFCURVE",
"98 -193 OFFCURVE",
"122 -172 CURVE SMOOTH",
"146 -151 OFFCURVE",
"158 -108 OFFCURVE",
"158 -45 CURVE SMOOTH",
"158 571 LINE SMOOTH",
"158 647 OFFCURVE",
"193 666 OFFCURVE",
"232 666 CURVE SMOOTH",
"258 666 OFFCURVE",
"273 659 OFFCURVE",
"285 650 CURVE SMOOTH",
"288 649 OFFCURVE",
"290 648 OFFCURVE",
"292 648 CURVE SMOOTH",
"296 648 OFFCURVE",
"299 651 OFFCURVE",
"302 657 CURVE SMOOTH",
"318 693 LINE SMOOTH",
"319 695 OFFCURVE",
"320 697 OFFCURVE",
"320 699 CURVE SMOOTH",
"320 711 OFFCURVE",
"282 722 OFFCURVE",
"271 725 CURVE SMOOTH",
"259 727 OFFCURVE",
"243 729 OFFCURVE",
"224 729 CURVE SMOOTH",
"184 729 OFFCURVE",
"148 719 OFFCURVE",
"118 698 CURVE SMOOTH",
"87 677 OFFCURVE",
"72 640 OFFCURVE",
"72 585 CURVE SMOOTH",
"72 3 LINE SMOOTH",
"72 -114 OFFCURVE",
"55 -140 OFFCURVE",
"18 -140 CURVE SMOOTH",
"-1 -140 OFFCURVE",
"-17 -137 OFFCURVE",
"-29 -131 CURVE SMOOTH",
"-31 -130 OFFCURVE",
"-33 -130 OFFCURVE",
"-34 -130 CURVE SMOOTH",
"-38 -130 OFFCURVE",
"-41 -133 OFFCURVE",
"-42 -139 CURVE SMOOTH",
"-50 -178 LINE SMOOTH",
"-50 -180 OFFCURVE",
"-50 -181 OFFCURVE",
"-50 -182 CURVE SMOOTH",
"-50 -187 OFFCURVE",
"-47 -191 OFFCURVE",
"-41 -194 CURVE SMOOTH"
);
}
);
width = 286;
},
{
layerId = "39B5C782-31E0-4FF6-90B4-6BA13107E116";
paths = (
{
closed = 1;
nodes = (
"-20 -203 OFFCURVE",
"5 -205 OFFCURVE",
"34 -205 CURVE SMOOTH",
"87 -205 OFFCURVE",
"129 -191 OFFCURVE",
"161 -164 CURVE SMOOTH",
"192 -137 OFFCURVE",
"208 -83 OFFCURVE",
"208 -2 CURVE SMOOTH",
"208 532 LINE SMOOTH",
"208 621 OFFCURVE",
"214 635 OFFCURVE",
"262 635 CURVE SMOOTH",
"277 635 OFFCURVE",
"302 633 OFFCURVE",
"316 627 CURVE SMOOTH",
"320 626 OFFCURVE",
"323 625 OFFCURVE",
"326 625 CURVE SMOOTH",
"333 625 OFFCURVE",
"337 629 OFFCURVE",
"339 637 CURVE SMOOTH",
"354 692 LINE SMOOTH",
"354 695 OFFCURVE",
"354 697 OFFCURVE",
"354 700 CURVE SMOOTH",
"354 721 OFFCURVE",
"302 730 OFFCURVE",
"246 730 CURVE SMOOTH",
"199 730 OFFCURVE",
"158 721 OFFCURVE",
"123 701 CURVE SMOOTH",
"88 681 OFFCURVE",
"71 641 OFFCURVE",
"71 581 CURVE SMOOTH",
"71 13 LINE SMOOTH",
"71 -64 OFFCURVE",
"58 -109 OFFCURVE",
"17 -109 CURVE SMOOTH",
"-13 -109 OFFCURVE",
"-21 -104 OFFCURVE",
"-28 -104 CURVE SMOOTH",
"-36 -104 OFFCURVE",
"-41 -109 OFFCURVE",
"-43 -121 CURVE SMOOTH",
"-54 -174 LINE SMOOTH",
"-54 -177 OFFCURVE",
"-55 -180 OFFCURVE",
"-55 -182 CURVE SMOOTH",
"-55 -192 OFFCURVE",
"-49 -198 OFFCURVE",
"-40 -200 CURVE SMOOTH"
);
}
);
width = 279;
}
);
unicode = 0283;
},
{
glyphname = eshcurl;
layers = (
{
layerId = UUID0;
paths = (
{
closed = 1;
nodes = (
"4 -160 OFFCURVE",
"65 -204 OFFCURVE",
"140 -204 CURVE SMOOTH",
"213 -204 OFFCURVE",
"271 -164 OFFCURVE",
"277 -73 CURVE",
"308 -97 OFFCURVE",
"326 -119 OFFCURVE",
"338 -146 CURVE SMOOTH",
"341 -154 OFFCURVE",
"346 -158 OFFCURVE",
"353 -158 CURVE SMOOTH",
"356 -158 OFFCURVE",
"360 -157 OFFCURVE",
"364 -155 CURVE SMOOTH",
"391 -141 LINE SMOOTH",
"395 -138 OFFCURVE",
"397 -134 OFFCURVE",
"397 -129 CURVE SMOOTH",
"397 -101 OFFCURVE",
"350 -32 OFFCURVE",
"279 2 CURVE",
"279 571 LINE SMOOTH",
"279 647 OFFCURVE",
"314 666 OFFCURVE",
"353 666 CURVE SMOOTH",
"379 666 OFFCURVE",
"395 659 OFFCURVE",
"406 650 CURVE SMOOTH",
"409 649 OFFCURVE",
"411 648 OFFCURVE",
"413 648 CURVE SMOOTH",
"417 648 OFFCURVE",
"420 651 OFFCURVE",
"423 657 CURVE SMOOTH",
"439 693 LINE SMOOTH",
"440 696 OFFCURVE",
"441 697 OFFCURVE",
"441 699 CURVE SMOOTH",
"441 711 OFFCURVE",
"403 722 OFFCURVE",
"392 725 CURVE SMOOTH",
"380 727 OFFCURVE",
"364 729 OFFCURVE",
"345 729 CURVE SMOOTH",
"305 729 OFFCURVE",
"270 719 OFFCURVE",
"239 698 CURVE SMOOTH",
"208 677 OFFCURVE",
"193 640 OFFCURVE",
"193 585 CURVE SMOOTH",
"193 29 LINE",
"174 36 OFFCURVE",
"155 40 OFFCURVE",
"138 40 CURVE SMOOTH",
"54 40 OFFCURVE",
"4 -15 OFFCURVE",
"4 -85 CURVE SMOOTH"
);
},
{
closed = 1;
nodes = (
"81 -51 OFFCURVE",
"100 -29 OFFCURVE",
"135 -29 CURVE SMOOTH",
"151 -29 OFFCURVE",
"170 -32 OFFCURVE",
"192 -38 CURVE",
"191 -60 OFFCURVE",
"188 -83 OFFCURVE",
"183 -105 CURVE SMOOTH",
"177 -128 OFFCURVE",
"160 -140 OFFCURVE",
"130 -140 CURVE SMOOTH",
"106 -140 OFFCURVE",
"81 -127 OFFCURVE",
"81 -88 CURVE SMOOTH"
);
}
);
width = 413;
}
);
unicode = 0286;
},
{
glyphname = eshsquatreversed;
layers = (
{
layerId = UUID0;
paths = (
{
closed = 1;
nodes = (
"45 457 OFFCURVE",
"56 458 OFFCURVE",
"66 458 CURVE SMOOTH",
"141 458 OFFCURVE",
"197 386 OFFCURVE",
"197 253 CURVE SMOOTH",
"197 -45 LINE SMOOTH",
"197 -108 OFFCURVE",
"209 -151 OFFCURVE",
"233 -172 CURVE SMOOTH",
"257 -193 OFFCURVE",
"287 -204 OFFCURVE",
"322 -204 CURVE SMOOTH",
"370 -204 OFFCURVE",
"406 -198 OFFCURVE",
"406 -182 CURVE SMOOTH",
"406 -181 OFFCURVE",
"405 -180 OFFCURVE",
"405 -178 CURVE",
"397 -139 LINE SMOOTH",
"396 -133 OFFCURVE",
"393 -130 OFFCURVE",
"390 -130 CURVE SMOOTH",
"388 -130 OFFCURVE",
"386 -130 OFFCURVE",
"385 -131 CURVE SMOOTH",
"372 -137 OFFCURVE",
"356 -140 OFFCURVE",
"338 -140 CURVE SMOOTH",
"300 -140 OFFCURVE",
"283 -116 OFFCURVE",
"283 3 CURVE SMOOTH",
"283 266 LINE SMOOTH",
"283 406 OFFCURVE",
"213 521 OFFCURVE",
"62 521 CURVE SMOOTH",
"26 521 OFFCURVE",
"9 516 OFFCURVE",
"9 505 CURVE SMOOTH",
"9 503 OFFCURVE",
"9 502 OFFCURVE",
"10 501 CURVE SMOOTH",
"21 461 LINE",
"22 456 OFFCURVE",
"25 454 OFFCURVE",
"30 454 CURVE SMOOTH",
"31 454 OFFCURVE",
"32 454 OFFCURVE",
"34 454 CURVE SMOOTH"
);
}
);
width = 353;
}
);
unicode = 0285;
},
{
glyphname = schwahook;
layers = (
{
layerId = UUID0;
paths = (
{
closed = 1;
nodes = (
"406 271 LINE",
"406 182 OFFCURVE",
"391 123 OFFCURVE",
"362 95 CURVE SMOOTH",
"333 68 OFFCURVE",
"300 54 OFFCURVE",
"263 54 CURVE SMOOTH",
"205 54 OFFCURVE",
"163 79 OFFCURVE",
"138 167 CURVE"
);
},
{
closed = 1;
nodes = (
"50 143 OFFCURVE",
"69 96 OFFCURVE",
"106 54 CURVE SMOOTH",
"144 13 OFFCURVE",
"196 -8 OFFCURVE",
"261 -8 CURVE SMOOTH",
"412 -8 OFFCURVE",
"495 96 OFFCURVE",
"495 256 CURVE SMOOTH",
"495 275 OFFCURVE",
"494 293 OFFCURVE",
"491 311 CURVE",
"586 356 LINE",
"586 354 LINE",
"576 338 OFFCURVE",
"570 320 OFFCURVE",
"570 302 CURVE SMOOTH",
"570 252 OFFCURVE",
"608 211 OFFCURVE",
"669 211 CURVE SMOOTH",
"708 211 OFFCURVE",
"738 222 OFFCURVE",
"762 239 CURVE SMOOTH",
"765 241 OFFCURVE",
"766 244 OFFCURVE",
"766 248 CURVE SMOOTH",
"766 250 OFFCURVE",
"766 253 OFFCURVE",
"764 256 CURVE SMOOTH",
"754 278 LINE SMOOTH",
"751 284 OFFCURVE",
"748 286 OFFCURVE",
"743 286 CURVE SMOOTH",
"741 286 OFFCURVE",
"739 286 OFFCURVE",
"736 285 CURVE SMOOTH",
"717 276 OFFCURVE",
"699 272 OFFCURVE",
"681 272 CURVE SMOOTH",
"647 272 OFFCURVE",
"633 290 OFFCURVE",
"633 326 CURVE SMOOTH",
"633 346 OFFCURVE",
"646 380 OFFCURVE",
"671 405 CURVE SMOOTH",
"674 409 OFFCURVE",
"676 413 OFFCURVE",
"676 417 CURVE SMOOTH",
"676 420 OFFCURVE",
"675 425 OFFCURVE",
"672 429 CURVE SMOOTH",
"663 444 LINE SMOOTH",
"660 448 OFFCURVE",
"657 450 OFFCURVE",
"652 450 CURVE SMOOTH",
"649 450 OFFCURVE",
"646 449 OFFCURVE",
"643 448 CURVE SMOOTH",
"478 373 LINE",
"468 402 OFFCURVE",
"449 434 OFFCURVE",
"421 469 CURVE SMOOTH",
"393 503 OFFCURVE",
"338 521 OFFCURVE",
"257 521 CURVE SMOOTH",
"194 521 OFFCURVE",
"148 511 OFFCURVE",
"119 490 CURVE SMOOTH",
"72 456 OFFCURVE",
"61 442 OFFCURVE",
"61 429 CURVE SMOOTH",
"61 424 OFFCURVE",
"63 420 OFFCURVE",
"66 417 CURVE SMOOTH",
"95 393 LINE SMOOTH",
"99 389 OFFCURVE",
"103 388 OFFCURVE",
"106 388 CURVE SMOOTH",
"127 388 OFFCURVE",
"151 457 OFFCURVE",
"252 457 CURVE SMOOTH",
"322 457 OFFCURVE",
"365 428 OFFCURVE",
"396 340 CURVE",
"70 215 LINE SMOOTH",
"57 209 OFFCURVE",
"50 202 OFFCURVE",
"50 193 CURVE SMOOTH"
);
}
);
width = 754;
}
);
unicode = 025A;
},
{
glyphname = ezh;
layers = (
{
layerId = UUID0;
paths = (
{
closed = 1;
nodes = (
"40 -137 OFFCURVE",
"57 -150 OFFCURVE",
"88 -171 CURVE SMOOTH",
"119 -193 OFFCURVE",
"163 -204 OFFCURVE",
"220 -204 CURVE SMOOTH",
"362 -204 OFFCURVE",
"431 -136 OFFCURVE",
"431 11 CURVE SMOOTH",
"431 139 OFFCURVE",
"349 212 OFFCURVE",
"230 212 CURVE",
"230 214 LINE",
"407 435 LINE SMOOTH",
"419 450 OFFCURVE",
"425 462 OFFCURVE",
"425 473 CURVE SMOOTH",
"425 496 LINE SMOOTH",
"425 507 OFFCURVE",
"418 513 OFFCURVE",
"403 513 CURVE SMOOTH",
"61 513 LINE SMOOTH",
"46 513 OFFCURVE",
"39 507 OFFCURVE",
"39 496 CURVE SMOOTH",
"39 465 LINE SMOOTH",
"39 454 OFFCURVE",
"46 448 OFFCURVE",
"61 448 CURVE SMOOTH",
"297 448 LINE SMOOTH",
"307 448 OFFCURVE",
"316 449 OFFCURVE",
"326 449 CURVE",
"326 448 LINE",
"151 230 LINE SMOOTH",
"140 216 OFFCURVE",
"134 203 OFFCURVE",
"134 191 CURVE SMOOTH",
"134 167 LINE SMOOTH",
"134 155 OFFCURVE",
"142 149 OFFCURVE",
"156 149 CURVE SMOOTH",
"193 149 LINE SMOOTH",
"309 149 OFFCURVE",
"340 98 OFFCURVE",
"340 7 CURVE SMOOTH",
"340 -92 OFFCURVE",
"312 -140 OFFCURVE",
"215 -140 CURVE SMOOTH",
"178 -140 OFFCURVE",
"150 -132 OFFCURVE",
"130 -117 CURVE SMOOTH",
"83 -80 OFFCURVE",
"94 -77 OFFCURVE",
"79 -77 CURVE SMOOTH",
"75 -77 OFFCURVE",
"71 -79 OFFCURVE",
"68 -82 CURVE SMOOTH",
"39 -105 LINE SMOOTH",
"35 -109 OFFCURVE",
"33 -113 OFFCURVE",
"33 -118 CURVE SMOOTH",
"33 -122 OFFCURVE",
"34 -127 OFFCURVE",
"38 -132 CURVE SMOOTH"
);
}
);
width = 479;
},
{
layerId = "39B5C782-31E0-4FF6-90B4-6BA13107E116";
paths = (
{
closed = 1;
nodes = (
"75 -183 OFFCURVE",
"131 -205 OFFCURVE",
"232 -205 CURVE SMOOTH",
"379 -205 OFFCURVE",
"454 -129 OFFCURVE",
"454 7 CURVE SMOOTH",
"454 114 OFFCURVE",
"397 195 OFFCURVE",
"274 219 CURVE",
"274 221 LINE",
"413 401 LINE SMOOTH",
"427 419 OFFCURVE",
"434 437 OFFCURVE",
"434 454 CURVE SMOOTH",
"434 488 LINE SMOOTH",
"434 504 OFFCURVE",
"424 513 OFFCURVE",
"404 513 CURVE SMOOTH",
"68 513 LINE SMOOTH",
"49 513 OFFCURVE",
"39 504 OFFCURVE",
"39 488 CURVE SMOOTH",
"39 439 LINE SMOOTH",
"39 423 OFFCURVE",
"49 415 OFFCURVE",
"68 415 CURVE SMOOTH",
"225 415 LINE SMOOTH",
"238 415 OFFCURVE",
"251 416 OFFCURVE",
"264 417 CURVE",
"264 415 LINE",
"128 238 LINE SMOOTH",
"115 221 OFFCURVE",
"108 203 OFFCURVE",
"108 185 CURVE SMOOTH",
"108 148 LINE SMOOTH",
"108 132 OFFCURVE",
"118 124 OFFCURVE",
"137 124 CURVE SMOOTH",
"183 124 LINE SMOOTH",
"280 124 OFFCURVE",
"310 75 OFFCURVE",
"310 5 CURVE SMOOTH",
"310 -57 OFFCURVE",
"288 -109 OFFCURVE",
"228 -109 CURVE SMOOTH",
"171 -109 OFFCURVE",
"148 -93 OFFCURVE",
"119 -63 CURVE SMOOTH",
"111 -56 OFFCURVE",
"104 -52 OFFCURVE",
"96 -52 CURVE",
"89 -51 OFFCURVE",
"83 -55 OFFCURVE",
"76 -62 CURVE SMOOTH",
"40 -99 LINE SMOOTH",
"33 -106 OFFCURVE",
"30 -113 OFFCURVE",
"30 -121 CURVE SMOOTH",
"30 -128 OFFCURVE",
"33 -135 OFFCURVE",
"40 -143 CURVE SMOOTH"
);
}
);
width = 500;
}
);
unicode = 0292;
},
{
glyphname = ezhcurl;
layers = (
{
layerId = UUID0;
paths = (
{
closed = 1;
nodes = (
"33 -139 OFFCURVE",
"55 -172 OFFCURVE",
"99 -185 CURVE SMOOTH",
"144 -197 OFFCURVE",
"181 -204 OFFCURVE",
"213 -204 CURVE SMOOTH",
"327 -204 OFFCURVE",
"389 -154 OFFCURVE",
"406 -113 CURVE",
"420 -130 OFFCURVE",
"438 -154 OFFCURVE",
"447 -180 CURVE SMOOTH",
"450 -188 OFFCURVE",
"455 -192 OFFCURVE",
"461 -192 CURVE SMOOTH",
"465 -192 OFFCURVE",
"469 -191 OFFCURVE",
"473 -189 CURVE SMOOTH",
"505 -175 LINE SMOOTH",
"509 -173 OFFCURVE",
"511 -169 OFFCURVE",
"511 -164 CURVE SMOOTH",
"511 -135 OFFCURVE",
"458 -63 OFFCURVE",
"428 -37 CURVE",
"430 -22 OFFCURVE",
"431 -6 OFFCURVE",
"431 11 CURVE SMOOTH",
"431 139 OFFCURVE",
"349 212 OFFCURVE",
"230 212 CURVE",
"230 214 LINE",
"407 435 LINE SMOOTH",
"419 450 OFFCURVE",
"425 462 OFFCURVE",
"425 473 CURVE SMOOTH",
"425 496 LINE SMOOTH",
"425 507 OFFCURVE",
"418 513 OFFCURVE",
"403 513 CURVE SMOOTH",
"61 513 LINE SMOOTH",
"46 513 OFFCURVE",
"39 507 OFFCURVE",
"39 496 CURVE SMOOTH",
"39 465 LINE SMOOTH",
"39 454 OFFCURVE",
"46 448 OFFCURVE",
"61 448 CURVE SMOOTH",
"297 448 LINE SMOOTH",
"307 448 OFFCURVE",
"316 449 OFFCURVE",
"326 449 CURVE",
"326 448 LINE",
"151 230 LINE SMOOTH",
"140 216 OFFCURVE",
"134 203 OFFCURVE",
"134 191 CURVE SMOOTH",
"134 167 LINE SMOOTH",
"134 155 OFFCURVE",
"142 149 OFFCURVE",
"156 149 CURVE SMOOTH",
"193 149 LINE SMOOTH",
"309 149 OFFCURVE",
"339 98 OFFCURVE",
"340 11 CURVE",
"310 22 OFFCURVE",
"266 32 OFFCURVE",
"215 32 CURVE SMOOTH",
"103 32 OFFCURVE",
"33 -17 OFFCURVE",
"33 -85 CURVE SMOOTH"
);
},
{
closed = 1;
nodes = (
"109 -45 OFFCURVE",
"165 -37 OFFCURVE",
"212 -37 CURVE SMOOTH",
"271 -37 OFFCURVE",
"314 -52 OFFCURVE",
"333 -60 CURVE",
"328 -97 OFFCURVE",
"297 -140 OFFCURVE",
"209 -140 CURVE SMOOTH",
"177 -140 OFFCURVE",
"109 -129 OFFCURVE",
"109 -93 CURVE SMOOTH"
);
}
);
width = 493;
}
);
unicode = 0293;
},
{
glyphname = f;
layers = (
{
layerId = UUID0;
paths = (
{
closed = 1;
nodes = (
"96 448 LINE",
"96 22 LINE SMOOTH",
"96 7 OFFCURVE",
"104 0 OFFCURVE",
"118 0 CURVE SMOOTH",
"160 0 LINE SMOOTH",
"175 0 OFFCURVE",
"182 7 OFFCURVE",
"182 22 CURVE SMOOTH",
"182 448 LINE",
"271 448 LINE SMOOTH",
"286 448 OFFCURVE",
"293 454 OFFCURVE",
"293 465 CURVE SMOOTH",
"293 496 LINE SMOOTH",
"293 507 OFFCURVE",
"286 513 OFFCURVE",
"271 513 CURVE SMOOTH",
"182 513 LINE",
"182 571 LINE SMOOTH",
"182 646 OFFCURVE",
"205 666 OFFCURVE",
"258 666 CURVE SMOOTH",
"288 666 OFFCURVE",
"316 650 OFFCURVE",
"327 650 CURVE SMOOTH",
"331 650 OFFCURVE",
"334 652 OFFCURVE",
"335 656 CURVE SMOOTH",
"351 695 LINE SMOOTH",
"352 697 OFFCURVE",
"352 699 OFFCURVE",
"352 701 CURVE SMOOTH",
"352 714 OFFCURVE",
"306 724 OFFCURVE",
"295 726 CURVE SMOOTH",
"281 728 OFFCURVE",
"263 729 OFFCURVE",
"241 729 CURVE SMOOTH",
"203 729 OFFCURVE",
"169 719 OFFCURVE",
"140 698 CURVE SMOOTH",
"111 677 OFFCURVE",
"96 640 OFFCURVE",
"96 585 CURVE SMOOTH",
"96 513 LINE",
"44 513 LINE SMOOTH",
"29 513 OFFCURVE",
"22 507 OFFCURVE",
"22 496 CURVE SMOOTH",
"22 465 LINE SMOOTH",
"22 454 OFFCURVE",
"29 448 OFFCURVE",
"44 448 CURVE SMOOTH"
);
}
);
width = 318;
},
{
layerId = "39B5C782-31E0-4FF6-90B4-6BA13107E116";
paths = (
{
closed = 1;
nodes = (
"77 415 LINE",
"77 29 LINE SMOOTH",
"77 10 OFFCURVE",
"86 0 OFFCURVE",
"106 0 CURVE SMOOTH",
"184 0 LINE SMOOTH",
"204 0 OFFCURVE",
"213 10 OFFCURVE",
"213 29 CURVE SMOOTH",
"213 415 LINE",
"278 415 LINE SMOOTH",
"297 415 OFFCURVE",
"307 423 OFFCURVE",
"307 439 CURVE SMOOTH",
"307 488 LINE SMOOTH",
"307 504 OFFCURVE",
"297 513 OFFCURVE",
"278 513 CURVE SMOOTH",
"213 513 LINE",
"213 532 LINE SMOOTH",
"213 602 OFFCURVE",
"217 635 OFFCURVE",
"266 635 CURVE SMOOTH",
"288 635 OFFCURVE",
"335 625 OFFCURVE",
"335 625 CURVE SMOOTH",
"342 625 OFFCURVE",
"347 629 OFFCURVE",
"349 637 CURVE SMOOTH",
"363 692 LINE SMOOTH",
"364 695 OFFCURVE",
"364 697 OFFCURVE",
"364 700 CURVE SMOOTH",
"364 722 OFFCURVE",
"308 730 OFFCURVE",
"250 730 CURVE SMOOTH",
"203 730 OFFCURVE",
"162 721 OFFCURVE",
"128 701 CURVE SMOOTH",
"94 681 OFFCURVE",
"77 641 OFFCURVE",
"77 581 CURVE SMOOTH",
"77 513 LINE",
"49 513 LINE SMOOTH",
"30 513 OFFCURVE",
"21 504 OFFCURVE",
"21 488 CURVE SMOOTH",
"21 439 LINE SMOOTH",
"21 423 OFFCURVE",
"30 415 OFFCURVE",
"49 415 CURVE SMOOTH"
);
}
);
width = 333;
}
);
unicode = 0066;
},
{
glyphname = fengdigraph;
layers = (
{
layerId = UUID0;
paths = (
{
closed = 1;
nodes = (
"96 448 LINE",
"96 22 LINE SMOOTH",
"96 7 OFFCURVE",
"104 0 OFFCURVE",
"118 0 CURVE SMOOTH",
"160 0 LINE SMOOTH",
"175 0 OFFCURVE",
"182 7 OFFCURVE",
"182 22 CURVE SMOOTH",
"182 448 LINE",
"294 448 LINE",
"294 22 LINE SMOOTH",
"294 7 OFFCURVE",
"302 0 OFFCURVE",
"316 0 CURVE SMOOTH",
"358 0 LINE SMOOTH",
"373 0 OFFCURVE",
"380 7 OFFCURVE",
"380 22 CURVE SMOOTH",
"380 290 LINE SMOOTH",
"380 414 OFFCURVE",
"426 458 OFFCURVE",
"509 458 CURVE SMOOTH",
"542 458 OFFCURVE",
"569 449 OFFCURVE",
"590 432 CURVE SMOOTH",
"611 415 OFFCURVE",
"622 375 OFFCURVE",
"622 311 CURVE SMOOTH",
"622 3 LINE SMOOTH",
"622 -114 OFFCURVE",
"604 -140 OFFCURVE",
"567 -140 CURVE SMOOTH",
"549 -140 OFFCURVE",
"533 -137 OFFCURVE",
"520 -131 CURVE SMOOTH",
"518 -130 OFFCURVE",
"517 -130 OFFCURVE",
"515 -130 CURVE SMOOTH",
"511 -130 OFFCURVE",
"509 -133 OFFCURVE",
"508 -139 CURVE SMOOTH",
"500 -178 LINE SMOOTH",
"499 -180 OFFCURVE",
"499 -181 OFFCURVE",
"499 -182 CURVE SMOOTH",
"499 -198 OFFCURVE",
"535 -204 OFFCURVE",
"583 -204 CURVE SMOOTH",
"618 -204 OFFCURVE",
"647 -193 OFFCURVE",
"671 -172 CURVE SMOOTH",
"695 -151 OFFCURVE",
"708 -108 OFFCURVE",
"708 -45 CURVE SMOOTH",
"708 334 LINE SMOOTH",
"708 449 OFFCURVE",
"660 521 OFFCURVE",
"541 521 CURVE SMOOTH",
"467 521 OFFCURVE",
"424 499 OFFCURVE",
"381 452 CURVE",
"379 452 LINE",
"379 491 LINE SMOOTH",
"379 505 OFFCURVE",
"372 513 OFFCURVE",
"357 513 CURVE SMOOTH",
"182 513 LINE",
"182 571 LINE SMOOTH",
"182 646 OFFCURVE",
"205 666 OFFCURVE",
"258 666 CURVE SMOOTH",
"282 666 OFFCURVE",
"303 659 OFFCURVE",
"318 652 CURVE SMOOTH",
"322 651 OFFCURVE",
"324 650 OFFCURVE",
"327 650 CURVE SMOOTH",
"331 650 OFFCURVE",
"334 652 OFFCURVE",
"335 656 CURVE SMOOTH",
"351 695 LINE SMOOTH",
"352 697 OFFCURVE",
"352 699 OFFCURVE",
"352 701 CURVE SMOOTH",
"352 714 OFFCURVE",
"306 724 OFFCURVE",
"295 726 CURVE SMOOTH",
"281 728 OFFCURVE",
"263 729 OFFCURVE",
"241 729 CURVE SMOOTH",
"203 729 OFFCURVE",
"169 719 OFFCURVE",
"140 698 CURVE SMOOTH",
"111 677 OFFCURVE",
"96 640 OFFCURVE",
"96 585 CURVE SMOOTH",
"96 513 LINE",
"44 513 LINE SMOOTH",
"29 513 OFFCURVE",
"22 507 OFFCURVE",
"22 496 CURVE SMOOTH",
"22 465 LINE SMOOTH",
"22 454 OFFCURVE",
"29 448 OFFCURVE",
"44 448 CURVE SMOOTH"
);
}
);
width = 776;
}
);
unicode = 02A9;
},
